NotoSerifMyanmar-CondensedLight.ufo
<glyph name="question" format="2">
  <advance width="521"/>
  <unicode hex="003F"/>
  <outline>
    <contour>
      <point x="255" y="321" type="line"/>
      <point x="256" y="426"/>
      <point x="452" y="492"/>
      <point x="452" y="728" type="curve" smooth="yes"/>
      <point x="452" y="854"/>
      <point x="390" y="950"/>
      <point x="269" y="950" type="curve" smooth="yes"/>
      <point x="142" y="950"/>
      <point x="68" y="865"/>
      <point x="68" y="714" type="curve" smooth="yes"/>
      <point x="68" y="711"/>
      <point x="68" y="706"/>
      <point x="69" y="701" type="curve"/>
      <point x="93" y="701" type="line"/>
      <point x="93" y="714" type="line" smooth="yes"/>
      <point x="93" y="854"/>
      <point x="158" y="915"/>
      <point x="269" y="915" type="curve" smooth="yes"/>
      <point x="387" y="915"/>
      <point x="425" y="825"/>
      <point x="425" y="725" type="curve" smooth="yes"/>
      <point x="425" y="500"/>
      <point x="233" y="446"/>
      <point x="233" y="321" type="curve"/>
    </contour>
    <contour>
      <point x="249" y="-10" type="curve" smooth="yes"/>
      <point x="308" y="-10"/>
      <point x="339" y="37"/>
      <point x="339" y="99" type="curve" smooth="yes"/>
      <point x="339" y="161"/>
      <point x="308" y="208"/>
      <point x="249" y="208" type="curve" smooth="yes"/>
      <point x="190" y="208"/>
      <point x="159" y="161"/>
      <point x="159" y="99" type="curve" smooth="yes"/>
      <point x="159" y="37"/>
      <point x="190" y="-10"/>
    </contour>
    <contour>
      <point x="249" y="16" type="curve" smooth="yes"/>
      <point x="201" y="16"/>
      <point x="177" y="52"/>
      <point x="177" y="99" type="curve" smooth="yes"/>
      <point x="177" y="146"/>
      <point x="201" y="182"/>
      <point x="249" y="182" type="curve" smooth="yes"/>
      <point x="297" y="182"/>
      <point x="321" y="146"/>
      <point x="321" y="99" type="curve" smooth="yes"/>
      <point x="321" y="52"/>
      <point x="297" y="16"/>
    </contour>
  </outline>
</glyph>
<glyph name="ka" format="2">
  <advance width="792"/>
  <unicode hex="1000"/>
  <outline>
    <contour>
      <point x="289" y="-8" type="line"/>
      <point x="333" y="-1"/>
      <point x="367" y="29"/>
      <point x="391" y="69" type="curve" smooth="yes"/>
      <point x="418" y="114"/>
      <point x="429" y="181"/>
      <point x="429" y="260" type="curve" smooth="yes"/>
      <point x="429" y="339"/>
      <point x="418" y="406"/>
      <point x="391" y="451" type="curve" smooth="yes"/>
      <point x="364" y="496"/>
      <point x="315" y="528"/>
      <point x="256" y="528" type="curve" smooth="yes"/>
      <point x="242" y="528" type="line" smooth="yes"/>
      <point x="183" y="528"/>
      <point x="134" y="496"/>
      <point x="107" y="451" type="curve" smooth="yes"/>
      <point x="80" y="406"/>
      <point x="69" y="339"/>
      <point x="69" y="260" type="curve" smooth="yes"/>
      <point x="69" y="181"/>
      <point x="80" y="114"/>
      <point x="107" y="69" type="curve" smooth="yes"/>
      <point x="131" y="29"/>
      <point x="165" y="-1"/>
      <point x="209" y="-8" type="curve"/>
      <point x="209" y="20" type="line"/>
      <point x="129" y="37"/>
      <point x="89" y="115"/>
      <point x="89" y="248" type="curve" smooth="yes"/>
      <point x="89" y="272" type="line" smooth="yes"/>
      <point x="89" y="424"/>
      <point x="143" y="500"/>
      <point x="249" y="500" type="curve" smooth="yes"/>
      <point x="355" y="500"/>
      <point x="409" y="424"/>
      <point x="409" y="272" type="curve" smooth="yes"/>
      <point x="409" y="248" type="line" smooth="yes"/>
      <point x="409" y="115"/>
      <point x="369" y="37"/>
      <point x="289" y="20" type="curve"/>
    </contour>
    <contour>
      <point x="391" y="432" type="curve"/>
      <point x="404" y="407" type="line"/>
      <point x="429" y="469"/>
      <point x="475" y="500"/>
      <point x="543" y="500" type="curve" smooth="yes"/>
      <point x="649" y="500"/>
      <point x="703" y="424"/>
      <point x="703" y="272" type="curve" smooth="yes"/>
      <point x="703" y="248" type="line" smooth="yes"/>
      <point x="703" y="96"/>
      <point x="649" y="20"/>
      <point x="543" y="20" type="curve" smooth="yes"/>
      <point x="501" y="20" type="line"/>
      <point x="501" y="-4" type="line"/>
      <point x="514" y="-7"/>
      <point x="531" y="-8"/>
      <point x="546" y="-8" type="curve" smooth="yes"/>
      <point x="609" y="-8"/>
      <point x="658" y="24"/>
      <point x="685" y="69" type="curve" smooth="yes"/>
      <point x="712" y="114"/>
      <point x="723" y="181"/>
      <point x="723" y="260" type="curve" smooth="yes"/>
      <point x="723" y="339"/>
      <point x="712" y="406"/>
      <point x="685" y="451" type="curve" smooth="yes"/>
      <point x="658" y="496"/>
      <point x="609" y="528"/>
      <point x="550" y="528" type="curve" smooth="yes"/>
      <point x="536" y="528" type="line" smooth="yes"/>
      <point x="473" y="528"/>
      <point x="416" y="490"/>
    </contour>
  </outline>
</glyph>
<glyph name="gha" format="2">
  <advance width="792"/>
  <unicode hex="1003"/>
  <outline>
    <contour>
      <point x="246" y="-8" type="curve" smooth="yes"/>
      <point x="253" y="-8" type="line" smooth="yes"/>
      <point x="315" y="-8"/>
      <point x="364" y="24"/>
      <point x="391" y="69" type="curve" smooth="yes"/>
      <point x="418" y="114"/>
      <point x="429" y="181"/>
      <point x="429" y="260" type="curve" smooth="yes"/>
      <point x="429" y="339"/>
      <point x="418" y="406"/>
      <point x="389" y="455" type="curve" smooth="yes"/>
      <point x="367" y="491"/>
      <point x="333" y="521"/>
      <point x="289" y="528" type="curve"/>
      <point x="289" y="500" type="line"/>
      <point x="369" y="483"/>
      <point x="409" y="405"/>
      <point x="409" y="272" type="curve" smooth="yes"/>
      <point x="409" y="248" type="line" smooth="yes"/>
      <point x="409" y="97"/>
      <point x="352" y="21"/>
      <point x="253" y="20" type="curve" smooth="yes"/>
      <point x="156" y="19"/>
      <point x="103" y="91"/>
      <point x="103" y="184" type="curve" smooth="yes"/>
      <point x="103" y="327"/>
      <point x="223" y="331"/>
      <point x="223" y="441" type="curve" smooth="yes"/>
      <point x="223" y="501"/>
      <point x="188" y="528"/>
      <point x="154" y="528" type="curve" smooth="yes"/>
      <point x="114" y="528"/>
      <point x="78" y="494"/>
      <point x="80" y="428" type="curve"/>
      <point x="100" y="428" type="line"/>
      <point x="101" y="479"/>
      <point x="121" y="503"/>
      <point x="153" y="503" type="curve" smooth="yes"/>
      <point x="179" y="503"/>
      <point x="203" y="485"/>
      <point x="203" y="441" type="curve" smooth="yes"/>
      <point x="203" y="343"/>
      <point x="83" y="334"/>
      <point x="83" y="181" type="curve" smooth="yes"/>
      <point x="83" y="69"/>
      <point x="147" y="-8"/>
    </contour>
    <contour>
      <point x="391" y="88" type="line"/>
      <point x="416" y="30"/>
      <point x="473" y="-8"/>
      <point x="536" y="-8" type="curve" smooth="yes"/>
      <point x="550" y="-8" type="line" smooth="yes"/>
      <point x="609" y="-8"/>
      <point x="658" y="24"/>
      <point x="685" y="69" type="curve" smooth="yes"/>
      <point x="712" y="114"/>
      <point x="723" y="181"/>
      <point x="723" y="260" type="curve" smooth="yes"/>
      <point x="723" y="339"/>
      <point x="712" y="406"/>
      <point x="685" y="451" type="curve" smooth="yes"/>
      <point x="658" y="496"/>
      <point x="609" y="528"/>
      <point x="546" y="528" type="curve" smooth="yes"/>
      <point x="531" y="528"/>
      <point x="514" y="527"/>
      <point x="501" y="524" type="curve"/>
      <point x="501" y="500" type="line"/>
      <point x="543" y="500" type="line" smooth="yes"/>
      <point x="649" y="500"/>
      <point x="703" y="424"/>
      <point x="703" y="272" type="curve" smooth="yes"/>
      <point x="703" y="248" type="line" smooth="yes"/>
      <point x="703" y="96"/>
      <point x="649" y="20"/>
      <point x="543" y="20" type="curve" smooth="yes"/>
      <point x="475" y="20"/>
      <point x="429" y="51"/>
      <point x="404" y="113" type="curve"/>
    </contour>
  </outline>
</glyph>
<glyph name="nga" format="2">
  <advance width="498"/>
  <unicode hex="1004"/>
  <outline>
    <contour>
      <point x="402" y="166" type="line"/>
      <point x="388" y="70"/>
      <point x="334" y="20"/>
      <point x="249" y="20" type="curve" smooth="yes"/>
      <point x="143" y="20"/>
      <point x="89" y="96"/>
      <point x="89" y="248" type="curve" smooth="yes"/>
      <point x="89" y="272" type="line" smooth="yes"/>
      <point x="89" y="424"/>
      <point x="143" y="500"/>
      <point x="249" y="500" type="curve" smooth="yes"/>
      <point x="334" y="500"/>
      <point x="388" y="449"/>
      <point x="402" y="354" type="curve"/>
      <point x="423" y="354" type="line"/>
      <point x="407" y="465"/>
      <point x="342" y="528"/>
      <point x="256" y="528" type="curve" smooth="yes"/>
      <point x="242" y="528" type="line" smooth="yes"/>
      <point x="183" y="528"/>
      <point x="134" y="496"/>
      <point x="107" y="451" type="curve" smooth="yes"/>
      <point x="80" y="406"/>
      <point x="69" y="339"/>
      <point x="69" y="260" type="curve" smooth="yes"/>
      <point x="69" y="181"/>
      <point x="80" y="114"/>
      <point x="107" y="69" type="curve" smooth="yes"/>
      <point x="134" y="24"/>
      <point x="183" y="-8"/>
      <point x="242" y="-8" type="curve" smooth="yes"/>
      <point x="256" y="-8" type="line" smooth="yes"/>
      <point x="340" y="-8"/>
      <point x="406" y="52"/>
      <point x="423" y="166" type="curve"/>
    </contour>
  </outline>
</glyph>
<glyph name="ca" format="2">
  <advance width="498"/>
  <unicode hex="1005"/>
  <note>
ca
</note>
  <outline>
    <contour>
      <point x="168" y="152" type="curve" smooth="yes"/>
      <point x="234" y="152"/>
      <point x="268" y="179"/>
      <point x="268" y="260" type="curve" smooth="yes"/>
      <point x="268" y="341"/>
      <point x="234" y="368"/>
      <point x="168" y="368" type="curve" smooth="yes"/>
      <point x="109" y="368"/>
      <point x="70" y="341"/>
      <point x="70" y="259" type="curve" smooth="yes"/>
      <point x="70" y="178"/>
      <point x="109" y="152"/>
    </contour>
    <contour>
      <point x="168" y="173" type="curve" smooth="yes"/>
      <point x="104" y="173"/>
      <point x="89" y="207"/>
      <point x="89" y="260" type="curve" smooth="yes"/>
      <point x="89" y="313"/>
      <point x="104" y="347"/>
      <point x="168" y="347" type="curve" smooth="yes"/>
      <point x="233" y="347"/>
      <point x="248" y="313"/>
      <point x="248" y="260" type="curve" smooth="yes"/>
      <point x="248" y="207"/>
      <point x="233" y="173"/>
    </contour>
    <contour>
      <point x="242" y="528" type="line" smooth="yes"/>
      <point x="183" y="528"/>
      <point x="134" y="496"/>
      <point x="107" y="451" type="curve" smooth="yes"/>
      <point x="80" y="406"/>
      <point x="69" y="339"/>
      <point x="69" y="260" type="curve" smooth="yes"/>
      <point x="69" y="181"/>
      <point x="80" y="114"/>
      <point x="107" y="69" type="curve" smooth="yes"/>
      <point x="134" y="24"/>
      <point x="183" y="-8"/>
      <point x="242" y="-8" type="curve" smooth="yes"/>
      <point x="256" y="-8" type="line" smooth="yes"/>
      <point x="315" y="-8"/>
      <point x="364" y="24"/>
      <point x="391" y="69" type="curve" smooth="yes"/>
      <point x="418" y="114"/>
      <point x="429" y="181"/>
      <point x="429" y="260" type="curve" smooth="yes"/>
      <point x="429" y="339"/>
      <point x="418" y="406"/>
      <point x="391" y="451" type="curve" smooth="yes"/>
      <point x="364" y="496"/>
      <point x="315" y="528"/>
      <point x="256" y="528" type="curve" smooth="yes"/>
    </contour>
    <contour>
      <point x="249" y="20" type="curve" smooth="yes"/>
      <point x="143" y="20"/>
      <point x="89" y="96"/>
      <point x="89" y="248" type="curve" smooth="yes"/>
      <point x="89" y="272" type="line" smooth="yes"/>
      <point x="89" y="424"/>
      <point x="143" y="500"/>
      <point x="249" y="500" type="curve" smooth="yes"/>
      <point x="355" y="500"/>
      <point x="409" y="424"/>
      <point x="409" y="272" type="curve" smooth="yes"/>
      <point x="409" y="248" type="line" smooth="yes"/>
      <point x="409" y="96"/>
      <point x="355" y="20"/>
    </contour>
  </outline>
</glyph>
<glyph name="cha" format="2">
  <advance width="795"/>
  <unicode hex="1006"/>
  <note>
cha
</note>
  <outline>
    <contour>
      <point x="406" y="113" type="curve"/>
      <point x="393" y="86" type="line"/>
      <point x="425" y="23"/>
      <point x="476" y="-10"/>
      <point x="539" y="-10" type="curve" smooth="yes"/>
      <point x="553" y="-10" type="line" smooth="yes"/>
      <point x="612" y="-10"/>
      <point x="660" y="21"/>
      <point x="687" y="64" type="curve" smooth="yes"/>
      <point x="716" y="111"/>
      <point x="726" y="181"/>
      <point x="726" y="260" type="curve" smooth="yes"/>
      <point x="726" y="339"/>
      <point x="716" y="409"/>
      <point x="687" y="456" type="curve" smooth="yes"/>
      <point x="660" y="499"/>
      <point x="612" y="530"/>
      <point x="553" y="530" type="curve" smooth="yes"/>
      <point x="539" y="530" type="line" smooth="yes"/>
      <point x="476" y="530"/>
      <point x="425" y="497"/>
      <point x="393" y="434" type="curve"/>
      <point x="406" y="407" type="line"/>
      <point x="430" y="470"/>
      <point x="477" y="502"/>
      <point x="546" y="502" type="curve" smooth="yes"/>
      <point x="653" y="502"/>
      <point x="706" y="427"/>
      <point x="706" y="277" type="curve" smooth="yes"/>
      <point x="706" y="243" type="line" smooth="yes"/>
      <point x="706" y="93"/>
      <point x="653" y="18"/>
      <point x="546" y="18" type="curve" smooth="yes"/>
      <point x="477" y="18"/>
      <point x="430" y="50"/>
    </contour>
    <component base="kha"/>
  </outline>
</glyph>
<glyph name="ja" format="2">
  <advance width="509"/>
  <unicode hex="1007"/>
  <note>
ja
</note>
  <outline>
    <contour>
      <point x="258" y="500" type="curve"/>
      <point x="297" y="522" type="line"/>
      <point x="224" y="505"/>
      <point x="206" y="455"/>
      <point x="206" y="420" type="curve" smooth="yes"/>
      <point x="206" y="384"/>
      <point x="222" y="326"/>
      <point x="314" y="326" type="curve" smooth="yes"/>
      <point x="406" y="326"/>
      <point x="422" y="384"/>
      <point x="422" y="420" type="curve" smooth="yes"/>
      <point x="422" y="463"/>
      <point x="396" y="528"/>
      <point x="275" y="528" type="curve" smooth="yes"/>
      <point x="257" y="528" type="line" smooth="yes"/>
      <point x="184" y="528"/>
      <point x="134" y="496"/>
      <point x="107" y="451" type="curve" smooth="yes"/>
      <point x="80" y="406"/>
      <point x="69" y="339"/>
      <point x="69" y="260" type="curve" smooth="yes"/>
      <point x="69" y="181"/>
      <point x="80" y="114"/>
      <point x="107" y="69" type="curve" smooth="yes"/>
      <point x="134" y="24"/>
      <point x="183" y="-8"/>
      <point x="242" y="-8" type="curve" smooth="yes"/>
      <point x="256" y="-8" type="line" smooth="yes"/>
      <point x="342" y="-8"/>
      <point x="407" y="55"/>
      <point x="423" y="166" type="curve"/>
      <point x="402" y="166" type="line"/>
      <point x="388" y="71"/>
      <point x="334" y="20"/>
      <point x="249" y="20" type="curve" smooth="yes"/>
      <point x="143" y="20"/>
      <point x="89" y="96"/>
      <point x="89" y="248" type="curve" smooth="yes"/>
      <point x="89" y="272" type="line" smooth="yes"/>
      <point x="89" y="424"/>
      <point x="144" y="500"/>
    </contour>
    <contour>
      <point x="314" y="500" type="curve" smooth="yes"/>
      <point x="377" y="500"/>
      <point x="401" y="465"/>
      <point x="401" y="419" type="curve" smooth="yes"/>
      <point x="401" y="384"/>
      <point x="381" y="353"/>
      <point x="325" y="353" type="curve" smooth="yes"/>
      <point x="303" y="353" type="line" smooth="yes"/>
      <point x="247" y="353"/>
      <point x="227" y="384"/>
      <point x="227" y="419" type="curve" smooth="yes"/>
      <point x="227" y="465"/>
      <point x="251" y="500"/>
    </contour>
    <contour>
      <point x="511" y="332" type="line"/>
      <point x="462" y="331"/>
      <point x="419" y="346"/>
      <point x="419" y="413" type="curve"/>
      <point x="403" y="403" type="line"/>
      <point x="404" y="331"/>
      <point x="453" y="309"/>
      <point x="511" y="311" type="curve"/>
    </contour>
  </outline>
</glyph>
<glyph name="jha" format="2">
  <advance width="668"/>
  <unicode hex="1008"/>
  <outline>
    <contour>
      <point x="594" y="520" type="line"/>
      <point x="572" y="520" type="line"/>
      <point x="572" y="-373" type="line" smooth="yes"/>
      <point x="572" y="-464"/>
      <point x="535" y="-501"/>
      <point x="467" y="-501" type="curve" smooth="yes"/>
      <point x="400" y="-501"/>
      <point x="362" y="-464"/>
      <point x="362" y="-373" type="curve" smooth="yes"/>
      <point x="362" y="36" type="line"/>
      <point x="340" y="36" type="line"/>
      <point x="340" y="-379" type="line" smooth="yes"/>
      <point x="340" y="-471"/>
      <point x="383" y="-529"/>
      <point x="467" y="-529" type="curve" smooth="yes"/>
      <point x="552" y="-529"/>
      <point x="594" y="-471"/>
      <point x="594" y="-379" type="curve" smooth="yes"/>
    </contour>
    <component base="ca"/>
  </outline>
</glyph>
<glyph name="nya" format="2">
  <advance width="498"/>
  <unicode hex="1009"/>
  <note>
nya
</note>
  <outline>
    <contour>
      <point x="723" y="-313" type="line"/>
      <point x="701" y="-313" type="line"/>
      <point x="701" y="-317" type="line" smooth="yes"/>
      <point x="701" y="-406"/>
      <point x="684" y="-444"/>
      <point x="651" y="-466" type="curve" smooth="yes"/>
      <point x="603" y="-495"/>
      <point x="526" y="-502"/>
      <point x="399" y="-502" type="curve" smooth="yes"/>
      <point x="272" y="-502"/>
      <point x="195" y="-494"/>
      <point x="149" y="-466" type="curve" smooth="yes"/>
      <point x="115" y="-444"/>
      <point x="97" y="-406"/>
      <point x="97" y="-317" type="curve" smooth="yes"/>
      <point x="97" y="127" type="line"/>
      <point x="75" y="166" type="line"/>
      <point x="75" y="-320" type="line" smooth="yes"/>
      <point x="75" y="-423"/>
      <point x="97" y="-463"/>
      <point x="132" y="-488" type="curve" smooth="yes"/>
      <point x="181" y="-522"/>
      <point x="264" y="-529"/>
      <point x="399" y="-529" type="curve" smooth="yes"/>
      <point x="534" y="-529"/>
      <point x="618" y="-522"/>
      <point x="667" y="-488" type="curve" smooth="yes"/>
      <point x="702" y="-463"/>
      <point x="723" y="-423"/>
      <point x="723" y="-320" type="curve" smooth="yes"/>
    </contour>
    <component base="nga" xScale="-1" yScale="-1" xOffset="498" yOffset="520"/>
  </outline>
</glyph>
<glyph name="tta" format="2">
  <advance width="498"/>
  <unicode hex="100B"/>
  <outline>
    <contour>
      <point x="69" y="12" type="line"/>
      <point x="69" y="-188" type="line" smooth="yes"/>
      <point x="69" y="-286"/>
      <point x="84" y="-323"/>
      <point x="108" y="-348" type="curve" smooth="yes"/>
      <point x="137" y="-380"/>
      <point x="186" y="-388"/>
      <point x="246" y="-388" type="curve" smooth="yes"/>
      <point x="306" y="-388"/>
      <point x="355" y="-380"/>
      <point x="384" y="-348" type="curve" smooth="yes"/>
      <point x="408" y="-323"/>
      <point x="423" y="-286"/>
      <point x="423" y="-188" type="curve" smooth="yes"/>
      <point x="423" y="-182" type="line"/>
      <point x="403" y="-182" type="line"/>
      <point x="403" y="-262"/>
      <point x="394" y="-302"/>
      <point x="371" y="-326" type="curve" smooth="yes"/>
      <point x="343" y="-354"/>
      <point x="299" y="-361"/>
      <point x="246" y="-361" type="curve" smooth="yes"/>
      <point x="193" y="-361"/>
      <point x="149" y="-354"/>
      <point x="121" y="-326" type="curve" smooth="yes"/>
      <point x="100" y="-304"/>
      <point x="89" y="-269"/>
      <point x="89" y="-183" type="curve" smooth="yes"/>
      <point x="89" y="-90" type="line"/>
    </contour>
    <contour>
      <point x="423" y="166" type="line"/>
      <point x="403" y="137" type="line"/>
      <point x="403" y="12" type="line" smooth="yes"/>
      <point x="403" y="-74"/>
      <point x="392" y="-109"/>
      <point x="371" y="-131" type="curve" smooth="yes"/>
      <point x="343" y="-159"/>
      <point x="299" y="-166"/>
      <point x="246" y="-166" type="curve" smooth="yes"/>
      <point x="193" y="-166"/>
      <point x="149" y="-159"/>
      <point x="121" y="-131" type="curve" smooth="yes"/>
      <point x="100" y="-109"/>
      <point x="89" y="-74"/>
      <point x="89" y="12" type="curve" smooth="yes"/>
      <point x="89" y="13" type="line"/>
      <point x="69" y="13" type="line"/>
      <point x="69" y="7" type="line" smooth="yes"/>
      <point x="69" y="-91"/>
      <point x="84" y="-128"/>
      <point x="108" y="-153" type="curve" smooth="yes"/>
      <point x="137" y="-185"/>
      <point x="186" y="-193"/>
      <point x="246" y="-193" type="curve" smooth="yes"/>
      <point x="306" y="-193"/>
      <point x="355" y="-185"/>
      <point x="384" y="-153" type="curve" smooth="yes"/>
      <point x="408" y="-128"/>
      <point x="423" y="-91"/>
      <point x="423" y="7" type="curve" smooth="yes"/>
    </contour>
    <contour>
      <point x="519" y="-501" type="line"/>
      <point x="500" y="-501" type="line" smooth="yes"/>
      <point x="446" y="-501"/>
      <point x="423" y="-485"/>
      <point x="423" y="-392" type="curve" smooth="yes"/>
      <point x="423" y="-187" type="line"/>
      <point x="401" y="-285" type="line"/>
      <point x="401" y="-398" type="line" smooth="yes"/>
      <point x="401" y="-498"/>
      <point x="433" y="-529"/>
      <point x="495" y="-529" type="curve" smooth="yes"/>
      <point x="505" y="-529"/>
      <point x="515" y="-528"/>
      <point x="519" y="-527" type="curve"/>
    </contour>
    <component base="nga"/>
  </outline>
</glyph>
<glyph name="ttha" format="2">
  <advance width="498"/>
  <unicode hex="100C"/>
  <note>
ttha
</note>
  <outline>
    <contour>
      <point x="423" y="166" type="line"/>
      <point x="401" y="137" type="line"/>
      <point x="401" y="-324" type="line" smooth="yes"/>
      <point x="401" y="-410"/>
      <point x="390" y="-445"/>
      <point x="369" y="-467" type="curve" smooth="yes"/>
      <point x="342" y="-495"/>
      <point x="302" y="-502"/>
      <point x="241" y="-502" type="curve" smooth="yes"/>
      <point x="151" y="-502"/>
      <point x="89" y="-486"/>
      <point x="89" y="-407" type="curve" smooth="yes"/>
      <point x="89" y="-350"/>
      <point x="123" y="-311"/>
      <point x="190" y="-311" type="curve" smooth="yes"/>
      <point x="256" y="-311"/>
      <point x="289" y="-346"/>
      <point x="293" y="-396" type="curve"/>
      <point x="318" y="-396" type="line"/>
      <point x="314" y="-336"/>
      <point x="266" y="-291"/>
      <point x="189" y="-291" type="curve" smooth="yes"/>
      <point x="103" y="-291"/>
      <point x="69" y="-348"/>
      <point x="69" y="-409" type="curve" smooth="yes"/>
      <point x="69" y="-451"/>
      <point x="84" y="-481"/>
      <point x="107" y="-499" type="curve" smooth="yes"/>
      <point x="139" y="-525"/>
      <point x="191" y="-529"/>
      <point x="241" y="-529" type="curve" smooth="yes"/>
      <point x="315" y="-529"/>
      <point x="352" y="-520"/>
      <point x="382" y="-489" type="curve" smooth="yes"/>
      <point x="406" y="-464"/>
      <point x="423" y="-427"/>
      <point x="423" y="-329" type="curve" smooth="yes"/>
    </contour>
    <component base="nga"/>
  </outline>
</glyph>
<glyph name="dda" format="2">
  <advance width="498"/>
  <unicode hex="100D"/>
  <note>
dda
</note>
  <outline>
    <contour>
      <point x="75" y="166" type="line"/>
      <point x="75" y="-8" type="line" smooth="yes"/>
      <point x="75" y="-106"/>
      <point x="92" y="-143"/>
      <point x="116" y="-168" type="curve" smooth="yes"/>
      <point x="145" y="-200"/>
      <point x="192" y="-208"/>
      <point x="252" y="-208" type="curve" smooth="yes"/>
      <point x="312" y="-208"/>
      <point x="361" y="-200"/>
      <point x="390" y="-168" type="curve" smooth="yes"/>
      <point x="414" y="-143"/>
      <point x="429" y="-106"/>
      <point x="429" y="-8" type="curve" smooth="yes"/>
      <point x="429" y="-6" type="line"/>
      <point x="409" y="-6" type="line"/>
      <point x="409" y="-89"/>
      <point x="398" y="-124"/>
      <point x="377" y="-146" type="curve" smooth="yes"/>
      <point x="350" y="-174"/>
      <point x="305" y="-181"/>
      <point x="253" y="-181" type="curve" smooth="yes"/>
      <point x="201" y="-181"/>
      <point x="156" y="-174"/>
      <point x="129" y="-146" type="curve" smooth="yes"/>
      <point x="108" y="-124"/>
      <point x="97" y="-89"/>
      <point x="97" y="-3" type="curve" smooth="yes"/>
      <point x="97" y="137" type="line"/>
    </contour>
    <contour>
      <point x="534" y="-500" type="line"/>
      <point x="514" y="-500" type="line" smooth="yes"/>
      <point x="464" y="-500"/>
      <point x="429" y="-483"/>
      <point x="429" y="-341" type="curve" smooth="yes"/>
      <point x="429" y="-10" type="line"/>
      <point x="409" y="-108" type="line"/>
      <point x="409" y="-347" type="line" smooth="yes"/>
      <point x="409" y="-494"/>
      <point x="452" y="-528"/>
      <point x="509" y="-528" type="curve" smooth="yes"/>
      <point x="514" y="-528"/>
      <point x="524" y="-528"/>
      <point x="534" y="-527" type="curve"/>
    </contour>
    <component base="nga" xScale="-1" xOffset="498"/>
  </outline>
</glyph>
<glyph name="ddha" format="2">
  <advance width="498"/>
  <unicode hex="100E"/>
  <note>
ddha
</note>
  <outline>
    <contour>
      <point x="246" y="-8" type="curve" smooth="yes"/>
      <point x="253" y="-8" type="line" smooth="yes"/>
      <point x="315" y="-8"/>
      <point x="364" y="24"/>
      <point x="391" y="69" type="curve" smooth="yes"/>
      <point x="418" y="114"/>
      <point x="429" y="181"/>
      <point x="429" y="260" type="curve" smooth="yes"/>
      <point x="429" y="339"/>
      <point x="418" y="406"/>
      <point x="389" y="455" type="curve" smooth="yes"/>
      <point x="367" y="491"/>
      <point x="333" y="521"/>
      <point x="289" y="528" type="curve"/>
      <point x="289" y="500" type="line"/>
      <point x="369" y="483"/>
      <point x="409" y="405"/>
      <point x="409" y="272" type="curve" smooth="yes"/>
      <point x="409" y="248" type="line" smooth="yes"/>
      <point x="409" y="97"/>
      <point x="352" y="21"/>
      <point x="253" y="20" type="curve" smooth="yes"/>
      <point x="156" y="19"/>
      <point x="103" y="91"/>
      <point x="103" y="184" type="curve" smooth="yes"/>
      <point x="103" y="327"/>
      <point x="223" y="331"/>
      <point x="223" y="441" type="curve" smooth="yes"/>
      <point x="223" y="501"/>
      <point x="188" y="528"/>
      <point x="154" y="528" type="curve" smooth="yes"/>
      <point x="114" y="528"/>
      <point x="78" y="494"/>
      <point x="80" y="428" type="curve"/>
      <point x="100" y="428" type="line"/>
      <point x="101" y="479"/>
      <point x="121" y="503"/>
      <point x="153" y="503" type="curve" smooth="yes"/>
      <point x="179" y="503"/>
      <point x="203" y="485"/>
      <point x="203" y="441" type="curve" smooth="yes"/>
      <point x="203" y="343"/>
      <point x="83" y="334"/>
      <point x="83" y="181" type="curve" smooth="yes"/>
      <point x="83" y="69"/>
      <point x="147" y="-8"/>
    </contour>
  </outline>
</glyph>
<glyph name="nna" format="2">
  <advance width="908"/>
  <unicode hex="100F"/>
  <note>
nna
</note>
  <outline>
    <contour>
      <point x="617" y="20" type="line"/>
      <point x="617" y="-4" type="line"/>
      <point x="630" y="-7"/>
      <point x="647" y="-8"/>
      <point x="662" y="-8" type="curve" smooth="yes"/>
      <point x="725" y="-8"/>
      <point x="774" y="24"/>
      <point x="801" y="69" type="curve" smooth="yes"/>
      <point x="828" y="114"/>
      <point x="839" y="181"/>
      <point x="839" y="260" type="curve" smooth="yes"/>
      <point x="839" y="339"/>
      <point x="828" y="406"/>
      <point x="801" y="451" type="curve" smooth="yes"/>
      <point x="774" y="496"/>
      <point x="725" y="528"/>
      <point x="666" y="528" type="curve" smooth="yes"/>
      <point x="663" y="528" type="line" smooth="yes"/>
      <point x="572" y="528"/>
      <point x="506" y="450"/>
      <point x="506" y="322" type="curve" smooth="yes"/>
      <point x="506" y="250"/>
      <point x="523" y="193"/>
      <point x="523" y="127" type="curve" smooth="yes"/>
      <point x="523" y="82"/>
      <point x="512" y="20"/>
      <point x="454" y="20" type="curve" smooth="yes"/>
      <point x="396" y="20"/>
      <point x="385" y="82"/>
      <point x="385" y="127" type="curve" smooth="yes"/>
      <point x="385" y="193"/>
      <point x="402" y="250"/>
      <point x="402" y="322" type="curve" smooth="yes"/>
      <point x="402" y="450"/>
      <point x="336" y="528"/>
      <point x="245" y="528" type="curve" smooth="yes"/>
      <point x="242" y="528" type="line" smooth="yes"/>
      <point x="183" y="528"/>
      <point x="134" y="496"/>
      <point x="107" y="451" type="curve" smooth="yes"/>
      <point x="80" y="406"/>
      <point x="69" y="339"/>
      <point x="69" y="260" type="curve" smooth="yes"/>
      <point x="69" y="181"/>
      <point x="80" y="114"/>
      <point x="107" y="69" type="curve" smooth="yes"/>
      <point x="134" y="24"/>
      <point x="183" y="-8"/>
      <point x="246" y="-8" type="curve" smooth="yes"/>
      <point x="261" y="-8"/>
      <point x="278" y="-7"/>
      <point x="291" y="-4" type="curve"/>
      <point x="291" y="20" type="line"/>
      <point x="249" y="20" type="line" smooth="yes"/>
      <point x="143" y="20"/>
      <point x="89" y="96"/>
      <point x="89" y="248" type="curve" smooth="yes"/>
      <point x="89" y="272" type="line" smooth="yes"/>
      <point x="89" y="424"/>
      <point x="143" y="500"/>
      <point x="246" y="500" type="curve" smooth="yes"/>
      <point x="326" y="500"/>
      <point x="382" y="437"/>
      <point x="382" y="319" type="curve" smooth="yes"/>
      <point x="382" y="242"/>
      <point x="365" y="192"/>
      <point x="365" y="126" type="curve" smooth="yes"/>
      <point x="365" y="72"/>
      <point x="379" y="-8"/>
      <point x="453" y="-8" type="curve" smooth="yes"/>
      <point x="455" y="-8" type="line" smooth="yes"/>
      <point x="529" y="-8"/>
      <point x="543" y="72"/>
      <point x="543" y="126" type="curve" smooth="yes"/>
      <point x="543" y="192"/>
      <point x="526" y="242"/>
      <point x="526" y="319" type="curve" smooth="yes"/>
      <point x="526" y="437"/>
      <point x="582" y="500"/>
      <point x="662" y="500" type="curve" smooth="yes"/>
      <point x="765" y="500"/>
      <point x="819" y="424"/>
      <point x="819" y="272" type="curve" smooth="yes"/>
      <point x="819" y="248" type="line" smooth="yes"/>
      <point x="819" y="96"/>
      <point x="765" y="20"/>
      <point x="659" y="20" type="curve" smooth="yes"/>
    </contour>
    <contour>
      <point x="454" y="530" type="curve" smooth="yes"/>
      <point x="402" y="530"/>
      <point x="369" y="487"/>
      <point x="361" y="436" type="curve"/>
      <point x="376" y="422" type="line"/>
      <point x="385" y="476"/>
      <point x="413" y="504"/>
      <point x="454" y="504" type="curve" smooth="yes"/>
      <point x="495" y="504"/>
      <point x="523" y="476"/>
      <point x="532" y="422" type="curve"/>
      <point x="547" y="436" type="line"/>
      <point x="539" y="487"/>
      <point x="506" y="530"/>
    </contour>
  </outline>
</glyph>
<glyph name="tha" format="2">
  <advance width="792"/>
  <unicode hex="1011"/>
  <note>
tha
</note>
  <outline>
    <contour>
      <point x="403" y="113" type="curve"/>
      <point x="390" y="86" type="line"/>
      <point x="422" y="23"/>
      <point x="473" y="-10"/>
      <point x="536" y="-10" type="curve" smooth="yes"/>
      <point x="550" y="-10" type="line" smooth="yes"/>
      <point x="609" y="-10"/>
      <point x="657" y="21"/>
      <point x="684" y="64" type="curve" smooth="yes"/>
      <point x="713" y="111"/>
      <point x="723" y="181"/>
      <point x="723" y="260" type="curve" smooth="yes"/>
      <point x="723" y="339"/>
      <point x="713" y="409"/>
      <point x="684" y="456" type="curve" smooth="yes"/>
      <point x="657" y="499"/>
      <point x="609" y="530"/>
      <point x="550" y="530" type="curve" smooth="yes"/>
      <point x="536" y="530" type="line" smooth="yes"/>
      <point x="473" y="530"/>
      <point x="422" y="497"/>
      <point x="390" y="434" type="curve"/>
      <point x="403" y="407" type="line"/>
      <point x="427" y="470"/>
      <point x="474" y="502"/>
      <point x="543" y="502" type="curve" smooth="yes"/>
      <point x="650" y="502"/>
      <point x="703" y="427"/>
      <point x="703" y="277" type="curve" smooth="yes"/>
      <point x="703" y="243" type="line" smooth="yes"/>
      <point x="703" y="93"/>
      <point x="650" y="18"/>
      <point x="543" y="18" type="curve" smooth="yes"/>
      <point x="474" y="18"/>
      <point x="427" y="50"/>
    </contour>
    <component base="wa"/>
  </outline>
</glyph>
<glyph name="da" format="2">
  <advance width="442"/>
  <unicode hex="1012"/>
  <note>
da
</note>
  <outline>
    <contour>
      <point x="373" y="396" type="curve" smooth="yes"/>
      <point x="373" y="483"/>
      <point x="318" y="528"/>
      <point x="232" y="528" type="curve" smooth="yes"/>
      <point x="220" y="528" type="line" smooth="yes"/>
      <point x="79" y="528"/>
      <point x="62" y="425"/>
      <point x="71" y="368" type="curve"/>
      <point x="89" y="368" type="line"/>
      <point x="85" y="438"/>
      <point x="104" y="500"/>
      <point x="222" y="500" type="curve" smooth="yes"/>
      <point x="323" y="500"/>
      <point x="353" y="451"/>
      <point x="353" y="396" type="curve" smooth="yes"/>
      <point x="353" y="328"/>
      <point x="313" y="273"/>
      <point x="200" y="273" type="curve" smooth="yes"/>
      <point x="136" y="273" type="line"/>
      <point x="136" y="247" type="line"/>
      <point x="200" y="247" type="line" smooth="yes"/>
      <point x="313" y="247"/>
      <point x="353" y="192"/>
      <point x="353" y="124" type="curve" smooth="yes"/>
      <point x="353" y="69"/>
      <point x="323" y="20"/>
      <point x="222" y="20" type="curve" smooth="yes"/>
      <point x="104" y="20"/>
      <point x="85" y="82"/>
      <point x="89" y="152" type="curve"/>
      <point x="71" y="152" type="line"/>
      <point x="62" y="95"/>
      <point x="79" y="-8"/>
      <point x="220" y="-8" type="curve" smooth="yes"/>
      <point x="232" y="-8" type="line" smooth="yes"/>
      <point x="318" y="-8"/>
      <point x="373" y="37"/>
      <point x="373" y="124" type="curve" smooth="yes"/>
      <point x="373" y="215"/>
      <point x="316" y="264"/>
      <point x="204" y="264" type="curve"/>
      <point x="204" y="256" type="line"/>
      <point x="316" y="256"/>
      <point x="373" y="305"/>
    </contour>
  </outline>
</glyph>
<glyph name="pa" format="2">
  <advance width="498"/>
  <unicode hex="1015"/>
  <outline>
    <contour>
      <point x="289" y="528" type="curve"/>
      <point x="289" y="500" type="line"/>
      <point x="369" y="483"/>
      <point x="409" y="405"/>
      <point x="409" y="272" type="curve" smooth="yes"/>
      <point x="409" y="248" type="line" smooth="yes"/>
      <point x="409" y="96"/>
      <point x="355" y="20"/>
      <point x="249" y="20" type="curve" smooth="yes"/>
      <point x="143" y="20"/>
      <point x="89" y="96"/>
      <point x="89" y="248" type="curve" smooth="yes"/>
      <point x="89" y="272" type="line" smooth="yes"/>
      <point x="89" y="405"/>
      <point x="129" y="483"/>
      <point x="209" y="500" type="curve"/>
      <point x="209" y="528" type="line"/>
      <point x="165" y="521"/>
      <point x="131" y="491"/>
      <point x="107" y="451" type="curve" smooth="yes"/>
      <point x="80" y="406"/>
      <point x="69" y="339"/>
      <point x="69" y="260" type="curve" smooth="yes"/>
      <point x="69" y="181"/>
      <point x="80" y="114"/>
      <point x="107" y="69" type="curve" smooth="yes"/>
      <point x="134" y="24"/>
      <point x="183" y="-8"/>
      <point x="242" y="-8" type="curve" smooth="yes"/>
      <point x="256" y="-8" type="line" smooth="yes"/>
      <point x="315" y="-8"/>
      <point x="364" y="24"/>
      <point x="391" y="69" type="curve" smooth="yes"/>
      <point x="418" y="114"/>
      <point x="429" y="181"/>
      <point x="429" y="260" type="curve" smooth="yes"/>
      <point x="429" y="339"/>
      <point x="418" y="406"/>
      <point x="391" y="451" type="curve" smooth="yes"/>
      <point x="367" y="491"/>
      <point x="333" y="521"/>
    </contour>
  </outline>
</glyph>
<glyph name="pha" format="2">
  <advance width="498"/>
  <unicode hex="1016"/>
  <note>
pha
</note>
  <outline>
    <contour>
      <point x="429" y="260" type="curve" smooth="yes"/>
      <point x="429" y="388"/>
      <point x="385" y="528"/>
      <point x="324" y="528" type="curve" smooth="yes"/>
      <point x="281" y="528"/>
      <point x="266" y="460"/>
      <point x="266" y="379" type="curve" smooth="yes"/>
      <point x="266" y="228"/>
      <point x="318" y="127"/>
      <point x="392" y="85" type="curve"/>
      <point x="392" y="111" type="line"/>
      <point x="333" y="141"/>
      <point x="285" y="240"/>
      <point x="285" y="376" type="curve" smooth="yes"/>
      <point x="285" y="439"/>
      <point x="291" y="501"/>
      <point x="326" y="501" type="curve" smooth="yes"/>
      <point x="375" y="501"/>
      <point x="410" y="372"/>
      <point x="409" y="272" type="curve" smooth="yes"/>
      <point x="409" y="248" type="line" smooth="yes"/>
      <point x="409" y="96"/>
      <point x="355" y="20"/>
      <point x="249" y="20" type="curve" smooth="yes"/>
      <point x="143" y="20"/>
      <point x="89" y="96"/>
      <point x="89" y="248" type="curve" smooth="yes"/>
      <point x="89" y="272" type="line" smooth="yes"/>
      <point x="89" y="405"/>
      <point x="129" y="483"/>
      <point x="209" y="500" type="curve"/>
      <point x="209" y="528" type="line"/>
      <point x="165" y="521"/>
      <point x="131" y="491"/>
      <point x="107" y="451" type="curve" smooth="yes"/>
      <point x="80" y="406"/>
      <point x="69" y="339"/>
      <point x="69" y="260" type="curve" smooth="yes"/>
      <point x="69" y="181"/>
      <point x="80" y="114"/>
      <point x="107" y="69" type="curve" smooth="yes"/>
      <point x="134" y="24"/>
      <point x="183" y="-8"/>
      <point x="242" y="-8" type="curve" smooth="yes"/>
      <point x="256" y="-8" type="line" smooth="yes"/>
      <point x="315" y="-8"/>
      <point x="364" y="24"/>
      <point x="391" y="69" type="curve" smooth="yes"/>
      <point x="418" y="114"/>
      <point x="429" y="181"/>
    </contour>
  </outline>
</glyph>
<glyph name="ma" format="2">
  <advance width="498"/>
  <unicode hex="1019"/>
  <outline>
    <contour>
      <point x="360" y="36" type="line"/>
      <point x="360" y="103" type="line" smooth="yes"/>
      <point x="360" y="163"/>
      <point x="321" y="191"/>
      <point x="249" y="191" type="curve" smooth="yes"/>
      <point x="177" y="191"/>
      <point x="138" y="163"/>
      <point x="138" y="103" type="curve" smooth="yes"/>
      <point x="138" y="36" type="line"/>
      <point x="157" y="36" type="line"/>
      <point x="157" y="93" type="line" smooth="yes"/>
      <point x="157" y="149"/>
      <point x="187" y="165"/>
      <point x="239" y="165" type="curve" smooth="yes"/>
      <point x="259" y="165" type="line" smooth="yes"/>
      <point x="311" y="165"/>
      <point x="341" y="149"/>
      <point x="341" y="93" type="curve" smooth="yes"/>
      <point x="341" y="36" type="line"/>
    </contour>
    <component base="pa"/>
  </outline>
</glyph>
<glyph name="wa" format="2">
  <advance width="498"/>
  <unicode hex="101D"/>
  <outline>
    <contour>
      <point x="242" y="528" type="line" smooth="yes"/>
      <point x="183" y="528"/>
      <point x="134" y="496"/>
      <point x="107" y="451" type="curve" smooth="yes"/>
      <point x="80" y="406"/>
      <point x="69" y="339"/>
      <point x="69" y="260" type="curve" smooth="yes"/>
      <point x="69" y="181"/>
      <point x="80" y="114"/>
      <point x="107" y="69" type="curve" smooth="yes"/>
      <point x="134" y="24"/>
      <point x="183" y="-8"/>
      <point x="242" y="-8" type="curve" smooth="yes"/>
      <point x="256" y="-8" type="line" smooth="yes"/>
      <point x="315" y="-8"/>
      <point x="364" y="24"/>
      <point x="391" y="69" type="curve" smooth="yes"/>
      <point x="418" y="114"/>
      <point x="429" y="181"/>
      <point x="429" y="260" type="curve" smooth="yes"/>
      <point x="429" y="339"/>
      <point x="418" y="406"/>
      <point x="391" y="451" type="curve" smooth="yes"/>
      <point x="364" y="496"/>
      <point x="315" y="528"/>
      <point x="256" y="528" type="curve" smooth="yes"/>
    </contour>
    <contour>
      <point x="249" y="20" type="curve" smooth="yes"/>
      <point x="143" y="20"/>
      <point x="89" y="96"/>
      <point x="89" y="248" type="curve" smooth="yes"/>
      <point x="89" y="272" type="line" smooth="yes"/>
      <point x="89" y="424"/>
      <point x="143" y="500"/>
      <point x="249" y="500" type="curve" smooth="yes"/>
      <point x="355" y="500"/>
      <point x="409" y="424"/>
      <point x="409" y="272" type="curve" smooth="yes"/>
      <point x="409" y="248" type="line" smooth="yes"/>
      <point x="409" y="96"/>
      <point x="355" y="20"/>
    </contour>
  </outline>
</glyph>
<glyph name="sa" format="2">
  <advance width="792"/>
  <unicode hex="101E"/>
  <note>
sa
</note>
  <outline>
    <contour>
      <point x="96" y="354" type="line"/>
      <point x="110" y="450"/>
      <point x="164" y="500"/>
      <point x="249" y="500" type="curve" smooth="yes"/>
      <point x="355" y="500"/>
      <point x="409" y="424"/>
      <point x="409" y="272" type="curve" smooth="yes"/>
      <point x="409" y="248" type="line" smooth="yes"/>
      <point x="409" y="96"/>
      <point x="355" y="20"/>
      <point x="249" y="20" type="curve" smooth="yes"/>
      <point x="164" y="20"/>
      <point x="110" y="71"/>
      <point x="96" y="166" type="curve"/>
      <point x="75" y="166" type="line"/>
      <point x="91" y="55"/>
      <point x="156" y="-8"/>
      <point x="242" y="-8" type="curve" smooth="yes"/>
      <point x="256" y="-8" type="line" smooth="yes"/>
      <point x="315" y="-8"/>
      <point x="364" y="24"/>
      <point x="391" y="69" type="curve" smooth="yes"/>
      <point x="418" y="114"/>
      <point x="429" y="181"/>
      <point x="429" y="260" type="curve" smooth="yes"/>
      <point x="429" y="339"/>
      <point x="418" y="406"/>
      <point x="391" y="451" type="curve" smooth="yes"/>
      <point x="364" y="496"/>
      <point x="315" y="528"/>
      <point x="256" y="528" type="curve" smooth="yes"/>
      <point x="242" y="528" type="line" smooth="yes"/>
      <point x="158" y="528"/>
      <point x="92" y="468"/>
      <point x="75" y="354" type="curve"/>
    </contour>
    <contour>
      <point x="391" y="88" type="line"/>
      <point x="416" y="30"/>
      <point x="473" y="-8"/>
      <point x="536" y="-8" type="curve" smooth="yes"/>
      <point x="550" y="-8" type="line" smooth="yes"/>
      <point x="609" y="-8"/>
      <point x="658" y="24"/>
      <point x="685" y="69" type="curve" smooth="yes"/>
      <point x="712" y="114"/>
      <point x="723" y="181"/>
      <point x="723" y="260" type="curve" smooth="yes"/>
      <point x="723" y="339"/>
      <point x="712" y="406"/>
      <point x="685" y="451" type="curve" smooth="yes"/>
      <point x="658" y="496"/>
      <point x="609" y="528"/>
      <point x="546" y="528" type="curve" smooth="yes"/>
      <point x="531" y="528"/>
      <point x="514" y="527"/>
      <point x="501" y="524" type="curve"/>
      <point x="501" y="500" type="line"/>
      <point x="543" y="500" type="line" smooth="yes"/>
      <point x="649" y="500"/>
      <point x="703" y="424"/>
      <point x="703" y="272" type="curve" smooth="yes"/>
      <point x="703" y="248" type="line" smooth="yes"/>
      <point x="703" y="96"/>
      <point x="649" y="20"/>
      <point x="543" y="20" type="curve" smooth="yes"/>
      <point x="475" y="20"/>
      <point x="429" y="51"/>
      <point x="404" y="113" type="curve"/>
    </contour>
  </outline>
</glyph>
<glyph name="a_m" format="2">
  <advance width="748"/>
  <unicode hex="1021"/>
  <note>
a_m
</note>
  <outline>
    <contour>
      <point x="506" y="528" type="curve" smooth="yes"/>
      <point x="492" y="528" type="line" smooth="yes"/>
      <point x="433" y="528"/>
      <point x="384" y="496"/>
      <point x="357" y="451" type="curve" smooth="yes"/>
      <point x="355" y="447"/>
      <point x="353" y="443"/>
      <point x="351" y="439" type="curve"/>
      <point x="363" y="414" type="line"/>
      <point x="388" y="471"/>
      <point x="434" y="500"/>
      <point x="499" y="500" type="curve" smooth="yes"/>
      <point x="605" y="500"/>
      <point x="659" y="424"/>
      <point x="659" y="272" type="curve" smooth="yes"/>
      <point x="659" y="248" type="line" smooth="yes"/>
      <point x="659" y="96"/>
      <point x="605" y="20"/>
      <point x="521" y="20" type="curve" smooth="yes"/>
      <point x="519" y="20" type="line" smooth="yes"/>
      <point x="481" y="20"/>
      <point x="448" y="40"/>
      <point x="448" y="92" type="curve" smooth="yes"/>
      <point x="448" y="145"/>
      <point x="483" y="167"/>
      <point x="527" y="167" type="curve" smooth="yes"/>
      <point x="543" y="167" type="line" smooth="yes"/>
      <point x="595" y="167"/>
      <point x="632" y="146"/>
      <point x="632" y="88" type="curve" smooth="yes"/>
      <point x="632" y="84" type="line"/>
      <point x="647" y="97" type="line"/>
      <point x="647" y="102" type="line" smooth="yes"/>
      <point x="647" y="158"/>
      <point x="609" y="194"/>
      <point x="537" y="194" type="curve" smooth="yes"/>
      <point x="471" y="194"/>
      <point x="428" y="162"/>
      <point x="428" y="92" type="curve" smooth="yes"/>
      <point x="428" y="13"/>
      <point x="477" y="-8"/>
      <point x="519" y="-8" type="curve" smooth="yes"/>
      <point x="566" y="-8"/>
      <point x="614" y="24"/>
      <point x="641" y="69" type="curve" smooth="yes"/>
      <point x="668" y="114"/>
      <point x="679" y="181"/>
      <point x="679" y="260" type="curve" smooth="yes"/>
      <point x="679" y="339"/>
      <point x="668" y="406"/>
      <point x="641" y="451" type="curve" smooth="yes"/>
      <point x="614" y="496"/>
      <point x="565" y="528"/>
    </contour>
    <component base="da"/>
  </outline>
</glyph>
<glyph name="a_shn" format="2">
  <advance width="792"/>
  <unicode hex="1022"/>
  <note>
a_shn
</note>
  <outline>
    <contour>
      <point x="246" y="528" type="line" smooth="yes"/>
      <point x="147" y="528"/>
      <point x="83" y="451"/>
      <point x="83" y="339" type="curve" smooth="yes"/>
      <point x="83" y="186"/>
      <point x="203" y="177"/>
      <point x="203" y="79" type="curve" smooth="yes"/>
      <point x="203" y="35"/>
      <point x="179" y="17"/>
      <point x="153" y="17" type="curve" smooth="yes"/>
      <point x="121" y="17"/>
      <point x="101" y="41"/>
      <point x="100" y="92" type="curve"/>
      <point x="80" y="92" type="line"/>
      <point x="78" y="26"/>
      <point x="114" y="-8"/>
      <point x="154" y="-8" type="curve" smooth="yes"/>
      <point x="188" y="-8"/>
      <point x="223" y="19"/>
      <point x="223" y="79" type="curve" smooth="yes"/>
      <point x="223" y="189"/>
      <point x="103" y="193"/>
      <point x="103" y="336" type="curve" smooth="yes"/>
      <point x="103" y="429"/>
      <point x="156" y="501"/>
      <point x="253" y="500" type="curve" smooth="yes"/>
      <point x="352" y="499"/>
      <point x="409" y="423"/>
      <point x="409" y="272" type="curve" smooth="yes"/>
      <point x="409" y="248" type="line" smooth="yes"/>
      <point x="409" y="115"/>
      <point x="369" y="37"/>
      <point x="289" y="20" type="curve"/>
      <point x="289" y="-8" type="line"/>
      <point x="333" y="-1"/>
      <point x="367" y="29"/>
      <point x="389" y="65" type="curve" smooth="yes"/>
      <point x="418" y="114"/>
      <point x="429" y="181"/>
      <point x="429" y="260" type="curve" smooth="yes"/>
      <point x="429" y="339"/>
      <point x="418" y="406"/>
      <point x="391" y="451" type="curve" smooth="yes"/>
      <point x="364" y="496"/>
      <point x="315" y="528"/>
      <point x="253" y="528" type="curve" smooth="yes"/>
    </contour>
    <contour>
      <point x="391" y="432" type="curve"/>
      <point x="404" y="407" type="line"/>
      <point x="429" y="469"/>
      <point x="475" y="500"/>
      <point x="543" y="500" type="curve" smooth="yes"/>
      <point x="649" y="500"/>
      <point x="703" y="424"/>
      <point x="703" y="272" type="curve" smooth="yes"/>
      <point x="703" y="248" type="line" smooth="yes"/>
      <point x="703" y="96"/>
      <point x="649" y="20"/>
      <point x="543" y="20" type="curve" smooth="yes"/>
      <point x="501" y="20" type="line"/>
      <point x="501" y="-4" type="line"/>
      <point x="514" y="-7"/>
      <point x="531" y="-8"/>
      <point x="546" y="-8" type="curve" smooth="yes"/>
      <point x="609" y="-8"/>
      <point x="658" y="24"/>
      <point x="685" y="69" type="curve" smooth="yes"/>
      <point x="712" y="114"/>
      <point x="723" y="181"/>
      <point x="723" y="260" type="curve" smooth="yes"/>
      <point x="723" y="339"/>
      <point x="712" y="406"/>
      <point x="685" y="451" type="curve" smooth="yes"/>
      <point x="658" y="496"/>
      <point x="609" y="528"/>
      <point x="550" y="528" type="curve" smooth="yes"/>
      <point x="536" y="528" type="line" smooth="yes"/>
      <point x="473" y="528"/>
      <point x="416" y="490"/>
    </contour>
  </outline>
</glyph>
<glyph name="i_m" format="2">
  <advance width="792"/>
  <unicode hex="1023"/>
  <note>
Unlikely to ever have marks below.
</note>
  <outline>
    <contour>
      <point x="501" y="20" type="line"/>
      <point x="501" y="-4" type="line"/>
      <point x="514" y="-7"/>
      <point x="531" y="-8"/>
      <point x="546" y="-8" type="curve" smooth="yes"/>
      <point x="609" y="-8"/>
      <point x="658" y="24"/>
      <point x="685" y="69" type="curve" smooth="yes"/>
      <point x="712" y="114"/>
      <point x="723" y="181"/>
      <point x="723" y="260" type="curve" smooth="yes"/>
      <point x="723" y="339"/>
      <point x="712" y="406"/>
      <point x="685" y="451" type="curve" smooth="yes"/>
      <point x="659" y="496"/>
      <point x="611" y="528"/>
      <point x="554" y="528" type="curve" smooth="yes"/>
      <point x="543" y="528" type="line" smooth="yes"/>
      <point x="479" y="528"/>
      <point x="403" y="479"/>
      <point x="392" y="348" type="curve"/>
      <point x="400" y="348" type="line"/>
      <point x="389" y="479"/>
      <point x="313" y="528"/>
      <point x="249" y="528" type="curve" smooth="yes"/>
      <point x="238" y="528" type="line" smooth="yes"/>
      <point x="181" y="528"/>
      <point x="133" y="496"/>
      <point x="107" y="451" type="curve" smooth="yes"/>
      <point x="80" y="406"/>
      <point x="69" y="339"/>
      <point x="69" y="260" type="curve" smooth="yes"/>
      <point x="69" y="181"/>
      <point x="80" y="114"/>
      <point x="107" y="69" type="curve" smooth="yes"/>
      <point x="134" y="24"/>
      <point x="183" y="-8"/>
      <point x="246" y="-8" type="curve" smooth="yes"/>
      <point x="261" y="-8"/>
      <point x="278" y="-7"/>
      <point x="291" y="-4" type="curve"/>
      <point x="291" y="20" type="line"/>
      <point x="249" y="20" type="line" smooth="yes"/>
      <point x="143" y="20"/>
      <point x="89" y="96"/>
      <point x="89" y="248" type="curve" smooth="yes"/>
      <point x="89" y="272" type="line" smooth="yes"/>
      <point x="89" y="424"/>
      <point x="142" y="500"/>
      <point x="245" y="500" type="curve" smooth="yes"/>
      <point x="306" y="500"/>
      <point x="375" y="462"/>
      <point x="384" y="325" type="curve" smooth="yes"/>
      <point x="389" y="249" type="line"/>
      <point x="403" y="249" type="line"/>
      <point x="408" y="325" type="line" smooth="yes"/>
      <point x="417" y="462"/>
      <point x="486" y="500"/>
      <point x="547" y="500" type="curve" smooth="yes"/>
      <point x="650" y="500"/>
      <point x="703" y="424"/>
      <point x="703" y="272" type="curve" smooth="yes"/>
      <point x="703" y="248" type="line" smooth="yes"/>
      <point x="703" y="96"/>
      <point x="649" y="20"/>
      <point x="543" y="20" type="curve" smooth="yes"/>
    </contour>
    <contour>
      <point x="709" y="-442" type="line"/>
      <point x="681" y="-442" type="line"/>
      <point x="681" y="-457" type="line" smooth="yes"/>
      <point x="681" y="-504"/>
      <point x="661" y="-519"/>
      <point x="584" y="-519" type="curve" smooth="yes"/>
      <point x="523" y="-519"/>
      <point x="492" y="-514"/>
      <point x="492" y="-481" type="curve" smooth="yes"/>
      <point x="492" y="-472" type="line"/>
      <point x="583" y="-440"/>
      <point x="653" y="-375"/>
      <point x="653" y="-254" type="curve" smooth="yes"/>
      <point x="653" y="-156"/>
      <point x="607" y="-84"/>
      <point x="526" y="-84" type="curve" smooth="yes"/>
      <point x="516" y="-84" type="line" smooth="yes"/>
      <point x="452" y="-84"/>
      <point x="401" y="-126"/>
      <point x="386" y="-216" type="curve"/>
      <point x="391" y="-216" type="line"/>
      <point x="376" y="-126"/>
      <point x="327" y="-84"/>
      <point x="270" y="-84" type="curve" smooth="yes"/>
      <point x="261" y="-84" type="line" smooth="yes"/>
      <point x="214" y="-84"/>
      <point x="176" y="-108"/>
      <point x="153" y="-152" type="curve" smooth="yes"/>
      <point x="133" y="-190"/>
      <point x="123" y="-243"/>
      <point x="123" y="-307" type="curve" smooth="yes"/>
      <point x="123" y="-371"/>
      <point x="133" y="-422"/>
      <point x="154" y="-459" type="curve" smooth="yes"/>
      <point x="180" y="-505"/>
      <point x="218" y="-529"/>
      <point x="270" y="-529" type="curve" smooth="yes"/>
      <point x="282" y="-529"/>
      <point x="293" y="-528"/>
      <point x="305" y="-526" type="curve"/>
      <point x="305" y="-501" type="line"/>
      <point x="273" y="-501" type="line" smooth="yes"/>
      <point x="189" y="-501"/>
      <point x="143" y="-429"/>
      <point x="143" y="-313" type="curve" smooth="yes"/>
      <point x="143" y="-300" type="line" smooth="yes"/>
      <point x="143" y="-184"/>
      <point x="184" y="-112"/>
      <point x="264" y="-112" type="curve" smooth="yes"/>
      <point x="317" y="-112"/>
      <point x="371" y="-142"/>
      <point x="377" y="-260" type="curve" smooth="yes"/>
      <point x="380" y="-316" type="line"/>
      <point x="395" y="-316" type="line"/>
      <point x="398" y="-260" type="line" smooth="yes"/>
      <point x="405" y="-142"/>
      <point x="462" y="-112"/>
      <point x="519" y="-112" type="curve" smooth="yes"/>
      <point x="594" y="-112"/>
      <point x="632" y="-166"/>
      <point x="632" y="-251" type="curve" smooth="yes"/>
      <point x="632" y="-257" type="line" smooth="yes"/>
      <point x="632" y="-354"/>
      <point x="577" y="-426"/>
      <point x="466" y="-462" type="curve"/>
      <point x="466" y="-479" type="line" smooth="yes"/>
      <point x="466" y="-522"/>
      <point x="489" y="-539"/>
      <point x="579" y="-539" type="curve" smooth="yes"/>
      <point x="679" y="-539"/>
      <point x="709" y="-514"/>
      <point x="709" y="-462" type="curve" smooth="yes"/>
    </contour>
  </outline>
</glyph>
<glyph name="ii" format="2">
  <advance width="962"/>
  <unicode hex="1024"/>
  <outline>
    <contour>
      <point x="723" y="260" type="line" smooth="yes"/>
      <point x="723" y="339"/>
      <point x="712" y="406"/>
      <point x="685" y="451" type="curve" smooth="yes"/>
      <point x="658" y="496"/>
      <point x="609" y="528"/>
      <point x="550" y="528" type="curve" smooth="yes"/>
      <point x="536" y="528" type="line" smooth="yes"/>
      <point x="473" y="528"/>
      <point x="416" y="490"/>
      <point x="391" y="432" type="curve"/>
      <point x="404" y="407" type="line"/>
      <point x="429" y="469"/>
      <point x="475" y="500"/>
      <point x="543" y="500" type="curve" smooth="yes"/>
      <point x="648" y="500"/>
      <point x="701" y="424"/>
      <point x="701" y="272" type="curve" smooth="yes"/>
      <point x="701" y="-311" type="line" smooth="yes"/>
      <point x="701" y="-404"/>
      <point x="684" y="-442"/>
      <point x="652" y="-463" type="curve" smooth="yes"/>
      <point x="601" y="-495"/>
      <point x="524" y="-502"/>
      <point x="363" y="-502" type="curve" smooth="yes"/>
      <point x="246" y="-502"/>
      <point x="176" y="-495"/>
      <point x="134" y="-469" type="curve" smooth="yes"/>
      <point x="107" y="-454"/>
      <point x="90" y="-432"/>
      <point x="90" y="-393" type="curve" smooth="yes"/>
      <point x="89" y="-332"/>
      <point x="142" y="-289"/>
      <point x="237" y="-289" type="curve" smooth="yes"/>
      <point x="338" y="-289"/>
      <point x="385" y="-334"/>
      <point x="389" y="-385" type="curve"/>
      <point x="415" y="-385" type="line"/>
      <point x="411" y="-320"/>
      <point x="346" y="-268"/>
      <point x="236" y="-268" type="curve" smooth="yes"/>
      <point x="116" y="-268"/>
      <point x="69" y="-331"/>
      <point x="69" y="-395" type="curve" smooth="yes"/>
      <point x="69" y="-444"/>
      <point x="89" y="-473"/>
      <point x="121" y="-493" type="curve" smooth="yes"/>
      <point x="168" y="-523"/>
      <point x="243" y="-529"/>
      <point x="363" y="-529" type="curve" smooth="yes"/>
      <point x="534" y="-529"/>
      <point x="614" y="-521"/>
      <point x="667" y="-485" type="curve" smooth="yes"/>
      <point x="701" y="-461"/>
      <point x="723" y="-419"/>
      <point x="723" y="-314" type="curve" smooth="yes"/>
    </contour>
    <contour>
      <point x="888" y="10" type="line"/>
      <point x="866" y="10" type="line"/>
      <point x="866" y="-520" type="line"/>
      <point x="888" y="-520" type="line"/>
    </contour>
    <component base="asatstem" xOffset="792"/>
    <component base="ga"/>
  </outline>
</glyph>
<glyph name="e_m" format="2">
  <advance width="498"/>
  <unicode hex="1027"/>
  <note>
e_m
</note>
  <outline>
    <contour>
      <point x="225" y="511" type="line"/>
      <point x="205" y="511" type="line"/>
      <point x="205" y="434" type="line" smooth="yes"/>
      <point x="205" y="345"/>
      <point x="262" y="326"/>
      <point x="320" y="326" type="curve" smooth="yes"/>
      <point x="408" y="326"/>
      <point x="422" y="381"/>
      <point x="422" y="419" type="curve" smooth="yes"/>
      <point x="422" y="461"/>
      <point x="395" y="528"/>
      <point x="270" y="528" type="curve" smooth="yes"/>
      <point x="136" y="528"/>
      <point x="69" y="434"/>
      <point x="69" y="260" type="curve" smooth="yes"/>
      <point x="69" y="88"/>
      <point x="134" y="-8"/>
      <point x="270" y="-8" type="curve" smooth="yes"/>
      <point x="395" y="-8"/>
      <point x="422" y="59"/>
      <point x="422" y="101" type="curve" smooth="yes"/>
      <point x="422" y="139"/>
      <point x="408" y="194"/>
      <point x="320" y="194" type="curve" smooth="yes"/>
      <point x="262" y="194"/>
      <point x="205" y="175"/>
      <point x="205" y="86" type="curve" smooth="yes"/>
      <point x="205" y="9" type="line"/>
      <point x="225" y="9" type="line"/>
      <point x="225" y="79" type="line" smooth="yes"/>
      <point x="225" y="157"/>
      <point x="275" y="167"/>
      <point x="309" y="167" type="curve" smooth="yes"/>
      <point x="324" y="167" type="line" smooth="yes"/>
      <point x="379" y="167"/>
      <point x="401" y="140"/>
      <point x="401" y="101" type="curve" smooth="yes"/>
      <point x="401" y="55"/>
      <point x="366" y="20"/>
      <point x="272" y="20" type="curve" smooth="yes"/>
      <point x="257" y="20" type="line" smooth="yes"/>
      <point x="147" y="20"/>
      <point x="89" y="111"/>
      <point x="89" y="252" type="curve" smooth="yes"/>
      <point x="89" y="268" type="line" smooth="yes"/>
      <point x="89" y="409"/>
      <point x="147" y="500"/>
      <point x="257" y="500" type="curve" smooth="yes"/>
      <point x="272" y="500" type="line" smooth="yes"/>
      <point x="366" y="500"/>
      <point x="401" y="465"/>
      <point x="401" y="419" type="curve" smooth="yes"/>
      <point x="401" y="380"/>
      <point x="379" y="353"/>
      <point x="324" y="353" type="curve" smooth="yes"/>
      <point x="309" y="353" type="line" smooth="yes"/>
      <point x="275" y="353"/>
      <point x="225" y="363"/>
      <point x="225" y="441" type="curve" smooth="yes"/>
    </contour>
  </outline>
</glyph>
<glyph name="e_mon" format="2">
  <advance width="497"/>
  <unicode hex="1028"/>
  <outline>
    <contour>
      <point x="178" y="258" type="curve"/>
      <point x="196" y="258" type="line"/>
      <point x="194" y="313"/>
      <point x="216" y="341"/>
      <point x="259" y="341" type="curve" smooth="yes"/>
      <point x="301" y="341"/>
      <point x="317" y="314"/>
      <point x="317" y="277" type="curve" smooth="yes"/>
      <point x="317" y="166"/>
      <point x="171" y="210"/>
      <point x="171" y="88" type="curve" smooth="yes"/>
      <point x="171" y="32"/>
      <point x="202" y="-8"/>
      <point x="266" y="-8" type="curve" smooth="yes"/>
      <point x="370" y="-8"/>
      <point x="433" y="96"/>
      <point x="433" y="265" type="curve" smooth="yes"/>
      <point x="433" y="415"/>
      <point x="383" y="528"/>
      <point x="260" y="528" type="curve" smooth="yes"/>
      <point x="248" y="528" type="line" smooth="yes"/>
      <point x="188" y="528"/>
      <point x="139" y="496"/>
      <point x="112" y="451" type="curve" smooth="yes"/>
      <point x="85" y="406"/>
      <point x="74" y="339"/>
      <point x="74" y="260" type="curve" smooth="yes"/>
      <point x="74" y="-271" type="line" smooth="yes"/>
      <point x="74" y="-342"/>
      <point x="86" y="-401"/>
      <point x="110" y="-444" type="curve" smooth="yes"/>
      <point x="140" y="-498"/>
      <point x="188" y="-530"/>
      <point x="255" y="-530" type="curve" smooth="yes"/>
      <point x="260" y="-530" type="line" smooth="yes"/>
      <point x="322" y="-530"/>
      <point x="371" y="-501"/>
      <point x="401" y="-449" type="curve" smooth="yes"/>
      <point x="422" y="-413"/>
      <point x="433" y="-366"/>
      <point x="433" y="-310" type="curve" smooth="yes"/>
      <point x="433" y="-306"/>
      <point x="433" y="-301"/>
      <point x="432" y="-296" type="curve"/>
      <point x="414" y="-296" type="line"/>
      <point x="414" y="-309" type="line" smooth="yes"/>
      <point x="414" y="-432"/>
      <point x="358" y="-502"/>
      <point x="259" y="-502" type="curve" smooth="yes"/>
      <point x="154" y="-502"/>
      <point x="95" y="-424"/>
      <point x="95" y="-269" type="curve" smooth="yes"/>
      <point x="96" y="272" type="line" smooth="yes"/>
      <point x="96" y="424"/>
      <point x="149" y="500"/>
      <point x="254" y="500" type="curve" smooth="yes"/>
      <point x="362" y="500"/>
      <point x="413" y="419"/>
      <point x="413" y="270" type="curve" smooth="yes"/>
      <point x="413" y="254" type="line" smooth="yes"/>
      <point x="413" y="108"/>
      <point x="353" y="20"/>
      <point x="265" y="20" type="curve" smooth="yes"/>
      <point x="216" y="20"/>
      <point x="191" y="48"/>
      <point x="191" y="90" type="curve" smooth="yes"/>
      <point x="191" y="190"/>
      <point x="336" y="149"/>
      <point x="336" y="277" type="curve" smooth="yes"/>
      <point x="336" y="330"/>
      <point x="311" y="366"/>
      <point x="260" y="366" type="curve" smooth="yes"/>
      <point x="206" y="366"/>
      <point x="174" y="325"/>
    </contour>
  </outline>
</glyph>
<glyph name="_tall_aa" format="2">
  <advance width="170"/>
  <unicode hex="102B"/>
  <note>
_tall_aa
</note>
  <outline>
    <contour>
      <point x="96" y="854" type="line" smooth="yes"/>
      <point x="96" y="978"/>
      <point x="45" y="1049"/>
      <point x="-53" y="1049" type="curve" smooth="yes"/>
      <point x="-149" y="1049"/>
      <point x="-205" y="978"/>
      <point x="-205" y="854" type="curve" smooth="yes"/>
      <point x="-205" y="844"/>
      <point x="-205" y="828"/>
      <point x="-204" y="813" type="curve"/>
      <point x="-185" y="813" type="line"/>
      <point x="-185" y="850" type="line" smooth="yes"/>
      <point x="-185" y="964"/>
      <point x="-138" y="1021"/>
      <point x="-52" y="1021" type="curve" smooth="yes"/>
      <point x="32" y="1021"/>
      <point x="74" y="964"/>
      <point x="74" y="850" type="curve" smooth="yes"/>
      <point x="74" y="0" type="line"/>
      <point x="96" y="0" type="line"/>
    </contour>
  </outline>
</glyph>
<glyph name="_aa" format="2">
  <advance width="294"/>
  <unicode hex="102C"/>
  <outline>
    <contour>
      <point x="-107" y="432" type="curve"/>
      <point x="-94" y="407" type="line"/>
      <point x="-69" y="469"/>
      <point x="-23" y="500"/>
      <point x="45" y="500" type="curve" smooth="yes"/>
      <point x="151" y="500"/>
      <point x="205" y="424"/>
      <point x="205" y="272" type="curve" smooth="yes"/>
      <point x="205" y="248" type="line" smooth="yes"/>
      <point x="205" y="96"/>
      <point x="151" y="20"/>
      <point x="45" y="20" type="curve" smooth="yes"/>
      <point x="3" y="20" type="line"/>
      <point x="3" y="-4.111" type="line"/>
      <point x="16" y="-7"/>
      <point x="33" y="-8"/>
      <point x="48" y="-8" type="curve" smooth="yes"/>
      <point x="111" y="-8"/>
      <point x="160" y="24"/>
      <point x="187" y="69" type="curve" smooth="yes"/>
      <point x="214" y="114"/>
      <point x="225" y="181"/>
      <point x="225" y="260" type="curve" smooth="yes"/>
      <point x="225" y="339"/>
      <point x="214" y="406"/>
      <point x="187" y="451" type="curve" smooth="yes"/>
      <point x="160" y="496"/>
      <point x="111" y="528"/>
      <point x="52" y="528" type="curve" smooth="yes"/>
      <point x="38" y="528" type="line" smooth="yes"/>
      <point x="-25" y="528"/>
      <point x="-82" y="490"/>
    </contour>
  </outline>
</glyph>
<glyph name="_u" format="2">
  <unicode hex="102F"/>
  <outline>
    <contour>
      <point x="-238" y="20" type="line"/>
      <point x="-260" y="20" type="line"/>
      <point x="-260" y="-348" type="line" smooth="yes"/>
      <point x="-260" y="-495"/>
      <point x="-215" y="-529"/>
      <point x="-158" y="-529" type="curve" smooth="yes"/>
      <point x="-153" y="-529"/>
      <point x="-143" y="-529"/>
      <point x="-133" y="-528" type="curve"/>
      <point x="-133" y="-501" type="line"/>
      <point x="-153" y="-501" type="line" smooth="yes"/>
      <point x="-203" y="-501"/>
      <point x="-238" y="-484"/>
      <point x="-238" y="-342" type="curve" smooth="yes"/>
    </contour>
  </outline>
</glyph>
<glyph name="_uu" format="2">
  <unicode hex="1030"/>
  <outline>
    <contour>
      <point x="-311" y="-521" type="line"/>
      <point x="-289" y="-521" type="line"/>
      <point x="-289" y="6" type="line"/>
      <point x="-311" y="6" type="line"/>
    </contour>
    <component base="_u" xOffset="40"/>
  </outline>
</glyph>
<glyph name="_e" format="2">
  <advance width="498"/>
  <unicode hex="1031"/>
  <note>
_e
</note>
  <outline>
    <contour>
      <point x="423" y="354" type="line"/>
      <point x="407" y="465"/>
      <point x="342" y="528"/>
      <point x="256" y="528" type="curve" smooth="yes"/>
      <point x="242" y="528" type="line" smooth="yes"/>
      <point x="183" y="528"/>
      <point x="134" y="496"/>
      <point x="107" y="451" type="curve" smooth="yes"/>
      <point x="80" y="406"/>
      <point x="69" y="339"/>
      <point x="69" y="260" type="curve" smooth="yes"/>
      <point x="69" y="181"/>
      <point x="80" y="114"/>
      <point x="107" y="69" type="curve" smooth="yes"/>
      <point x="134" y="24"/>
      <point x="184" y="-8"/>
      <point x="257" y="-8" type="curve" smooth="yes"/>
      <point x="275" y="-8" type="line" smooth="yes"/>
      <point x="396" y="-8"/>
      <point x="422" y="57"/>
      <point x="422" y="100" type="curve" smooth="yes"/>
      <point x="422" y="136"/>
      <point x="407" y="194"/>
      <point x="319" y="194" type="curve" smooth="yes"/>
      <point x="268" y="194"/>
      <point x="206" y="175"/>
      <point x="206" y="88" type="curve" smooth="yes"/>
      <point x="206" y="-1" type="line"/>
      <point x="226" y="-1" type="line"/>
      <point x="226" y="81" type="line" smooth="yes"/>
      <point x="226" y="157"/>
      <point x="279" y="167"/>
      <point x="313" y="167" type="curve" smooth="yes"/>
      <point x="325" y="167" type="line" smooth="yes"/>
      <point x="381" y="167"/>
      <point x="401" y="136"/>
      <point x="401" y="101" type="curve" smooth="yes"/>
      <point x="401" y="55"/>
      <point x="364" y="20"/>
      <point x="269" y="20" type="curve" smooth="yes"/>
      <point x="258" y="20" type="line" smooth="yes"/>
      <point x="144" y="20"/>
      <point x="89" y="96"/>
      <point x="89" y="248" type="curve" smooth="yes"/>
      <point x="89" y="272" type="line" smooth="yes"/>
      <point x="89" y="424"/>
      <point x="143" y="500"/>
      <point x="249" y="500" type="curve" smooth="yes"/>
      <point x="334" y="500"/>
      <point x="388" y="449"/>
      <point x="402" y="354" type="curve"/>
    </contour>
  </outline>
</glyph>
<glyph name="_ai" format="2">
  <unicode hex="1032"/>
  <note>
_ai
</note>
  <outline>
    <contour>
      <point x="-142" y="614" type="line"/>
      <point x="-303" y="851" type="line"/>
      <point x="-330" y="841" type="line"/>
      <point x="-165" y="619" type="line"/>
    </contour>
  </outline>
</glyph>
<glyph name="_ii_mon" format="2">
  <unicode hex="1033"/>
  <outline>
    <contour>
      <point x="-249" y="738" type="curve" smooth="yes"/>
      <point x="-200" y="738"/>
      <point x="-176" y="776"/>
      <point x="-176" y="827" type="curve" smooth="yes"/>
      <point x="-176" y="879"/>
      <point x="-200" y="917"/>
      <point x="-249" y="917" type="curve" smooth="yes"/>
      <point x="-297" y="917"/>
      <point x="-321" y="879"/>
      <point x="-321" y="827" type="curve" smooth="yes"/>
      <point x="-321" y="776"/>
      <point x="-297" y="738"/>
    </contour>
    <contour>
      <point x="-249" y="760" type="curve" smooth="yes"/>
      <point x="-287" y="760"/>
      <point x="-304" y="789"/>
      <point x="-304" y="827" type="curve" smooth="yes"/>
      <point x="-304" y="866"/>
      <point x="-287" y="895"/>
      <point x="-249" y="895" type="curve" smooth="yes"/>
      <point x="-211" y="895"/>
      <point x="-193" y="866"/>
      <point x="-193" y="827" type="curve" smooth="yes"/>
      <point x="-193" y="789"/>
      <point x="-211" y="760"/>
    </contour>
    <component base="_i"/>
  </outline>
</glyph>
<glyph name="_o_mon" format="2">
  <unicode hex="1034"/>
  <note>
_o_mon
</note>
  <outline>
    <contour>
      <point x="-168" y="841" type="line"/>
      <point x="-195" y="851" type="line"/>
      <point x="-356" y="614" type="line"/>
      <point x="-333" y="619" type="line"/>
    </contour>
  </outline>
</glyph>
<glyph name="dot_below" format="2">
  <unicode hex="1037"/>
  <outline>
    <contour>
      <point x="-249" y="-327" type="curve" smooth="yes"/>
      <point x="-190" y="-327"/>
      <point x="-159" y="-280"/>
      <point x="-159" y="-218" type="curve" smooth="yes"/>
      <point x="-159" y="-156"/>
      <point x="-190" y="-109"/>
      <point x="-249" y="-109" type="curve" smooth="yes"/>
      <point x="-308" y="-109"/>
      <point x="-339" y="-156"/>
      <point x="-339" y="-218" type="curve" smooth="yes"/>
      <point x="-339" y="-280"/>
      <point x="-308" y="-327"/>
    </contour>
    <contour>
      <point x="-249" y="-301" type="curve" smooth="yes"/>
      <point x="-297" y="-301"/>
      <point x="-321" y="-265"/>
      <point x="-321" y="-218" type="curve" smooth="yes"/>
      <point x="-321" y="-171"/>
      <point x="-297" y="-135"/>
      <point x="-249" y="-135" type="curve" smooth="yes"/>
      <point x="-201" y="-135"/>
      <point x="-177" y="-171"/>
      <point x="-177" y="-218" type="curve" smooth="yes"/>
      <point x="-177" y="-265"/>
      <point x="-201" y="-301"/>
    </contour>
  </outline>
</glyph>
<glyph name="virama" format="2">
  <unicode hex="1039"/>
  <note>
virama
</note>
  <outline>
    <contour>
      <point x="-263" y="-521" type="line"/>
      <point x="-234" y="-521" type="line"/>
      <point x="-240" y="-308" type="line"/>
      <point x="-234" y="-95" type="line"/>
      <point x="-263" y="-95" type="line"/>
      <point x="-257" y="-308" type="line"/>
    </contour>
    <contour>
      <point x="-91" y="-320" type="line"/>
      <point x="-91" y="-295" type="line"/>
      <point x="-406" y="-295" type="line"/>
      <point x="-406" y="-320" type="line"/>
    </contour>
  </outline>
</glyph>
<glyph name="asat" format="2">
  <unicode hex="103A"/>
  <outline>
    <contour>
      <point x="-237" y="617" type="line"/>
      <point x="-332" y="711"/>
      <point x="-383" y="779"/>
      <point x="-383" y="874" type="curve" smooth="yes"/>
      <point x="-383" y="949"/>
      <point x="-347" y="1022"/>
      <point x="-249" y="1022" type="curve" smooth="yes"/>
      <point x="-158" y="1022"/>
      <point x="-107" y="972"/>
      <point x="-107" y="849" type="curve" smooth="yes"/>
      <point x="-107" y="835" type="line"/>
      <point x="-90" y="835" type="line"/>
      <point x="-89" y="839"/>
      <point x="-89" y="842"/>
      <point x="-89" y="849" type="curve" smooth="yes"/>
      <point x="-89" y="980"/>
      <point x="-146" y="1050"/>
      <point x="-249" y="1050" type="curve" smooth="yes"/>
      <point x="-348" y="1050"/>
      <point x="-403" y="973"/>
      <point x="-403" y="873" type="curve" smooth="yes"/>
      <point x="-403" y="776"/>
      <point x="-351" y="703"/>
      <point x="-262" y="614" type="curve"/>
      <point x="-237" y="590" type="line"/>
    </contour>
  </outline>
</glyph>
<glyph name="medial_ya" format="2">
  <advance width="170"/>
  <unicode hex="103B"/>
  <outline>
    <contour>
      <point x="96" y="520" type="line"/>
      <point x="74" y="520" type="line"/>
      <point x="74" y="-406" type="line" smooth="yes"/>
      <point x="74" y="-465"/>
      <point x="69" y="-502"/>
      <point x="27" y="-502" type="curve" smooth="yes"/>
      <point x="15" y="-502"/>
      <point x="-3" y="-500"/>
      <point x="-48" y="-478" type="curve" smooth="yes"/>
      <point x="-131" y="-437"/>
      <point x="-136" y="-426"/>
      <point x="-136" y="-321" type="curve" smooth="yes"/>
      <point x="-136" y="47" type="line"/>
      <point x="-158" y="29" type="line"/>
      <point x="-158" y="-327" type="line" smooth="yes"/>
      <point x="-158" y="-434"/>
      <point x="-152" y="-456"/>
      <point x="-61" y="-500" type="curve" smooth="yes"/>
      <point x="-4" y="-527"/>
      <point x="20" y="-530"/>
      <point x="31" y="-530" type="curve" smooth="yes"/>
      <point x="78" y="-530"/>
      <point x="96" y="-492"/>
      <point x="96" y="-412" type="curve" smooth="yes"/>
    </contour>
  </outline>
</glyph>
<glyph name="medial_wa" format="2">
  <unicode hex="103D"/>
  <outline>
    <contour>
      <point x="-255" y="-84" type="line" smooth="yes"/>
      <point x="-306" y="-84"/>
      <point x="-344" y="-112"/>
      <point x="-364" y="-151" type="curve" smooth="yes"/>
      <point x="-388" y="-192"/>
      <point x="-398" y="-240"/>
      <point x="-398" y="-306" type="curve" smooth="yes"/>
      <point x="-398" y="-373"/>
      <point x="-388" y="-421"/>
      <point x="-364" y="-462" type="curve" smooth="yes"/>
      <point x="-344" y="-500"/>
      <point x="-306" y="-529"/>
      <point x="-255" y="-529" type="curve" smooth="yes"/>
      <point x="-244" y="-529" type="line" smooth="yes"/>
      <point x="-193" y="-529"/>
      <point x="-155" y="-500"/>
      <point x="-135" y="-462" type="curve" smooth="yes"/>
      <point x="-111" y="-421"/>
      <point x="-102" y="-373"/>
      <point x="-102" y="-306" type="curve" smooth="yes"/>
      <point x="-102" y="-240"/>
      <point x="-111" y="-192"/>
      <point x="-135" y="-151" type="curve" smooth="yes"/>
      <point x="-155" y="-112"/>
      <point x="-193" y="-84"/>
      <point x="-244" y="-84" type="curve" smooth="yes"/>
    </contour>
    <contour>
      <point x="-249" y="-501" type="curve" smooth="yes"/>
      <point x="-334" y="-501"/>
      <point x="-378" y="-428"/>
      <point x="-378" y="-313" type="curve" smooth="yes"/>
      <point x="-378" y="-300" type="line" smooth="yes"/>
      <point x="-378" y="-186"/>
      <point x="-334" y="-112"/>
      <point x="-249" y="-112" type="curve" smooth="yes"/>
      <point x="-166" y="-112"/>
      <point x="-122" y="-186"/>
      <point x="-122" y="-300" type="curve" smooth="yes"/>
      <point x="-122" y="-313" type="line" smooth="yes"/>
      <point x="-122" y="-428"/>
      <point x="-166" y="-501"/>
    </contour>
  </outline>
</glyph>
<glyph name="great_sa" format="2">
  <advance width="1086"/>
  <unicode hex="103F"/>
  <note>
Disable this ligature (sa+virama+sa) and use sa with subjoined sa for Mon.
</note>
  <outline>
    <contour>
      <point x="96" y="354" type="line"/>
      <point x="110" y="450"/>
      <point x="164" y="500"/>
      <point x="249" y="500" type="curve" smooth="yes"/>
      <point x="355" y="500"/>
      <point x="409" y="424"/>
      <point x="409" y="272" type="curve" smooth="yes"/>
      <point x="409" y="248" type="line" smooth="yes"/>
      <point x="409" y="96"/>
      <point x="355" y="20"/>
      <point x="249" y="20" type="curve" smooth="yes"/>
      <point x="164" y="20"/>
      <point x="110" y="71"/>
      <point x="96" y="166" type="curve"/>
      <point x="75" y="166" type="line"/>
      <point x="91" y="55"/>
      <point x="156" y="-8"/>
      <point x="242" y="-8" type="curve" smooth="yes"/>
      <point x="256" y="-8" type="line" smooth="yes"/>
      <point x="315" y="-8"/>
      <point x="364" y="24"/>
      <point x="391" y="69" type="curve" smooth="yes"/>
      <point x="418" y="114"/>
      <point x="429" y="181"/>
      <point x="429" y="260" type="curve" smooth="yes"/>
      <point x="429" y="339"/>
      <point x="418" y="406"/>
      <point x="391" y="451" type="curve" smooth="yes"/>
      <point x="364" y="496"/>
      <point x="315" y="528"/>
      <point x="256" y="528" type="curve" smooth="yes"/>
      <point x="242" y="528" type="line" smooth="yes"/>
      <point x="158" y="528"/>
      <point x="92" y="468"/>
      <point x="75" y="354" type="curve"/>
    </contour>
    <contour>
      <point x="391" y="88" type="line"/>
      <point x="416" y="30"/>
      <point x="473" y="-8"/>
      <point x="536" y="-8" type="curve" smooth="yes"/>
      <point x="550" y="-8" type="line" smooth="yes"/>
      <point x="609" y="-8"/>
      <point x="658" y="24"/>
      <point x="685" y="69" type="curve" smooth="yes"/>
      <point x="712" y="114"/>
      <point x="723" y="181"/>
      <point x="723" y="260" type="curve" smooth="yes"/>
      <point x="723" y="339"/>
      <point x="712" y="406"/>
      <point x="685" y="451" type="curve" smooth="yes"/>
      <point x="658" y="496"/>
      <point x="609" y="528"/>
      <point x="546" y="528" type="curve" smooth="yes"/>
      <point x="531" y="528"/>
      <point x="514" y="527"/>
      <point x="501" y="524" type="curve"/>
      <point x="501" y="500" type="line"/>
      <point x="543" y="500" type="line" smooth="yes"/>
      <point x="649" y="500"/>
      <point x="703" y="424"/>
      <point x="703" y="272" type="curve" smooth="yes"/>
      <point x="703" y="248" type="line" smooth="yes"/>
      <point x="703" y="96"/>
      <point x="649" y="20"/>
      <point x="543" y="20" type="curve" smooth="yes"/>
      <point x="475" y="20"/>
      <point x="429" y="51"/>
      <point x="404" y="113" type="curve"/>
    </contour>
    <contour>
      <point x="685" y="87" type="line"/>
      <point x="710" y="29"/>
      <point x="767" y="-9"/>
      <point x="830" y="-9" type="curve" smooth="yes"/>
      <point x="844" y="-9" type="line" smooth="yes"/>
      <point x="903" y="-9"/>
      <point x="952" y="23"/>
      <point x="979" y="68" type="curve" smooth="yes"/>
      <point x="1006" y="113"/>
      <point x="1017" y="180"/>
      <point x="1017" y="259" type="curve" smooth="yes"/>
      <point x="1017" y="338"/>
      <point x="1006" y="405"/>
      <point x="979" y="450" type="curve" smooth="yes"/>
      <point x="952" y="495"/>
      <point x="903" y="527"/>
      <point x="840" y="527" type="curve" smooth="yes"/>
      <point x="825" y="527"/>
      <point x="808" y="526"/>
      <point x="795" y="523" type="curve"/>
      <point x="795" y="499" type="line"/>
      <point x="837" y="499" type="line" smooth="yes"/>
      <point x="943" y="499"/>
      <point x="997" y="423"/>
      <point x="997" y="271" type="curve" smooth="yes"/>
      <point x="997" y="247" type="line" smooth="yes"/>
      <point x="997" y="95"/>
      <point x="943" y="19"/>
      <point x="837" y="19" type="curve" smooth="yes"/>
      <point x="769" y="19"/>
      <point x="723" y="50"/>
      <point x="698" y="112" type="curve"/>
    </contour>
  </outline>
</glyph>
<glyph name="two_m" format="2">
  <advance width="455"/>
  <unicode hex="1042"/>
  <outline>
    <contour>
      <point x="381" y="-234" type="curve" smooth="yes"/>
      <point x="381" y="520" type="line"/>
      <point x="359" y="520" type="line"/>
      <point x="359" y="-230" type="line" smooth="yes"/>
      <point x="359" y="-344"/>
      <point x="317" y="-401"/>
      <point x="233" y="-401" type="curve" smooth="yes"/>
      <point x="147" y="-401"/>
      <point x="100" y="-344"/>
      <point x="100" y="-230" type="curve" smooth="yes"/>
      <point x="100" y="-193" type="line"/>
      <point x="81" y="-193" type="line"/>
      <point x="80" y="-208"/>
      <point x="80" y="-224"/>
      <point x="80" y="-234" type="curve" smooth="yes"/>
      <point x="80" y="-358"/>
      <point x="136" y="-429"/>
      <point x="232" y="-429" type="curve" smooth="yes"/>
      <point x="330" y="-429"/>
      <point x="381" y="-358"/>
    </contour>
  </outline>
</glyph>
<glyph name="three_m" format="2">
  <advance width="498"/>
  <unicode hex="1043"/>
  <outline>
    <contour>
      <point x="242" y="-8" type="curve" smooth="yes"/>
      <point x="256" y="-8" type="line" smooth="yes"/>
      <point x="315" y="-8"/>
      <point x="364" y="24"/>
      <point x="391" y="69" type="curve" smooth="yes"/>
      <point x="418" y="114"/>
      <point x="429" y="181"/>
      <point x="429" y="260" type="curve" smooth="yes"/>
      <point x="429" y="339"/>
      <point x="418" y="406"/>
      <point x="391" y="451" type="curve" smooth="yes"/>
      <point x="364" y="496"/>
      <point x="315" y="528"/>
      <point x="256" y="528" type="curve" smooth="yes"/>
      <point x="242" y="528" type="line" smooth="yes"/>
      <point x="156" y="528"/>
      <point x="91" y="465"/>
      <point x="75" y="354" type="curve"/>
      <point x="96" y="354" type="line"/>
      <point x="110" y="449"/>
      <point x="164" y="500"/>
      <point x="249" y="500" type="curve" smooth="yes"/>
      <point x="355" y="500"/>
      <point x="409" y="424"/>
      <point x="409" y="272" type="curve" smooth="yes"/>
      <point x="409" y="248" type="line" smooth="yes"/>
      <point x="409" y="96"/>
      <point x="355" y="20"/>
      <point x="249" y="20" type="curve" smooth="yes"/>
      <point x="164" y="20"/>
      <point x="110" y="70"/>
      <point x="96" y="166" type="curve"/>
      <point x="75" y="166" type="line"/>
      <point x="81" y="125"/>
      <point x="93" y="90"/>
      <point x="124" y="38" type="curve" smooth="yes"/>
      <point x="406" y="-430" type="line"/>
      <point x="429" y="-418" type="line"/>
      <point x="164" y="12" type="line"/>
      <point x="187" y="-1"/>
      <point x="214" y="-8"/>
    </contour>
  </outline>
</glyph>
<glyph name="five_m" format="2">
  <advance width="504"/>
  <unicode hex="1045"/>
  <outline>
    <contour>
      <point x="230" y="-8" type="curve" smooth="yes"/>
      <point x="282" y="-8"/>
      <point x="310" y="38"/>
      <point x="310" y="100" type="curve" smooth="yes"/>
      <point x="310" y="161"/>
      <point x="282" y="208"/>
      <point x="230" y="208" type="curve" smooth="yes"/>
      <point x="177" y="208"/>
      <point x="149" y="161"/>
      <point x="149" y="100" type="curve" smooth="yes"/>
      <point x="149" y="38"/>
      <point x="177" y="-8"/>
    </contour>
    <contour>
      <point x="90" y="-195" type="line"/>
      <point x="72" y="-195" type="line"/>
      <point x="71" y="-200"/>
      <point x="71" y="-205"/>
      <point x="71" y="-209" type="curve" smooth="yes"/>
      <point x="71" y="-265"/>
      <point x="82" y="-312"/>
      <point x="103" y="-348" type="curve" smooth="yes"/>
      <point x="133" y="-400"/>
      <point x="182" y="-429"/>
      <point x="244" y="-429" type="curve" smooth="yes"/>
      <point x="249" y="-429" type="line" smooth="yes"/>
      <point x="316" y="-429"/>
      <point x="364" y="-397"/>
      <point x="394" y="-343" type="curve" smooth="yes"/>
      <point x="418" y="-300"/>
      <point x="430" y="-241"/>
      <point x="430" y="-170" type="curve" smooth="yes"/>
      <point x="430" y="261" type="line" smooth="yes"/>
      <point x="430" y="339"/>
      <point x="418" y="406"/>
      <point x="391" y="451" type="curve" smooth="yes"/>
      <point x="364" y="496"/>
      <point x="315" y="528"/>
      <point x="256" y="528" type="curve" smooth="yes"/>
      <point x="242" y="528" type="line" smooth="yes"/>
      <point x="183" y="528"/>
      <point x="134" y="496"/>
      <point x="107" y="451" type="curve" smooth="yes"/>
      <point x="80" y="406"/>
      <point x="69" y="339"/>
      <point x="69" y="260" type="curve" smooth="yes"/>
      <point x="69" y="183"/>
      <point x="80" y="121"/>
      <point x="107" y="72" type="curve" smooth="yes"/>
      <point x="132" y="27"/>
      <point x="172" y="-8"/>
      <point x="230" y="-8" type="curve"/>
      <point x="283" y="-8"/>
      <point x="310" y="38"/>
      <point x="310" y="100" type="curve"/>
      <point x="303" y="38"/>
      <point x="269" y="16"/>
      <point x="224" y="16" type="curve" smooth="yes"/>
      <point x="139" y="16"/>
      <point x="89" y="115"/>
      <point x="89" y="252" type="curve" smooth="yes"/>
      <point x="89" y="272" type="line" smooth="yes"/>
      <point x="89" y="424"/>
      <point x="143" y="500"/>
      <point x="249" y="500" type="curve" smooth="yes"/>
      <point x="354" y="500"/>
      <point x="408" y="424"/>
      <point x="408" y="272" type="curve" smooth="yes"/>
      <point x="408" y="-168" type="line" smooth="yes"/>
      <point x="408" y="-317"/>
      <point x="353" y="-401"/>
      <point x="246" y="-401" type="curve" smooth="yes"/>
      <point x="146" y="-401"/>
      <point x="90" y="-331"/>
      <point x="90" y="-208" type="curve" smooth="yes"/>
    </contour>
    <contour>
      <point x="230" y="17" type="curve" smooth="yes"/>
      <point x="187" y="17"/>
      <point x="167" y="53"/>
      <point x="167" y="100" type="curve" smooth="yes"/>
      <point x="167" y="147"/>
      <point x="187" y="183"/>
      <point x="230" y="183" type="curve" smooth="yes"/>
      <point x="273" y="183"/>
      <point x="292" y="147"/>
      <point x="292" y="100" type="curve" smooth="yes"/>
      <point x="292" y="53"/>
      <point x="273" y="17"/>
    </contour>
  </outline>
</glyph>
<glyph name="seven_m" format="2">
  <advance width="498"/>
  <unicode hex="1047"/>
  <outline>
    <contour>
      <point x="363" y="-250" type="curve"/>
      <point x="345" y="-250" type="line"/>
      <point x="345" y="-272" type="line" smooth="yes"/>
      <point x="345" y="-356"/>
      <point x="315" y="-401"/>
      <point x="253" y="-401" type="curve" smooth="yes"/>
      <point x="187" y="-401"/>
      <point x="159" y="-356"/>
      <point x="159" y="-304" type="curve" smooth="yes"/>
      <point x="159" y="-234"/>
      <point x="195" y="-187"/>
      <point x="261" y="-107" type="curve" smooth="yes"/>
      <point x="351" y="3"/>
      <point x="429" y="98"/>
      <point x="429" y="260" type="curve" smooth="yes"/>
      <point x="429" y="339"/>
      <point x="418" y="406"/>
      <point x="391" y="451" type="curve" smooth="yes"/>
      <point x="364" y="496"/>
      <point x="315" y="528"/>
      <point x="256" y="528" type="curve" smooth="yes"/>
      <point x="242" y="528" type="line" smooth="yes"/>
      <point x="183" y="528"/>
      <point x="134" y="496"/>
      <point x="107" y="451" type="curve" smooth="yes"/>
      <point x="80" y="406"/>
      <point x="69" y="339"/>
      <point x="69" y="260" type="curve" smooth="yes"/>
      <point x="69" y="181"/>
      <point x="80" y="114"/>
      <point x="107" y="69" type="curve" smooth="yes"/>
      <point x="131" y="29"/>
      <point x="165" y="-1"/>
      <point x="209" y="-8" type="curve"/>
      <point x="209" y="20" type="line"/>
      <point x="129" y="37"/>
      <point x="89" y="115"/>
      <point x="89" y="248" type="curve" smooth="yes"/>
      <point x="89" y="272" type="line" smooth="yes"/>
      <point x="89" y="424"/>
      <point x="143" y="500"/>
      <point x="249" y="500" type="curve" smooth="yes"/>
      <point x="355" y="500"/>
      <point x="409" y="424"/>
      <point x="409" y="272" type="curve" smooth="yes"/>
      <point x="409" y="252" type="line" smooth="yes"/>
      <point x="409" y="112"/>
      <point x="337" y="20"/>
      <point x="253" y="-82" type="curve" smooth="yes"/>
      <point x="181" y="-171"/>
      <point x="137" y="-224"/>
      <point x="137" y="-304" type="curve" smooth="yes"/>
      <point x="137" y="-383"/>
      <point x="180" y="-429"/>
      <point x="254" y="-429" type="curve" smooth="yes"/>
      <point x="328" y="-429"/>
      <point x="365" y="-368"/>
      <point x="365" y="-272" type="curve" smooth="yes"/>
      <point x="365" y="-262"/>
      <point x="364" y="-255"/>
    </contour>
  </outline>
</glyph>
<glyph name="nine_m" format="2">
  <advance width="497"/>
  <unicode hex="1049"/>
  <outline>
    <contour>
      <point x="256" y="206" type="curve"/>
      <point x="286" y="192" type="line"/>
      <point x="383" y="212"/>
      <point x="433" y="267"/>
      <point x="433" y="361" type="curve" smooth="yes"/>
      <point x="433" y="456"/>
      <point x="377" y="528"/>
      <point x="280" y="528" type="curve" smooth="yes"/>
      <point x="270" y="528" type="line" smooth="yes"/>
      <point x="191" y="528"/>
      <point x="139" y="495"/>
      <point x="110" y="442" type="curve" smooth="yes"/>
      <point x="86" y="398"/>
      <point x="74" y="341"/>
      <point x="74" y="262" type="curve" smooth="yes"/>
      <point x="74" y="-170" type="line" smooth="yes"/>
      <point x="74" y="-241"/>
      <point x="86" y="-300"/>
      <point x="110" y="-343" type="curve" smooth="yes"/>
      <point x="140" y="-396"/>
      <point x="187" y="-429"/>
      <point x="257" y="-429" type="curve" smooth="yes"/>
      <point x="260" y="-429" type="line" smooth="yes"/>
      <point x="322" y="-429"/>
      <point x="371" y="-400"/>
      <point x="401" y="-349" type="curve" smooth="yes"/>
      <point x="422" y="-313"/>
      <point x="433" y="-265"/>
      <point x="433" y="-209" type="curve" smooth="yes"/>
      <point x="433" y="-205"/>
      <point x="433" y="-200"/>
      <point x="432" y="-195" type="curve"/>
      <point x="414" y="-195" type="line"/>
      <point x="414" y="-208" type="line" smooth="yes"/>
      <point x="414" y="-331"/>
      <point x="358" y="-401"/>
      <point x="258" y="-401" type="curve" smooth="yes"/>
      <point x="151" y="-401"/>
      <point x="96" y="-317"/>
      <point x="96" y="-168" type="curve" smooth="yes"/>
      <point x="96" y="268" type="line" smooth="yes"/>
      <point x="96" y="411"/>
      <point x="152" y="500"/>
      <point x="276" y="500" type="curve" smooth="yes"/>
      <point x="365" y="500"/>
      <point x="413" y="444"/>
      <point x="413" y="361" type="curve" smooth="yes"/>
      <point x="413" y="290"/>
      <point x="381" y="231"/>
      <point x="277" y="211" type="curve" smooth="yes"/>
      <point x="219" y="200"/>
      <point x="179" y="181"/>
      <point x="179" y="100" type="curve" smooth="yes"/>
      <point x="179" y="38"/>
      <point x="206" y="-8"/>
      <point x="260" y="-8" type="curve" smooth="yes"/>
      <point x="313" y="-8"/>
      <point x="340" y="38"/>
      <point x="340" y="100" type="curve" smooth="yes"/>
      <point x="340" y="161"/>
      <point x="307" y="206"/>
    </contour>
    <contour>
      <point x="260" y="17" type="curve" smooth="yes"/>
      <point x="216" y="17"/>
      <point x="197" y="53"/>
      <point x="197" y="100" type="curve" smooth="yes"/>
      <point x="197" y="147"/>
      <point x="216" y="183"/>
      <point x="260" y="183" type="curve" smooth="yes"/>
      <point x="304" y="183"/>
      <point x="322" y="147"/>
      <point x="322" y="100" type="curve" smooth="yes"/>
      <point x="322" y="53"/>
      <point x="304" y="17"/>
    </contour>
  </outline>
</glyph>
<glyph name="locative" format="2">
  <advance width="498"/>
  <unicode hex="104C"/>
  <note>
locative
</note>
  <outline>
    <contour>
      <point x="75" y="166" type="line"/>
      <point x="75" y="-8" type="line" smooth="yes"/>
      <point x="75" y="-106"/>
      <point x="92" y="-143"/>
      <point x="116" y="-168" type="curve" smooth="yes"/>
      <point x="145" y="-200"/>
      <point x="192" y="-208"/>
      <point x="252" y="-208" type="curve" smooth="yes"/>
      <point x="312" y="-208"/>
      <point x="361" y="-200"/>
      <point x="390" y="-168" type="curve" smooth="yes"/>
      <point x="414" y="-143"/>
      <point x="429" y="-106"/>
      <point x="429" y="-8" type="curve" smooth="yes"/>
      <point x="429" y="-7" type="line"/>
      <point x="407" y="-7" type="line"/>
      <point x="407" y="-89"/>
      <point x="396" y="-124"/>
      <point x="375" y="-146" type="curve" smooth="yes"/>
      <point x="348" y="-174"/>
      <point x="304" y="-181"/>
      <point x="252" y="-181" type="curve" smooth="yes"/>
      <point x="200" y="-181"/>
      <point x="156" y="-174"/>
      <point x="129" y="-146" type="curve" smooth="yes"/>
      <point x="108" y="-124"/>
      <point x="97" y="-89"/>
      <point x="97" y="-7" type="curve" smooth="yes"/>
      <point x="97" y="137" type="line"/>
    </contour>
    <contour>
      <point x="429" y="-7" type="line"/>
      <point x="407" y="-108" type="line"/>
      <point x="407" y="-324" type="line" smooth="yes"/>
      <point x="407" y="-410"/>
      <point x="396" y="-445"/>
      <point x="375" y="-467" type="curve" smooth="yes"/>
      <point x="348" y="-495"/>
      <point x="308" y="-502"/>
      <point x="247" y="-502" type="curve" smooth="yes"/>
      <point x="157" y="-502"/>
      <point x="95" y="-486"/>
      <point x="95" y="-407" type="curve" smooth="yes"/>
      <point x="95" y="-350"/>
      <point x="129" y="-311"/>
      <point x="196" y="-311" type="curve" smooth="yes"/>
      <point x="262" y="-311"/>
      <point x="295" y="-346"/>
      <point x="299" y="-396" type="curve"/>
      <point x="324" y="-396" type="line"/>
      <point x="320" y="-336"/>
      <point x="272" y="-291"/>
      <point x="195" y="-291" type="curve" smooth="yes"/>
      <point x="109" y="-291"/>
      <point x="75" y="-348"/>
      <point x="75" y="-409" type="curve" smooth="yes"/>
      <point x="75" y="-451"/>
      <point x="90" y="-481"/>
      <point x="113" y="-499" type="curve" smooth="yes"/>
      <point x="145" y="-525"/>
      <point x="197" y="-529"/>
      <point x="247" y="-529" type="curve" smooth="yes"/>
      <point x="321" y="-529"/>
      <point x="358" y="-520"/>
      <point x="388" y="-489" type="curve" smooth="yes"/>
      <point x="412" y="-464"/>
      <point x="429" y="-427"/>
      <point x="429" y="-329" type="curve" smooth="yes"/>
    </contour>
    <component base="asat" xOffset="503"/>
    <component base="nga" xScale="-1" xOffset="498"/>
  </outline>
</glyph>
<glyph name="completed" format="2">
  <advance width="673"/>
  <unicode hex="104D"/>
  <note>
completed
</note>
  <outline>
    <contour>
      <point x="599" y="10" type="line"/>
      <point x="577" y="10" type="line"/>
      <point x="577" y="-315" type="line" smooth="yes"/>
      <point x="577" y="-406"/>
      <point x="562" y="-443"/>
      <point x="533" y="-464" type="curve" smooth="yes"/>
      <point x="489" y="-496"/>
      <point x="422" y="-503"/>
      <point x="285" y="-503" type="curve" smooth="yes"/>
      <point x="163" y="-503"/>
      <point x="90" y="-484"/>
      <point x="90" y="-404" type="curve" smooth="yes"/>
      <point x="89" y="-350"/>
      <point x="123" y="-311"/>
      <point x="190" y="-311" type="curve" smooth="yes"/>
      <point x="256" y="-311"/>
      <point x="289" y="-346"/>
      <point x="293" y="-396" type="curve"/>
      <point x="318" y="-396" type="line"/>
      <point x="314" y="-336"/>
      <point x="266" y="-291"/>
      <point x="189" y="-291" type="curve" smooth="yes"/>
      <point x="103" y="-291"/>
      <point x="69" y="-348"/>
      <point x="69" y="-406" type="curve" smooth="yes"/>
      <point x="69" y="-447"/>
      <point x="84" y="-477"/>
      <point x="112" y="-497" type="curve" smooth="yes"/>
      <point x="150" y="-524"/>
      <point x="211" y="-530"/>
      <point x="285" y="-530" type="curve" smooth="yes"/>
      <point x="433" y="-530"/>
      <point x="501" y="-522"/>
      <point x="547" y="-486" type="curve" smooth="yes"/>
      <point x="578" y="-462"/>
      <point x="599" y="-422"/>
      <point x="599" y="-318" type="curve" smooth="yes"/>
    </contour>
    <component base="ra.alt2"/>
    <component base="asatstem" xOffset="503"/>
  </outline>
</glyph>
<glyph name="aforementioned" format="2">
  <advance width="498"/>
  <unicode hex="104E"/>
  <outline>
    <contour>
      <point x="401" y="-520" type="line"/>
      <point x="423" y="-520" type="line"/>
      <point x="423" y="166" type="line"/>
      <point x="401" y="116" type="line"/>
    </contour>
    <component base="nga"/>
  </outline>
</glyph>
<glyph name="genitive" format="2">
  <advance width="855"/>
  <unicode hex="104F"/>
  <note>
genitive
</note>
  <outline>
    <contour>
      <point x="424" y="422" type="curve" smooth="yes"/>
      <point x="429" y="473"/>
      <point x="456" y="500"/>
      <point x="508" y="500" type="curve" smooth="yes"/>
      <point x="558" y="500"/>
      <point x="589" y="475"/>
      <point x="589" y="375" type="curve" smooth="yes"/>
      <point x="589" y="0" type="line"/>
      <point x="611" y="0" type="line"/>
      <point x="611" y="381" type="line" smooth="yes"/>
      <point x="611" y="487"/>
      <point x="575" y="528"/>
      <point x="511" y="528" type="curve" smooth="yes"/>
      <point x="506" y="528" type="line" smooth="yes"/>
      <point x="456" y="528"/>
      <point x="421" y="499"/>
      <point x="408" y="451" type="curve"/>
      <point x="417" y="450" type="line"/>
      <point x="405" y="488"/>
      <point x="367" y="528"/>
      <point x="270" y="528" type="curve" smooth="yes"/>
      <point x="136" y="528"/>
      <point x="69" y="434"/>
      <point x="69" y="260" type="curve" smooth="yes"/>
      <point x="69" y="88"/>
      <point x="134" y="-8"/>
      <point x="270" y="-8" type="curve" smooth="yes"/>
      <point x="395" y="-8"/>
      <point x="422" y="59"/>
      <point x="422" y="101" type="curve" smooth="yes"/>
      <point x="422" y="139"/>
      <point x="408" y="194"/>
      <point x="320" y="194" type="curve" smooth="yes"/>
      <point x="262" y="194"/>
      <point x="205" y="175"/>
      <point x="205" y="86" type="curve" smooth="yes"/>
      <point x="205" y="9" type="line"/>
      <point x="225" y="9" type="line"/>
      <point x="225" y="79" type="line" smooth="yes"/>
      <point x="225" y="157"/>
      <point x="275" y="167"/>
      <point x="309" y="167" type="curve" smooth="yes"/>
      <point x="324" y="167" type="line" smooth="yes"/>
      <point x="379" y="167"/>
      <point x="401" y="140"/>
      <point x="401" y="101" type="curve" smooth="yes"/>
      <point x="401" y="55"/>
      <point x="366" y="20"/>
      <point x="272" y="20" type="curve" smooth="yes"/>
      <point x="257" y="20" type="line" smooth="yes"/>
      <point x="147" y="20"/>
      <point x="89" y="111"/>
      <point x="89" y="252" type="curve" smooth="yes"/>
      <point x="89" y="268" type="line" smooth="yes"/>
      <point x="89" y="409"/>
      <point x="147" y="500"/>
      <point x="257" y="500" type="curve" smooth="yes"/>
      <point x="272" y="500" type="line" smooth="yes"/>
      <point x="366" y="500"/>
      <point x="401" y="465"/>
      <point x="401" y="419" type="curve" smooth="yes"/>
      <point x="401" y="380"/>
      <point x="379" y="353"/>
      <point x="324" y="353" type="curve" smooth="yes"/>
      <point x="309" y="353" type="line" smooth="yes"/>
      <point x="275" y="353"/>
      <point x="225" y="363"/>
      <point x="225" y="441" type="curve" smooth="yes"/>
      <point x="225" y="511" type="line"/>
      <point x="205" y="511" type="line"/>
      <point x="205" y="434" type="line" smooth="yes"/>
      <point x="205" y="345"/>
      <point x="262" y="326"/>
      <point x="320" y="326" type="curve" smooth="yes"/>
      <point x="400" y="326"/>
      <point x="419" y="371"/>
    </contour>
    <component base="asatstem" xOffset="685"/>
  </outline>
</glyph>
<glyph name="vocRR_skt" format="2">
  <advance width="506"/>
  <unicode hex="1053"/>
  <note>
vocRR_skt
</note>
  <outline>
    <contour>
      <point x="260" y="-8" type="line" smooth="yes"/>
      <point x="359" y="-8"/>
      <point x="423" y="69"/>
      <point x="423" y="181" type="curve" smooth="yes"/>
      <point x="423" y="334"/>
      <point x="303" y="343"/>
      <point x="303" y="441" type="curve" smooth="yes"/>
      <point x="303" y="485"/>
      <point x="327" y="503"/>
      <point x="353" y="503" type="curve" smooth="yes"/>
      <point x="385" y="503"/>
      <point x="405" y="479"/>
      <point x="406" y="428" type="curve"/>
      <point x="426" y="428" type="line"/>
      <point x="428" y="494"/>
      <point x="392" y="528"/>
      <point x="352" y="528" type="curve" smooth="yes"/>
      <point x="318" y="528"/>
      <point x="283" y="501"/>
      <point x="283" y="441" type="curve" smooth="yes"/>
      <point x="283" y="331"/>
      <point x="403" y="327"/>
      <point x="403" y="184" type="curve" smooth="yes"/>
      <point x="403" y="90"/>
      <point x="350" y="18"/>
      <point x="253" y="19" type="curve" smooth="yes"/>
      <point x="156" y="18"/>
      <point x="103" y="90"/>
      <point x="103" y="184" type="curve" smooth="yes"/>
      <point x="103" y="327"/>
      <point x="223" y="331"/>
      <point x="223" y="441" type="curve" smooth="yes"/>
      <point x="223" y="501"/>
      <point x="188" y="528"/>
      <point x="154" y="528" type="curve" smooth="yes"/>
      <point x="114" y="528"/>
      <point x="78" y="494"/>
      <point x="80" y="428" type="curve"/>
      <point x="100" y="428" type="line"/>
      <point x="101" y="479"/>
      <point x="121" y="503"/>
      <point x="153" y="503" type="curve" smooth="yes"/>
      <point x="179" y="503"/>
      <point x="203" y="485"/>
      <point x="203" y="441" type="curve" smooth="yes"/>
      <point x="203" y="343"/>
      <point x="83" y="334"/>
      <point x="83" y="181" type="curve" smooth="yes"/>
      <point x="83" y="69"/>
      <point x="147" y="-8"/>
      <point x="246" y="-8" type="curve" smooth="yes"/>
    </contour>
  </outline>
</glyph>
<glyph name="vocLL_skt" format="2">
  <advance width="484"/>
  <unicode hex="1055"/>
  <note>
vocLL_skt
</note>
  <outline>
    <contour>
      <point x="168" y="17" type="curve" smooth="yes"/>
      <point x="115" y="17"/>
      <point x="89" y="72"/>
      <point x="89" y="231" type="curve" smooth="yes"/>
      <point x="89" y="271" type="line" smooth="yes"/>
      <point x="89" y="424"/>
      <point x="148" y="500"/>
      <point x="262" y="500" type="curve" smooth="yes"/>
      <point x="273" y="500" type="line" smooth="yes"/>
      <point x="368" y="500"/>
      <point x="405" y="465"/>
      <point x="405" y="419" type="curve" smooth="yes"/>
      <point x="405" y="384"/>
      <point x="385" y="353"/>
      <point x="329" y="353" type="curve" smooth="yes"/>
      <point x="317" y="353" type="line" smooth="yes"/>
      <point x="283" y="353"/>
      <point x="230" y="363"/>
      <point x="230" y="439" type="curve" smooth="yes"/>
      <point x="230" y="521" type="line"/>
      <point x="210" y="521" type="line"/>
      <point x="210" y="432" type="line" smooth="yes"/>
      <point x="210" y="345"/>
      <point x="272" y="326"/>
      <point x="323" y="326" type="curve" smooth="yes"/>
      <point x="411" y="326"/>
      <point x="426" y="384"/>
      <point x="426" y="420" type="curve" smooth="yes"/>
      <point x="426" y="463"/>
      <point x="400" y="528"/>
      <point x="270" y="528" type="curve" smooth="yes"/>
      <point x="195" y="528"/>
      <point x="143" y="501"/>
      <point x="112" y="452" type="curve" smooth="yes"/>
      <point x="82" y="405"/>
      <point x="69" y="338"/>
      <point x="69" y="259" type="curve" smooth="yes"/>
      <point x="69" y="78"/>
      <point x="92" y="-10"/>
      <point x="165" y="-10" type="curve" smooth="yes"/>
      <point x="216" y="-10"/>
      <point x="249" y="39"/>
      <point x="251" y="111" type="curve"/>
      <point x="253" y="39"/>
      <point x="287" y="-10"/>
      <point x="337" y="-10" type="curve" smooth="yes"/>
      <point x="407" y="-10"/>
      <point x="430" y="86"/>
      <point x="430" y="177" type="curve"/>
      <point x="410" y="177" type="line"/>
      <point x="409" y="68"/>
      <point x="387" y="17"/>
      <point x="337" y="17" type="curve" smooth="yes"/>
      <point x="289" y="17"/>
      <point x="262" y="64"/>
      <point x="262" y="177" type="curve"/>
      <point x="241" y="177" type="line"/>
      <point x="241" y="64"/>
      <point x="214" y="17"/>
    </contour>
  </outline>
</glyph>
<glyph name="_vocR_skt" format="2">
  <advance width="280"/>
  <unicode hex="1056"/>
  <note>
_vocR_skt
</note>
  <outline>
    <contour>
      <point x="34" y="-8" type="line" smooth="yes"/>
      <point x="133" y="-8"/>
      <point x="197" y="69"/>
      <point x="197" y="181" type="curve" smooth="yes"/>
      <point x="197" y="334"/>
      <point x="77" y="343"/>
      <point x="77" y="441" type="curve" smooth="yes"/>
      <point x="77" y="485"/>
      <point x="101" y="503"/>
      <point x="127" y="503" type="curve" smooth="yes"/>
      <point x="159" y="503"/>
      <point x="179" y="479"/>
      <point x="180" y="428" type="curve"/>
      <point x="200" y="428" type="line"/>
      <point x="202" y="494"/>
      <point x="166" y="528"/>
      <point x="126" y="528" type="curve" smooth="yes"/>
      <point x="92" y="528"/>
      <point x="57" y="501"/>
      <point x="57" y="441" type="curve" smooth="yes"/>
      <point x="57" y="331"/>
      <point x="177" y="327"/>
      <point x="177" y="184" type="curve" smooth="yes"/>
      <point x="177" y="90"/>
      <point x="124" y="18"/>
      <point x="27" y="19" type="curve" smooth="yes"/>
      <point x="-34" y="19"/>
      <point x="-82" y="42"/>
      <point x="-113" y="84" type="curve"/>
      <point x="-125" y="65" type="line"/>
      <point x="-95" y="22"/>
      <point x="-44" y="-8"/>
      <point x="21" y="-8" type="curve" smooth="yes"/>
    </contour>
  </outline>
</glyph>
<glyph name="_vocRR_skt" format="2">
  <advance width="309"/>
  <unicode hex="1057"/>
  <note>
_vocRR_skt
</note>
  <outline>
    <contour>
      <point x="-104" y="98" type="curve"/>
      <point x="-118" y="74" type="line"/>
      <point x="-108" y="19"/>
      <point x="-82" y="-8"/>
      <point x="-39" y="-8" type="curve" smooth="yes"/>
      <point x="14" y="-8"/>
      <point x="41" y="37"/>
      <point x="45" y="101" type="curve"/>
      <point x="48" y="37"/>
      <point x="78" y="-8"/>
      <point x="130" y="-8" type="curve" smooth="yes"/>
      <point x="196" y="-8"/>
      <point x="226" y="57"/>
      <point x="226" y="151" type="curve" smooth="yes"/>
      <point x="226" y="312"/>
      <point x="106" y="343"/>
      <point x="106" y="441" type="curve" smooth="yes"/>
      <point x="106" y="485"/>
      <point x="130" y="503"/>
      <point x="156" y="503" type="curve" smooth="yes"/>
      <point x="188" y="503"/>
      <point x="208" y="479"/>
      <point x="209" y="428" type="curve"/>
      <point x="229" y="428" type="line"/>
      <point x="231" y="494"/>
      <point x="195" y="528"/>
      <point x="155" y="528" type="curve" smooth="yes"/>
      <point x="121" y="528"/>
      <point x="86" y="501"/>
      <point x="86" y="441" type="curve" smooth="yes"/>
      <point x="86" y="331"/>
      <point x="206" y="305"/>
      <point x="205" y="152" type="curve" smooth="yes"/>
      <point x="205" y="63"/>
      <point x="182" y="20"/>
      <point x="130" y="20" type="curve" smooth="yes"/>
      <point x="79" y="20"/>
      <point x="56" y="67"/>
      <point x="56" y="170" type="curve"/>
      <point x="35" y="170" type="line"/>
      <point x="35" y="67"/>
      <point x="11" y="20"/>
      <point x="-38" y="20" type="curve" smooth="yes"/>
      <point x="-73" y="20"/>
      <point x="-96" y="41"/>
    </contour>
  </outline>
</glyph>
<glyph name="_vocLL_skt" format="2">
  <unicode hex="1059"/>
  <outline>
    <contour>
      <point x="-101" y="-373" type="curve"/>
      <point x="-121" y="-373" type="line"/>
      <point x="-122" y="-460"/>
      <point x="-140" y="-501"/>
      <point x="-180" y="-501" type="curve" smooth="yes"/>
      <point x="-219" y="-501"/>
      <point x="-242" y="-463"/>
      <point x="-242" y="-373" type="curve"/>
      <point x="-262" y="-373" type="line"/>
      <point x="-262" y="-463"/>
      <point x="-284" y="-501"/>
      <point x="-322" y="-501" type="curve" smooth="yes"/>
      <point x="-365" y="-501"/>
      <point x="-385" y="-457"/>
      <point x="-385" y="-329" type="curve" smooth="yes"/>
      <point x="-385" y="-296" type="line" smooth="yes"/>
      <point x="-385" y="-173"/>
      <point x="-337" y="-112"/>
      <point x="-243" y="-112" type="curve" smooth="yes"/>
      <point x="-231" y="-112" type="line" smooth="yes"/>
      <point x="-155" y="-112"/>
      <point x="-125" y="-139"/>
      <point x="-125" y="-176" type="curve" smooth="yes"/>
      <point x="-125" y="-203"/>
      <point x="-141" y="-228"/>
      <point x="-185" y="-228" type="curve" smooth="yes"/>
      <point x="-195" y="-228" type="line" smooth="yes"/>
      <point x="-222" y="-228"/>
      <point x="-264" y="-219"/>
      <point x="-264" y="-158" type="curve" smooth="yes"/>
      <point x="-264" y="-90" type="line"/>
      <point x="-283" y="-90" type="line"/>
      <point x="-283" y="-164" type="line" smooth="yes"/>
      <point x="-283" y="-238"/>
      <point x="-232" y="-254"/>
      <point x="-192" y="-254" type="curve" smooth="yes"/>
      <point x="-117" y="-254"/>
      <point x="-105" y="-205"/>
      <point x="-105" y="-176" type="curve" smooth="yes"/>
      <point x="-105" y="-137"/>
      <point x="-126" y="-84"/>
      <point x="-226" y="-84" type="curve" smooth="yes"/>
      <point x="-236" y="-84" type="line" smooth="yes"/>
      <point x="-299" y="-84"/>
      <point x="-343" y="-106"/>
      <point x="-369" y="-147" type="curve" smooth="yes"/>
      <point x="-394" y="-185"/>
      <point x="-405" y="-240"/>
      <point x="-405" y="-306" type="curve" smooth="yes"/>
      <point x="-405" y="-456"/>
      <point x="-386" y="-529"/>
      <point x="-324" y="-529" type="curve" smooth="yes"/>
      <point x="-281" y="-529"/>
      <point x="-254" y="-491"/>
      <point x="-252" y="-438" type="curve"/>
      <point x="-250" y="-491"/>
      <point x="-222" y="-529"/>
      <point x="-180" y="-529" type="curve" smooth="yes"/>
      <point x="-121" y="-529"/>
      <point x="-101" y="-449"/>
    </contour>
  </outline>
</glyph>
<glyph name="jha_mon" format="2">
  <advance width="668"/>
  <unicode hex="105B"/>
  <note>
Unlikely to ever take marks below.
</note>
  <outline>
    <contour>
      <point x="340" y="-379" type="line" smooth="yes"/>
      <point x="340" y="-471"/>
      <point x="383" y="-529"/>
      <point x="467" y="-529" type="curve" smooth="yes"/>
      <point x="552" y="-529"/>
      <point x="594" y="-471"/>
      <point x="594" y="-379" type="curve" smooth="yes"/>
      <point x="594" y="520" type="line"/>
      <point x="572" y="520" type="line"/>
      <point x="572" y="-373" type="line" smooth="yes"/>
      <point x="572" y="-464"/>
      <point x="535" y="-501"/>
      <point x="467" y="-501" type="curve" smooth="yes"/>
      <point x="400" y="-501"/>
      <point x="362" y="-464"/>
      <point x="362" y="-373" type="curve" smooth="yes"/>
      <point x="362" y="47" type="line"/>
      <point x="326" y="20" type="line"/>
      <point x="276" y="-345" type="line" smooth="yes"/>
      <point x="259" y="-467"/>
      <point x="228" y="-492"/>
      <point x="188" y="-492" type="curve" smooth="yes"/>
      <point x="179" y="-492"/>
      <point x="165" y="-491"/>
      <point x="150" y="-488" type="curve"/>
      <point x="146" y="-515" type="line"/>
      <point x="157" y="-518"/>
      <point x="173" y="-520"/>
      <point x="188" y="-520" type="curve" smooth="yes"/>
      <point x="237" y="-520"/>
      <point x="279" y="-486"/>
      <point x="297" y="-354" type="curve" smooth="yes"/>
      <point x="319" y="-196" type="line" smooth="yes"/>
      <point x="329" y="-125"/>
      <point x="335" y="-54"/>
      <point x="342" y="17" type="curve"/>
      <point x="346" y="17" type="line"/>
      <point x="342" y="-68"/>
      <point x="340" y="-125"/>
      <point x="340" y="-196" type="curve" smooth="yes"/>
    </contour>
    <component base="ja"/>
  </outline>
</glyph>
<glyph name="bbe_mon" format="2">
  <advance width="498"/>
  <unicode hex="105D"/>
  <outline>
    <contour>
      <point x="361" y="50" type="line"/>
      <point x="339" y="33" type="line"/>
      <point x="339" y="-324" type="line" smooth="yes"/>
      <point x="339" y="-410"/>
      <point x="331" y="-445"/>
      <point x="314" y="-467" type="curve" smooth="yes"/>
      <point x="293" y="-495"/>
      <point x="262" y="-502"/>
      <point x="208" y="-502" type="curve" smooth="yes"/>
      <point x="140" y="-502"/>
      <point x="90" y="-486"/>
      <point x="90" y="-416" type="curve" smooth="yes"/>
      <point x="90" y="-365"/>
      <point x="116" y="-330"/>
      <point x="174" y="-330" type="curve" smooth="yes"/>
      <point x="224" y="-330"/>
      <point x="251" y="-357"/>
      <point x="256" y="-408" type="curve"/>
      <point x="280" y="-408" type="line"/>
      <point x="276" y="-350"/>
      <point x="234" y="-309"/>
      <point x="173" y="-309" type="curve" smooth="yes"/>
      <point x="97" y="-309"/>
      <point x="69" y="-360"/>
      <point x="69" y="-418" type="curve" smooth="yes"/>
      <point x="69" y="-457"/>
      <point x="83" y="-483"/>
      <point x="101" y="-499" type="curve" smooth="yes"/>
      <point x="129" y="-524"/>
      <point x="173" y="-529"/>
      <point x="208" y="-529" type="curve" smooth="yes"/>
      <point x="277" y="-529"/>
      <point x="301" y="-518"/>
      <point x="326" y="-488" type="curve" smooth="yes"/>
      <point x="346" y="-463"/>
      <point x="361" y="-427"/>
      <point x="361" y="-329" type="curve" smooth="yes"/>
    </contour>
    <component base="ma"/>
  </outline>
</glyph>
<glyph name="_medialNa_mon" format="2">
  <unicode hex="105E"/>
  <outline>
    <contour>
      <point x="-136" y="51" type="line"/>
      <point x="-158" y="33" type="line"/>
      <point x="-158" y="-425" type="line" smooth="yes"/>
      <point x="-158" y="-484"/>
      <point x="-178" y="-501"/>
      <point x="-221" y="-501" type="curve" smooth="yes"/>
      <point x="-283" y="-501"/>
      <point x="-377" y="-424"/>
      <point x="-377" y="-338" type="curve" smooth="yes"/>
      <point x="-377" y="-261"/>
      <point x="-306" y="-234"/>
      <point x="-212" y="-234" type="curve" smooth="yes"/>
      <point x="-143" y="-234"/>
      <point x="-77" y="-257"/>
      <point x="-33" y="-281" type="curve"/>
      <point x="-23" y="-255" type="line"/>
      <point x="-74" y="-228"/>
      <point x="-138" y="-206"/>
      <point x="-214" y="-206" type="curve" smooth="yes"/>
      <point x="-331" y="-206"/>
      <point x="-398" y="-251"/>
      <point x="-398" y="-333" type="curve" smooth="yes"/>
      <point x="-398" y="-440"/>
      <point x="-296" y="-529"/>
      <point x="-218" y="-529" type="curve" smooth="yes"/>
      <point x="-164" y="-529"/>
      <point x="-136" y="-494"/>
      <point x="-136" y="-431" type="curve" smooth="yes"/>
    </contour>
  </outline>
</glyph>
<glyph name="_medialMa_mon" format="2">
  <unicode hex="105F"/>
  <outline>
    <contour>
      <point x="-167" y="45" type="line"/>
      <point x="-185" y="32" type="line"/>
      <point x="-185" y="-224" type="line"/>
      <point x="-342" y="-211"/>
      <point x="-429" y="-258"/>
      <point x="-429" y="-381" type="curve" smooth="yes"/>
      <point x="-429" y="-482"/>
      <point x="-358" y="-529"/>
      <point x="-261" y="-529" type="curve" smooth="yes"/>
      <point x="-192" y="-529"/>
      <point x="-137" y="-508"/>
      <point x="-88" y="-469" type="curve"/>
      <point x="-95" y="-448" type="line"/>
      <point x="-143" y="-491"/>
      <point x="-209" y="-501"/>
      <point x="-261" y="-501" type="curve" smooth="yes"/>
      <point x="-334" y="-501"/>
      <point x="-409" y="-470"/>
      <point x="-409" y="-380" type="curve" smooth="yes"/>
      <point x="-409" y="-276"/>
      <point x="-324" y="-238"/>
      <point x="-167" y="-251" type="curve"/>
    </contour>
  </outline>
</glyph>
<glyph name="_medialLa_mon" format="2">
  <unicode hex="1060"/>
  <outline>
    <contour>
      <point x="-166" y="28" type="curve"/>
      <point x="-191" y="17" type="line"/>
      <point x="-244" y="-131"/>
      <point x="-325" y="-255"/>
      <point x="-413" y="-382" type="curve"/>
      <point x="-402" y="-468"/>
      <point x="-339" y="-529"/>
      <point x="-236" y="-529" type="curve" smooth="yes"/>
      <point x="-154" y="-529"/>
      <point x="-89" y="-490"/>
      <point x="-71" y="-384" type="curve"/>
      <point x="-89" y="-381" type="line"/>
      <point x="-109" y="-470"/>
      <point x="-158" y="-501"/>
      <point x="-237" y="-501" type="curve" smooth="yes"/>
      <point x="-308" y="-501"/>
      <point x="-368" y="-473"/>
      <point x="-391" y="-386" type="curve"/>
      <point x="-303" y="-257"/>
      <point x="-221" y="-132"/>
    </contour>
  </outline>
</glyph>
<glyph name="sha_skn" format="2">
  <advance width="503"/>
  <unicode hex="1061"/>
  <note>
Sgaw Karen does not use subjoined consonants.
</note>
  <outline>
    <contour>
      <point x="298" y="40" type="line"/>
      <point x="298" y="-342" type="line" smooth="yes"/>
      <point x="298" y="-484"/>
      <point x="263" y="-501"/>
      <point x="213" y="-501" type="curve" smooth="yes"/>
      <point x="193" y="-501" type="line"/>
      <point x="193" y="-528" type="line"/>
      <point x="203" y="-529"/>
      <point x="213" y="-529"/>
      <point x="218" y="-529" type="curve" smooth="yes"/>
      <point x="275" y="-529"/>
      <point x="320" y="-495"/>
      <point x="320" y="-348" type="curve" smooth="yes"/>
      <point x="320" y="92" type="line"/>
    </contour>
    <component base="ra.alt"/>
  </outline>
</glyph>
<glyph name="eu_skn" format="2">
  <advance width="408"/>
  <unicode hex="1062"/>
  <note>
Used in Sgaw, Khamti, Shan.
</note>
  <outline>
    <contour>
      <point x="334" y="0" type="line"/>
      <point x="334" y="413" type="line" smooth="yes"/>
      <point x="334" y="518"/>
      <point x="268" y="530"/>
      <point x="173" y="530" type="curve" smooth="yes"/>
      <point x="74" y="530"/>
      <point x="27" y="506"/>
      <point x="27" y="441" type="curve" smooth="yes"/>
      <point x="27" y="438"/>
      <point x="27" y="433"/>
      <point x="28" y="430" type="curve"/>
      <point x="48" y="430" type="line"/>
      <point x="50" y="498"/>
      <point x="89" y="502"/>
      <point x="173" y="502" type="curve" smooth="yes"/>
      <point x="258" y="502"/>
      <point x="312" y="499"/>
      <point x="312" y="405" type="curve" smooth="yes"/>
      <point x="312" y="0" type="line"/>
    </contour>
  </outline>
</glyph>
<glyph name="kepho_skn" format="2">
  <advance width="318"/>
  <unicode hex="1064"/>
  <outline>
    <contour>
      <point x="83" y="528" type="curve" smooth="yes"/>
      <point x="60" y="528"/>
      <point x="45" y="526"/>
      <point x="27" y="520" type="curve"/>
      <point x="27" y="500" type="line"/>
      <point x="75" y="500" type="line" smooth="yes"/>
      <point x="126" y="500"/>
      <point x="148" y="476"/>
      <point x="148" y="413" type="curve" smooth="yes"/>
      <point x="148" y="104" type="line" smooth="yes"/>
      <point x="148" y="34"/>
      <point x="174" y="-8"/>
      <point x="235" y="-8" type="curve" smooth="yes"/>
      <point x="258" y="-8"/>
      <point x="273" y="-6"/>
      <point x="291" y="0" type="curve"/>
      <point x="291" y="20" type="line"/>
      <point x="243" y="20" type="line" smooth="yes"/>
      <point x="192" y="20"/>
      <point x="170" y="44"/>
      <point x="170" y="107" type="curve" smooth="yes"/>
      <point x="170" y="416" type="line" smooth="yes"/>
      <point x="170" y="486"/>
      <point x="144" y="528"/>
    </contour>
  </outline>
</glyph>
<glyph name="pwa_wpk" format="2">
  <advance width="498"/>
  <unicode hex="1066"/>
  <outline>
    <contour>
      <point x="429" y="-389" type="curve" smooth="yes"/>
      <point x="429" y="260" type="line"/>
      <point x="407" y="165" type="line"/>
      <point x="407" y="-368" type="line" smooth="yes"/>
      <point x="407" y="-474"/>
      <point x="365" y="-502"/>
      <point x="313" y="-502" type="curve" smooth="yes"/>
      <point x="261" y="-502"/>
      <point x="218" y="-474"/>
      <point x="218" y="-381" type="curve"/>
      <point x="199" y="-381" type="line"/>
      <point x="198" y="-386"/>
      <point x="198" y="-391"/>
      <point x="198" y="-396" type="curve" smooth="yes"/>
      <point x="198" y="-480"/>
      <point x="249" y="-528"/>
      <point x="314" y="-528" type="curve" smooth="yes"/>
      <point x="379" y="-528"/>
      <point x="429" y="-480"/>
    </contour>
    <component base="pa"/>
  </outline>
</glyph>
<glyph name="eu_wpk" format="2">
  <advance width="308"/>
  <unicode hex="1067"/>
  <outline>
    <contour>
      <point x="234" y="520" type="line"/>
      <point x="213" y="520" type="line"/>
      <point x="213" y="183" type="line"/>
      <point x="231" y="126" type="line"/>
      <point x="231" y="201"/>
      <point x="197" y="258"/>
      <point x="136" y="258" type="curve" smooth="yes"/>
      <point x="74" y="258"/>
      <point x="43" y="202"/>
      <point x="43" y="126" type="curve" smooth="yes"/>
      <point x="43" y="46"/>
      <point x="77" y="-8"/>
      <point x="139" y="-8" type="curve" smooth="yes"/>
      <point x="205" y="-8"/>
      <point x="234" y="54"/>
      <point x="234" y="123" type="curve" smooth="yes"/>
    </contour>
    <contour>
      <point x="140" y="20" type="curve" smooth="yes"/>
      <point x="87" y="20"/>
      <point x="63" y="66"/>
      <point x="63" y="126" type="curve" smooth="yes"/>
      <point x="63" y="186"/>
      <point x="87" y="232"/>
      <point x="139" y="232" type="curve" smooth="yes"/>
      <point x="190" y="232"/>
      <point x="213" y="183"/>
      <point x="213" y="123" type="curve" smooth="yes"/>
      <point x="213" y="63"/>
      <point x="190" y="20"/>
    </contour>
  </outline>
</glyph>
<glyph name="tone1_wpk" format="2">
  <advance width="276"/>
  <unicode hex="1069"/>
  <outline>
    <contour>
      <point x="233" y="141" type="curve"/>
      <point x="215" y="141" type="line"/>
      <point x="215" y="122" type="line" smooth="yes"/>
      <point x="215" y="53"/>
      <point x="183" y="20"/>
      <point x="137" y="20" type="curve" smooth="yes"/>
      <point x="88" y="20"/>
      <point x="62" y="58"/>
      <point x="62" y="114" type="curve" smooth="yes"/>
      <point x="62" y="177"/>
      <point x="95" y="207"/>
      <point x="143" y="250" type="curve" smooth="yes"/>
      <point x="199" y="300"/>
      <point x="234" y="335"/>
      <point x="234" y="409" type="curve" smooth="yes"/>
      <point x="234" y="476"/>
      <point x="206" y="528"/>
      <point x="140" y="528" type="curve" smooth="yes"/>
      <point x="77" y="528"/>
      <point x="42" y="480"/>
      <point x="42" y="404" type="curve" smooth="yes"/>
      <point x="42" y="391"/>
      <point x="43" y="384"/>
      <point x="43" y="379" type="curve"/>
      <point x="61" y="379" type="line"/>
      <point x="61" y="398" type="line" smooth="yes"/>
      <point x="61" y="467"/>
      <point x="93" y="500"/>
      <point x="139" y="500" type="curve" smooth="yes"/>
      <point x="188" y="500"/>
      <point x="214" y="462"/>
      <point x="214" y="406" type="curve" smooth="yes"/>
      <point x="214" y="343"/>
      <point x="181" y="313"/>
      <point x="133" y="270" type="curve" smooth="yes"/>
      <point x="77" y="220"/>
      <point x="42" y="185"/>
      <point x="42" y="111" type="curve" smooth="yes"/>
      <point x="42" y="44"/>
      <point x="70" y="-8"/>
      <point x="136" y="-8" type="curve" smooth="yes"/>
      <point x="199" y="-8"/>
      <point x="234" y="40"/>
      <point x="234" y="116" type="curve" smooth="yes"/>
      <point x="234" y="129"/>
      <point x="233" y="136"/>
    </contour>
  </outline>
</glyph>
<glyph name="tone3_wpk" format="2">
  <advance width="345"/>
  <unicode hex="106B"/>
  <outline>
    <contour>
      <point x="271" y="0" type="line"/>
      <point x="271" y="395" type="line" smooth="yes"/>
      <point x="271" y="485"/>
      <point x="235" y="528"/>
      <point x="168" y="528" type="curve" smooth="yes"/>
      <point x="104" y="528"/>
      <point x="63" y="487"/>
      <point x="63" y="420" type="curve" smooth="yes"/>
      <point x="63" y="419"/>
      <point x="63" y="415"/>
      <point x="63" y="414" type="curve"/>
      <point x="81" y="414" type="line"/>
      <point x="83" y="476"/>
      <point x="119" y="500"/>
      <point x="168" y="500" type="curve" smooth="yes"/>
      <point x="216" y="500"/>
      <point x="249" y="477"/>
      <point x="249" y="389" type="curve" smooth="yes"/>
      <point x="249" y="0" type="line"/>
    </contour>
  </outline>
</glyph>
<glyph name="tone5_wpk" format="2">
  <advance width="276"/>
  <unicode hex="106D"/>
  <outline>
    <contour>
      <point x="138" y="528" type="curve" smooth="yes"/>
      <point x="70" y="528"/>
      <point x="43" y="467"/>
      <point x="43" y="397" type="curve" smooth="yes"/>
      <point x="43" y="302"/>
      <point x="91" y="280"/>
      <point x="136" y="244" type="curve" smooth="yes"/>
      <point x="177" y="211"/>
      <point x="213" y="182"/>
      <point x="213" y="111" type="curve" smooth="yes"/>
      <point x="213" y="58"/>
      <point x="187" y="20"/>
      <point x="137" y="20" type="curve" smooth="yes"/>
      <point x="92" y="20"/>
      <point x="61" y="53"/>
      <point x="61" y="115" type="curve" smooth="yes"/>
      <point x="61" y="134" type="line"/>
      <point x="43" y="134" type="line"/>
      <point x="42" y="129"/>
      <point x="42" y="122"/>
      <point x="42" y="110" type="curve" smooth="yes"/>
      <point x="42" y="40"/>
      <point x="76" y="-8"/>
      <point x="138" y="-8" type="curve" smooth="yes"/>
      <point x="206" y="-8"/>
      <point x="234" y="47"/>
      <point x="234" y="111" type="curve" smooth="yes"/>
      <point x="234" y="190"/>
      <point x="199" y="221"/>
      <point x="142" y="270" type="curve"/>
      <point x="138" y="263" type="line"/>
      <point x="201" y="263"/>
      <point x="233" y="318"/>
      <point x="233" y="394" type="curve" smooth="yes"/>
      <point x="233" y="475"/>
      <point x="199" y="528"/>
    </contour>
    <contour>
      <point x="138" y="288" type="curve" smooth="yes"/>
      <point x="96" y="288"/>
      <point x="63" y="335"/>
      <point x="63" y="397" type="curve" smooth="yes"/>
      <point x="63" y="456"/>
      <point x="86" y="500"/>
      <point x="138" y="500" type="curve" smooth="yes"/>
      <point x="189" y="500"/>
      <point x="213" y="455"/>
      <point x="213" y="394" type="curve" smooth="yes"/>
      <point x="213" y="333"/>
      <point x="189" y="288"/>
    </contour>
  </outline>
</glyph>
<glyph name="nna_epk" format="2">
  <advance width="928"/>
  <unicode hex="106E"/>
  <note>
Also used in Thai Mon.
</note>
  <outline>
    <contour>
      <point x="403" y="402" type="line"/>
      <point x="406" y="476"/>
      <point x="429" y="500"/>
      <point x="463" y="500" type="curve" smooth="yes"/>
      <point x="496" y="500"/>
      <point x="513" y="474"/>
      <point x="526" y="387" type="curve" smooth="yes"/>
      <point x="535" y="322"/>
      <point x="535" y="182"/>
      <point x="521" y="114" type="curve" smooth="yes"/>
      <point x="508" y="50"/>
      <point x="492" y="32"/>
      <point x="462" y="21" type="curve"/>
      <point x="462" y="-8" type="line"/>
      <point x="502" y="2"/>
      <point x="522" y="30"/>
      <point x="539" y="108" type="curve" smooth="yes"/>
      <point x="555" y="182"/>
      <point x="555" y="314"/>
      <point x="545" y="393" type="curve" smooth="yes"/>
      <point x="532" y="498"/>
      <point x="509" y="528"/>
      <point x="463" y="528" type="curve" smooth="yes"/>
      <point x="418" y="528"/>
      <point x="390" y="495"/>
      <point x="384" y="432" type="curve"/>
    </contour>
    <component base="_aa" xOffset="634"/>
    <component base="ga"/>
  </outline>
</glyph>
<glyph name="ywa_epk" format="2">
  <advance width="792"/>
  <unicode hex="106F"/>
  <outline>
    <contour>
      <point x="407" y="141" type="line"/>
      <point x="407" y="-342" type="line" smooth="yes"/>
      <point x="407" y="-484"/>
      <point x="372" y="-501"/>
      <point x="322" y="-501" type="curve" smooth="yes"/>
      <point x="302" y="-501" type="line"/>
      <point x="302" y="-528" type="line"/>
      <point x="312" y="-529"/>
      <point x="322" y="-529"/>
      <point x="327" y="-529" type="curve" smooth="yes"/>
      <point x="384" y="-529"/>
      <point x="429" y="-495"/>
      <point x="429" y="-348" type="curve" smooth="yes"/>
      <point x="429" y="260" type="line"/>
    </contour>
    <component base="ha"/>
  </outline>
</glyph>
<glyph name="ghwa_epk" format="2">
  <advance width="792"/>
  <unicode hex="1070"/>
  <outline>
    <contour>
      <point x="385" y="89" type="line"/>
      <point x="385" y="-342" type="line" smooth="yes"/>
      <point x="385" y="-484"/>
      <point x="350" y="-501"/>
      <point x="300" y="-501" type="curve" smooth="yes"/>
      <point x="280" y="-501" type="line"/>
      <point x="280" y="-528" type="line"/>
      <point x="290" y="-529"/>
      <point x="300" y="-529"/>
      <point x="305" y="-529" type="curve" smooth="yes"/>
      <point x="362" y="-529"/>
      <point x="407" y="-495"/>
      <point x="407" y="-348" type="curve" smooth="yes"/>
      <point x="407" y="89" type="line"/>
    </contour>
    <component base="gha"/>
  </outline>
</glyph>
<glyph name="u_kyh" format="2">
  <unicode hex="1073"/>
  <outline>
    <contour>
      <point x="-132" y="631" type="line"/>
      <point x="-104" y="643" type="line"/>
      <point x="-240" y="862" type="line"/>
      <point x="-258" y="862" type="line"/>
      <point x="-393" y="643" type="line"/>
      <point x="-365" y="631" type="line"/>
      <point x="-249" y="842" type="line"/>
    </contour>
  </outline>
</glyph>
<glyph name="kha_shn" format="2">
  <advance width="501"/>
  <unicode hex="1076"/>
  <outline>
    <contour>
      <point x="112" y="528" type="curve"/>
      <point x="92" y="528" type="line"/>
      <point x="84" y="510"/>
      <point x="83" y="497"/>
      <point x="83" y="480" type="curve" smooth="yes"/>
      <point x="83" y="435"/>
      <point x="104" y="401"/>
      <point x="149" y="401" type="curve" smooth="yes"/>
      <point x="216" y="401"/>
      <point x="223" y="500"/>
      <point x="300" y="500" type="curve" smooth="yes"/>
      <point x="370" y="500"/>
      <point x="412" y="424"/>
      <point x="412" y="272" type="curve" smooth="yes"/>
      <point x="412" y="248" type="line" smooth="yes"/>
      <point x="412" y="96"/>
      <point x="357" y="20"/>
      <point x="243" y="20" type="curve" smooth="yes"/>
      <point x="232" y="20" type="line" smooth="yes"/>
      <point x="137" y="20"/>
      <point x="100" y="55"/>
      <point x="100" y="101" type="curve" smooth="yes"/>
      <point x="100" y="136"/>
      <point x="120" y="167"/>
      <point x="176" y="167" type="curve" smooth="yes"/>
      <point x="188" y="167" type="line" smooth="yes"/>
      <point x="222" y="167"/>
      <point x="275" y="157"/>
      <point x="275" y="81" type="curve" smooth="yes"/>
      <point x="275" y="-1" type="line"/>
      <point x="295" y="-1" type="line"/>
      <point x="295" y="88" type="line" smooth="yes"/>
      <point x="295" y="175"/>
      <point x="233" y="194"/>
      <point x="182" y="194" type="curve" smooth="yes"/>
      <point x="94" y="194"/>
      <point x="79" y="136"/>
      <point x="79" y="100" type="curve" smooth="yes"/>
      <point x="79" y="57"/>
      <point x="105" y="-8"/>
      <point x="226" y="-8" type="curve" smooth="yes"/>
      <point x="244" y="-8" type="line" smooth="yes"/>
      <point x="317" y="-8"/>
      <point x="367" y="24"/>
      <point x="394" y="69" type="curve" smooth="yes"/>
      <point x="421" y="114"/>
      <point x="432" y="181"/>
      <point x="432" y="260" type="curve" smooth="yes"/>
      <point x="432" y="438"/>
      <point x="380" y="528"/>
      <point x="300" y="528" type="curve" smooth="yes"/>
      <point x="211" y="528"/>
      <point x="206" y="427"/>
      <point x="148" y="427" type="curve" smooth="yes"/>
      <point x="100" y="427"/>
      <point x="98" y="487"/>
    </contour>
  </outline>
</glyph>
<glyph name="ga_shn" format="2">
  <advance width="498"/>
  <unicode hex="1077"/>
  <note>
ga_shn
</note>
  <outline>
    <contour>
      <point x="246" y="528" type="line" smooth="yes"/>
      <point x="147" y="528"/>
      <point x="83" y="451"/>
      <point x="83" y="339" type="curve" smooth="yes"/>
      <point x="83" y="186"/>
      <point x="203" y="177"/>
      <point x="203" y="79" type="curve" smooth="yes"/>
      <point x="203" y="35"/>
      <point x="179" y="17"/>
      <point x="153" y="17" type="curve" smooth="yes"/>
      <point x="121" y="17"/>
      <point x="101" y="41"/>
      <point x="100" y="92" type="curve"/>
      <point x="80" y="92" type="line"/>
      <point x="78" y="26"/>
      <point x="114" y="-8"/>
      <point x="154" y="-8" type="curve" smooth="yes"/>
      <point x="188" y="-8"/>
      <point x="223" y="19"/>
      <point x="223" y="79" type="curve" smooth="yes"/>
      <point x="223" y="189"/>
      <point x="103" y="193"/>
      <point x="103" y="336" type="curve" smooth="yes"/>
      <point x="103" y="430"/>
      <point x="154" y="501"/>
      <point x="250" y="501" type="curve" smooth="yes"/>
      <point x="351" y="501"/>
      <point x="409" y="424"/>
      <point x="409" y="272" type="curve" smooth="yes"/>
      <point x="409" y="248" type="line" smooth="yes"/>
      <point x="410" y="148"/>
      <point x="375" y="19"/>
      <point x="326" y="19" type="curve" smooth="yes"/>
      <point x="291" y="19"/>
      <point x="285" y="81"/>
      <point x="285" y="144" type="curve" smooth="yes"/>
      <point x="285" y="280"/>
      <point x="333" y="379"/>
      <point x="392" y="409" type="curve"/>
      <point x="392" y="435" type="line"/>
      <point x="318" y="393"/>
      <point x="266" y="292"/>
      <point x="266" y="141" type="curve" smooth="yes"/>
      <point x="266" y="60"/>
      <point x="281" y="-8"/>
      <point x="324" y="-8" type="curve" smooth="yes"/>
      <point x="385" y="-8"/>
      <point x="429" y="132"/>
      <point x="429" y="260" type="curve" smooth="yes"/>
      <point x="429" y="339"/>
      <point x="418" y="406"/>
      <point x="391" y="451" type="curve" smooth="yes"/>
      <point x="364" y="496"/>
      <point x="315" y="528"/>
      <point x="256" y="528" type="curve" smooth="yes"/>
    </contour>
  </outline>
</glyph>
<glyph name="na_shn" format="2">
  <advance width="797"/>
  <unicode hex="107C"/>
  <note>
na_shn
</note>
  <outline>
    <contour>
      <point x="722" y="354" type="line"/>
      <point x="711" y="463"/>
      <point x="654" y="528"/>
      <point x="573" y="528" type="curve" smooth="yes"/>
      <point x="469" y="528"/>
      <point x="422" y="418"/>
      <point x="422" y="259" type="curve" smooth="yes"/>
      <point x="422" y="82"/>
      <point x="480" y="-8"/>
      <point x="583" y="-8" type="curve" smooth="yes"/>
      <point x="675" y="-8"/>
      <point x="701" y="62"/>
      <point x="701" y="120" type="curve" smooth="yes"/>
      <point x="701" y="180"/>
      <point x="673" y="227"/>
      <point x="607" y="246" type="curve" smooth="yes"/>
      <point x="562" y="259"/>
      <point x="476" y="266"/>
      <point x="400" y="266" type="curve" smooth="yes"/>
      <point x="324" y="266"/>
      <point x="238" y="259"/>
      <point x="193" y="246" type="curve" smooth="yes"/>
      <point x="127" y="227"/>
      <point x="99" y="180"/>
      <point x="99" y="120" type="curve" smooth="yes"/>
      <point x="99" y="62"/>
      <point x="125" y="-8"/>
      <point x="217" y="-8" type="curve" smooth="yes"/>
      <point x="320" y="-8"/>
      <point x="378" y="82"/>
      <point x="378" y="259" type="curve" smooth="yes"/>
      <point x="378" y="418"/>
      <point x="331" y="528"/>
      <point x="227" y="528" type="curve" smooth="yes"/>
      <point x="146" y="528"/>
      <point x="89" y="463"/>
      <point x="78" y="354" type="curve"/>
      <point x="98" y="354" type="line"/>
      <point x="109" y="447"/>
      <point x="158" y="500"/>
      <point x="226" y="500" type="curve" smooth="yes"/>
      <point x="311" y="500"/>
      <point x="358" y="416"/>
      <point x="358" y="270" type="curve" smooth="yes"/>
      <point x="358" y="250" type="line" smooth="yes"/>
      <point x="358" y="106"/>
      <point x="307" y="20"/>
      <point x="216" y="20" type="curve" smooth="yes"/>
      <point x="154" y="20"/>
      <point x="119" y="59"/>
      <point x="119" y="119" type="curve" smooth="yes"/>
      <point x="119" y="171"/>
      <point x="146" y="208"/>
      <point x="198" y="223" type="curve" smooth="yes"/>
      <point x="239" y="235"/>
      <point x="316" y="239"/>
      <point x="400" y="239" type="curve" smooth="yes"/>
      <point x="484" y="239"/>
      <point x="561" y="235"/>
      <point x="602" y="223" type="curve" smooth="yes"/>
      <point x="654" y="208"/>
      <point x="681" y="171"/>
      <point x="681" y="119" type="curve" smooth="yes"/>
      <point x="681" y="59"/>
      <point x="646" y="20"/>
      <point x="584" y="20" type="curve" smooth="yes"/>
      <point x="493" y="20"/>
      <point x="442" y="106"/>
      <point x="442" y="250" type="curve" smooth="yes"/>
      <point x="442" y="270" type="line" smooth="yes"/>
      <point x="442" y="416"/>
      <point x="489" y="500"/>
      <point x="574" y="500" type="curve" smooth="yes"/>
      <point x="642" y="500"/>
      <point x="691" y="447"/>
      <point x="702" y="354" type="curve"/>
    </contour>
  </outline>
</glyph>
<glyph name="tha_shn" format="2">
  <advance width="792"/>
  <unicode hex="1080"/>
  <note>
tha_shn
</note>
  <outline>
    <contour>
      <point x="75" y="354" type="curve"/>
      <point x="96" y="354" type="line"/>
      <point x="110" y="449"/>
      <point x="164" y="500"/>
      <point x="249" y="500" type="curve" smooth="yes"/>
      <point x="355" y="500"/>
      <point x="409" y="424"/>
      <point x="409" y="272" type="curve" smooth="yes"/>
      <point x="409" y="248" type="line" smooth="yes"/>
      <point x="409" y="96"/>
      <point x="354" y="20"/>
      <point x="240" y="20" type="curve" smooth="yes"/>
      <point x="229" y="20" type="line" smooth="yes"/>
      <point x="134" y="20"/>
      <point x="97" y="55"/>
      <point x="97" y="101" type="curve" smooth="yes"/>
      <point x="97" y="136"/>
      <point x="117" y="167"/>
      <point x="173" y="167" type="curve" smooth="yes"/>
      <point x="185" y="167" type="line" smooth="yes"/>
      <point x="219" y="167"/>
      <point x="272" y="157"/>
      <point x="272" y="81" type="curve" smooth="yes"/>
      <point x="272" y="-1" type="line"/>
      <point x="292" y="-1" type="line"/>
      <point x="292" y="88" type="line" smooth="yes"/>
      <point x="292" y="175"/>
      <point x="230" y="194"/>
      <point x="179" y="194" type="curve" smooth="yes"/>
      <point x="91" y="194"/>
      <point x="76" y="136"/>
      <point x="76" y="100" type="curve" smooth="yes"/>
      <point x="76" y="57"/>
      <point x="102" y="-8"/>
      <point x="223" y="-8" type="curve" smooth="yes"/>
      <point x="241" y="-8" type="line" smooth="yes"/>
      <point x="314" y="-8"/>
      <point x="364" y="24"/>
      <point x="391" y="69" type="curve" smooth="yes"/>
      <point x="418" y="114"/>
      <point x="429" y="181"/>
      <point x="429" y="260" type="curve" smooth="yes"/>
      <point x="429" y="339"/>
      <point x="418" y="406"/>
      <point x="391" y="451" type="curve" smooth="yes"/>
      <point x="364" y="496"/>
      <point x="315" y="528"/>
      <point x="256" y="528" type="curve" smooth="yes"/>
      <point x="242" y="528" type="line" smooth="yes"/>
      <point x="156" y="528"/>
      <point x="91" y="465"/>
    </contour>
    <contour>
      <point x="391" y="88" type="line"/>
      <point x="416" y="30"/>
      <point x="473" y="-8"/>
      <point x="536" y="-8" type="curve" smooth="yes"/>
      <point x="550" y="-8" type="line" smooth="yes"/>
      <point x="609" y="-8"/>
      <point x="658" y="24"/>
      <point x="685" y="69" type="curve" smooth="yes"/>
      <point x="712" y="114"/>
      <point x="723" y="181"/>
      <point x="723" y="260" type="curve" smooth="yes"/>
      <point x="723" y="339"/>
      <point x="712" y="406"/>
      <point x="685" y="451" type="curve" smooth="yes"/>
      <point x="658" y="496"/>
      <point x="609" y="528"/>
      <point x="546" y="528" type="curve" smooth="yes"/>
      <point x="531" y="528"/>
      <point x="514" y="527"/>
      <point x="501" y="524" type="curve"/>
      <point x="501" y="500" type="line"/>
      <point x="543" y="500" type="line" smooth="yes"/>
      <point x="649" y="500"/>
      <point x="703" y="424"/>
      <point x="703" y="272" type="curve" smooth="yes"/>
      <point x="703" y="248" type="line" smooth="yes"/>
      <point x="703" y="96"/>
      <point x="649" y="20"/>
      <point x="543" y="20" type="curve" smooth="yes"/>
      <point x="475" y="20"/>
      <point x="429" y="51"/>
      <point x="404" y="113" type="curve"/>
    </contour>
  </outline>
</glyph>
<glyph name="ha_shn" format="2">
  <advance width="498"/>
  <unicode hex="1081"/>
  <outline>
    <contour>
      <point x="423" y="170" type="line"/>
      <point x="427" y="198"/>
      <point x="429" y="228"/>
      <point x="429" y="260" type="curve" smooth="yes"/>
      <point x="429" y="339"/>
      <point x="418" y="406"/>
      <point x="391" y="451" type="curve" smooth="yes"/>
      <point x="364" y="496"/>
      <point x="315" y="528"/>
      <point x="256" y="528" type="curve" smooth="yes"/>
      <point x="242" y="528" type="line" smooth="yes"/>
      <point x="183" y="528"/>
      <point x="134" y="496"/>
      <point x="107" y="451" type="curve" smooth="yes"/>
      <point x="80" y="406"/>
      <point x="69" y="339"/>
      <point x="69" y="260" type="curve" smooth="yes"/>
      <point x="69" y="181"/>
      <point x="80" y="114"/>
      <point x="107" y="69" type="curve" smooth="yes"/>
      <point x="133" y="26"/>
      <point x="165" y="-8"/>
      <point x="215" y="-8" type="curve" smooth="yes"/>
      <point x="243" y="-8"/>
      <point x="264" y="3"/>
      <point x="279" y="22" type="curve"/>
      <point x="267" y="22" type="line"/>
      <point x="170" y="-370" type="line" smooth="yes"/>
      <point x="142" y="-483"/>
      <point x="112" y="-501"/>
      <point x="74" y="-501" type="curve" smooth="yes"/>
      <point x="58" y="-501"/>
      <point x="43" y="-498"/>
      <point x="33" y="-493" type="curve"/>
      <point x="25" y="-519" type="line"/>
      <point x="32" y="-523"/>
      <point x="48" y="-529"/>
      <point x="73" y="-529" type="curve" smooth="yes"/>
      <point x="121" y="-529"/>
      <point x="162" y="-496"/>
      <point x="190" y="-383" type="curve" smooth="yes"/>
      <point x="290" y="27" type="line" smooth="yes"/>
      <point x="298" y="58"/>
      <point x="303" y="85"/>
      <point x="303" y="101" type="curve" smooth="yes"/>
      <point x="303" y="163"/>
      <point x="272" y="210"/>
      <point x="213" y="210" type="curve" smooth="yes"/>
      <point x="154" y="210"/>
      <point x="123" y="163"/>
      <point x="123" y="101" type="curve" smooth="yes"/>
      <point x="123" y="39"/>
      <point x="154" y="2"/>
      <point x="213" y="2" type="curve"/>
      <point x="213" y="14" type="line"/>
      <point x="139" y="14"/>
      <point x="89" y="112"/>
      <point x="89" y="260" type="curve" smooth="yes"/>
      <point x="89" y="424"/>
      <point x="143" y="500"/>
      <point x="249" y="500" type="curve" smooth="yes"/>
      <point x="355" y="500"/>
      <point x="409" y="424"/>
      <point x="409" y="260" type="curve" smooth="yes"/>
      <point x="409" y="219"/>
      <point x="407" y="193"/>
      <point x="403" y="170" type="curve"/>
    </contour>
    <contour>
      <point x="213" y="18" type="curve" smooth="yes"/>
      <point x="165" y="18"/>
      <point x="141" y="54"/>
      <point x="141" y="101" type="curve" smooth="yes"/>
      <point x="141" y="148"/>
      <point x="165" y="184"/>
      <point x="213" y="184" type="curve" smooth="yes"/>
      <point x="261" y="184"/>
      <point x="285" y="148"/>
      <point x="285" y="101" type="curve" smooth="yes"/>
      <point x="285" y="54"/>
      <point x="261" y="18"/>
    </contour>
  </outline>
</glyph>
<glyph name="aa_shn" format="2">
  <advance width="261"/>
  <unicode hex="1083"/>
  <outline>
    <contour>
      <point x="187" y="367" type="line" smooth="yes"/>
      <point x="187" y="475"/>
      <point x="161" y="528"/>
      <point x="76" y="528" type="curve" smooth="yes"/>
      <point x="47" y="528"/>
      <point x="25" y="523"/>
      <point x="6" y="514" type="curve"/>
      <point x="7" y="487" type="line"/>
      <point x="24" y="496"/>
      <point x="49" y="500"/>
      <point x="76" y="500" type="curve" smooth="yes"/>
      <point x="143" y="500"/>
      <point x="165" y="463"/>
      <point x="165" y="361" type="curve" smooth="yes"/>
      <point x="165" y="-389" type="line" smooth="yes"/>
      <point x="165" y="-495"/>
      <point x="196" y="-529"/>
      <point x="252" y="-529" type="curve" smooth="yes"/>
      <point x="265" y="-529"/>
      <point x="273" y="-527"/>
      <point x="284" y="-524" type="curve"/>
      <point x="284" y="-497" type="line"/>
      <point x="273" y="-500"/>
      <point x="260" y="-501"/>
      <point x="252" y="-501" type="curve" smooth="yes"/>
      <point x="210" y="-501"/>
      <point x="187" y="-482"/>
      <point x="187" y="-376" type="curve" smooth="yes"/>
    </contour>
  </outline>
</glyph>
<glyph name="_final_y_shn" format="2">
  <unicode hex="1086"/>
  <note>
Renamed from _f_above_shn
</note>
  <outline>
    <contour>
      <point x="-172" y="884" type="curve"/>
      <point x="-183" y="884" type="line"/>
      <point x="-198" y="797"/>
      <point x="-248" y="702"/>
      <point x="-329" y="622" type="curve"/>
      <point x="-314" y="604" type="line"/>
      <point x="-218" y="698"/>
      <point x="-159" y="822"/>
      <point x="-159" y="933" type="curve" smooth="yes"/>
      <point x="-159" y="1002"/>
      <point x="-190" y="1049"/>
      <point x="-249" y="1049" type="curve" smooth="yes"/>
      <point x="-308" y="1049"/>
      <point x="-339" y="1002"/>
      <point x="-339" y="940" type="curve" smooth="yes"/>
      <point x="-339" y="878"/>
      <point x="-308" y="831"/>
      <point x="-249" y="831" type="curve" smooth="yes"/>
      <point x="-211" y="831"/>
      <point x="-185" y="852"/>
    </contour>
    <contour>
      <point x="-249" y="857" type="curve" smooth="yes"/>
      <point x="-298" y="857"/>
      <point x="-321" y="893"/>
      <point x="-321" y="940" type="curve" smooth="yes"/>
      <point x="-321" y="987"/>
      <point x="-298" y="1023"/>
      <point x="-249" y="1023" type="curve" smooth="yes"/>
      <point x="-200" y="1023"/>
      <point x="-177" y="987"/>
      <point x="-177" y="940" type="curve" smooth="yes"/>
      <point x="-177" y="893"/>
      <point x="-200" y="857"/>
    </contour>
  </outline>
</glyph>
<glyph name="tone2_shn" format="2">
  <advance width="300"/>
  <unicode hex="1087"/>
  <outline>
    <contour>
      <point x="103" y="-187" type="line"/>
      <point x="204" y="-108"/>
      <point x="240" y="-19"/>
      <point x="240" y="82" type="curve" smooth="yes"/>
      <point x="240" y="167"/>
      <point x="209" y="210"/>
      <point x="150" y="210" type="curve" smooth="yes"/>
      <point x="91" y="210"/>
      <point x="60" y="163"/>
      <point x="60" y="101" type="curve" smooth="yes"/>
      <point x="60" y="39"/>
      <point x="91" y="-8"/>
      <point x="150" y="-8" type="curve" smooth="yes"/>
      <point x="192" y="-8"/>
      <point x="219" y="16"/>
      <point x="232" y="51" type="curve"/>
      <point x="223" y="54" type="line"/>
      <point x="216" y="-8"/>
      <point x="192" y="-93"/>
      <point x="91" y="-172" type="curve"/>
    </contour>
    <contour>
      <point x="150" y="18" type="curve" smooth="yes"/>
      <point x="100" y="18"/>
      <point x="78" y="54"/>
      <point x="78" y="101" type="curve" smooth="yes"/>
      <point x="78" y="148"/>
      <point x="100" y="184"/>
      <point x="150" y="184" type="curve" smooth="yes"/>
      <point x="200" y="184"/>
      <point x="222" y="148"/>
      <point x="222" y="101" type="curve" smooth="yes"/>
      <point x="222" y="54"/>
      <point x="200" y="18"/>
    </contour>
  </outline>
</glyph>
<glyph name="tone6_shn" format="2">
  <advance width="404"/>
  <unicode hex="108A"/>
  <outline>
    <contour>
      <point x="195" y="333" type="curve"/>
      <point x="202" y="329" type="line"/>
      <point x="227" y="345"/>
      <point x="240" y="378"/>
      <point x="240" y="419" type="curve" smooth="yes"/>
      <point x="240" y="481"/>
      <point x="209" y="528"/>
      <point x="150" y="528" type="curve" smooth="yes"/>
      <point x="91" y="528"/>
      <point x="60" y="481"/>
      <point x="60" y="419" type="curve" smooth="yes"/>
      <point x="60" y="360"/>
      <point x="85" y="310"/>
      <point x="168" y="310" type="curve" smooth="yes"/>
      <point x="253" y="310"/>
      <point x="331" y="367"/>
      <point x="376" y="468" type="curve"/>
      <point x="361" y="478" type="line"/>
      <point x="315" y="379"/>
      <point x="251" y="341"/>
    </contour>
    <contour>
      <point x="150" y="336" type="curve" smooth="yes"/>
      <point x="100" y="336"/>
      <point x="78" y="372"/>
      <point x="78" y="419" type="curve" smooth="yes"/>
      <point x="78" y="466"/>
      <point x="100" y="502"/>
      <point x="150" y="502" type="curve" smooth="yes"/>
      <point x="199" y="502"/>
      <point x="222" y="466"/>
      <point x="222" y="419" type="curve" smooth="yes"/>
      <point x="222" y="372"/>
      <point x="199" y="336"/>
    </contour>
    <contour>
      <point x="195" y="15" type="curve"/>
      <point x="202" y="11" type="line"/>
      <point x="227" y="27"/>
      <point x="240" y="60"/>
      <point x="240" y="102" type="curve" smooth="yes"/>
      <point x="240" y="163"/>
      <point x="209" y="210"/>
      <point x="150" y="210" type="curve" smooth="yes"/>
      <point x="91" y="210"/>
      <point x="60" y="163"/>
      <point x="60" y="100" type="curve" smooth="yes"/>
      <point x="60" y="42"/>
      <point x="85" y="-8"/>
      <point x="168" y="-8" type="curve" smooth="yes"/>
      <point x="253" y="-8"/>
      <point x="331" y="49"/>
      <point x="376" y="150" type="curve"/>
      <point x="361" y="160" type="line"/>
      <point x="315" y="61"/>
      <point x="251" y="23"/>
    </contour>
    <contour>
      <point x="150" y="18" type="curve" smooth="yes"/>
      <point x="100" y="18"/>
      <point x="78" y="54"/>
      <point x="78" y="100" type="curve" smooth="yes"/>
      <point x="78" y="148"/>
      <point x="100" y="184"/>
      <point x="150" y="184" type="curve" smooth="yes"/>
      <point x="199" y="184"/>
      <point x="222" y="148"/>
      <point x="222" y="102" type="curve" smooth="yes"/>
      <point x="222" y="54"/>
      <point x="199" y="18"/>
    </contour>
  </outline>
</glyph>
<glyph name="zero_shn" format="2">
  <advance width="508"/>
  <unicode hex="1090"/>
  <outline>
    <contour>
      <point x="434" y="277" type="line" smooth="yes"/>
      <point x="434" y="348"/>
      <point x="423" y="407"/>
      <point x="398" y="448" type="curve" smooth="yes"/>
      <point x="369" y="497"/>
      <point x="321" y="528"/>
      <point x="258" y="528" type="curve" smooth="yes"/>
      <point x="250" y="528" type="line" smooth="yes"/>
      <point x="187" y="528"/>
      <point x="139" y="497"/>
      <point x="110" y="448" type="curve" smooth="yes"/>
      <point x="85" y="407"/>
      <point x="74" y="348"/>
      <point x="74" y="277" type="curve" smooth="yes"/>
      <point x="74" y="-178" type="line" smooth="yes"/>
      <point x="74" y="-249"/>
      <point x="85" y="-308"/>
      <point x="110" y="-349" type="curve" smooth="yes"/>
      <point x="139" y="-398"/>
      <point x="187" y="-429"/>
      <point x="250" y="-429" type="curve" smooth="yes"/>
      <point x="258" y="-429" type="line" smooth="yes"/>
      <point x="321" y="-429"/>
      <point x="369" y="-398"/>
      <point x="398" y="-349" type="curve" smooth="yes"/>
      <point x="423" y="-308"/>
      <point x="434" y="-249"/>
      <point x="434" y="-178" type="curve" smooth="yes"/>
    </contour>
    <contour>
      <point x="413" y="282" type="curve" smooth="yes"/>
      <point x="413" y="-183" type="line" smooth="yes"/>
      <point x="413" y="-326"/>
      <point x="358" y="-401"/>
      <point x="254" y="-401" type="curve" smooth="yes"/>
      <point x="150" y="-401"/>
      <point x="95" y="-326"/>
      <point x="95" y="-183" type="curve" smooth="yes"/>
      <point x="95" y="282" type="line" smooth="yes"/>
      <point x="95" y="425"/>
      <point x="150" y="500"/>
      <point x="254" y="500" type="curve" smooth="yes"/>
      <point x="358" y="500"/>
      <point x="413" y="425"/>
    </contour>
  </outline>
</glyph>
<glyph name="one_shn" format="2">
  <advance width="306"/>
  <unicode hex="1091"/>
  <outline>
    <contour>
      <point x="173" y="520" type="line"/>
      <point x="156" y="520" type="line"/>
      <point x="50" y="425" type="line"/>
      <point x="50" y="395" type="line"/>
      <point x="151" y="486" type="line"/>
      <point x="151" y="-248" type="line" smooth="yes"/>
      <point x="151" y="-395"/>
      <point x="196" y="-429"/>
      <point x="253" y="-429" type="curve" smooth="yes"/>
      <point x="258" y="-429"/>
      <point x="268" y="-429"/>
      <point x="278" y="-428" type="curve"/>
      <point x="278" y="-401" type="line"/>
      <point x="258" y="-401" type="line" smooth="yes"/>
      <point x="208" y="-401"/>
      <point x="173" y="-384"/>
      <point x="173" y="-242" type="curve" smooth="yes"/>
    </contour>
  </outline>
</glyph>
<glyph name="two_shn" format="2">
  <advance width="477"/>
  <unicode hex="1092"/>
  <outline>
    <contour>
      <point x="88" y="528" type="curve"/>
      <point x="68" y="528" type="line"/>
      <point x="62" y="513"/>
      <point x="60" y="497"/>
      <point x="60" y="482" type="curve" smooth="yes"/>
      <point x="60" y="427"/>
      <point x="85" y="400"/>
      <point x="122" y="400" type="curve" smooth="yes"/>
      <point x="194" y="400"/>
      <point x="203" y="500"/>
      <point x="285" y="500" type="curve" smooth="yes"/>
      <point x="355" y="500"/>
      <point x="386" y="427"/>
      <point x="386" y="327" type="curve" smooth="yes"/>
      <point x="386" y="2"/>
      <point x="59" y="2"/>
      <point x="59" y="-290" type="curve" smooth="yes"/>
      <point x="59" y="-344"/>
      <point x="70" y="-391"/>
      <point x="84" y="-420" type="curve"/>
      <point x="108" y="-420" type="line"/>
      <point x="109" y="-417" type="line"/>
      <point x="91" y="-380"/>
      <point x="81" y="-338"/>
      <point x="81" y="-290" type="curve" smooth="yes"/>
      <point x="81" y="-15"/>
      <point x="408" y="-11"/>
      <point x="408" y="325" type="curve" smooth="yes"/>
      <point x="408" y="441"/>
      <point x="369" y="528"/>
      <point x="286" y="528" type="curve" smooth="yes"/>
      <point x="195" y="528"/>
      <point x="187" y="425"/>
      <point x="126" y="425" type="curve" smooth="yes"/>
      <point x="98" y="425"/>
      <point x="81" y="446"/>
      <point x="81" y="485" type="curve" smooth="yes"/>
      <point x="81" y="499"/>
      <point x="83" y="513"/>
    </contour>
  </outline>
</glyph>
<glyph name="three_shn" format="2">
  <advance width="406"/>
  <unicode hex="1093"/>
  <outline>
    <contour>
      <point x="268" y="520" type="line"/>
      <point x="109" y="520" type="line"/>
      <point x="109" y="492" type="line"/>
      <point x="243" y="492" type="line"/>
      <point x="39" y="-421" type="line"/>
      <point x="59" y="-421" type="line"/>
      <point x="269" y="515" type="line"/>
    </contour>
    <contour>
      <point x="158" y="58" type="line"/>
      <point x="149" y="30" type="line"/>
      <point x="195" y="30" type="line" smooth="yes"/>
      <point x="262" y="30"/>
      <point x="278" y="-2"/>
      <point x="297" y="-111" type="curve" smooth="yes"/>
      <point x="319" y="-231"/>
      <point x="327" y="-297"/>
      <point x="340" y="-421" type="curve"/>
      <point x="362" y="-421" type="line"/>
      <point x="349" y="-312"/>
      <point x="335" y="-192"/>
      <point x="317" y="-106" type="curve" smooth="yes"/>
      <point x="291" y="14"/>
      <point x="274" y="58"/>
      <point x="201" y="58" type="curve" smooth="yes"/>
    </contour>
  </outline>
</glyph>
<glyph name="four_shn" format="2">
  <advance width="508"/>
  <unicode hex="1094"/>
  <outline>
    <contour>
      <point x="271" y="520" type="line"/>
      <point x="112" y="520" type="line"/>
      <point x="112" y="492" type="line"/>
      <point x="236" y="492" type="line"/>
      <point x="100" y="-329" type="line" smooth="yes"/>
      <point x="89" y="-397"/>
      <point x="69" y="-402"/>
      <point x="36" y="-402" type="curve" smooth="yes"/>
      <point x="32" y="-402"/>
      <point x="29" y="-402"/>
      <point x="24" y="-400" type="curve"/>
      <point x="16" y="-426" type="line"/>
      <point x="23" y="-429"/>
      <point x="30" y="-430"/>
      <point x="38" y="-430" type="curve" smooth="yes"/>
      <point x="80" y="-430"/>
      <point x="107" y="-414"/>
      <point x="119" y="-339" type="curve" smooth="yes"/>
      <point x="258" y="502" type="line"/>
      <point x="253" y="502" type="line"/>
      <point x="392" y="-339" type="line" smooth="yes"/>
      <point x="404" y="-414"/>
      <point x="432" y="-430"/>
      <point x="474" y="-430" type="curve" smooth="yes"/>
      <point x="482" y="-430"/>
      <point x="490" y="-429"/>
      <point x="496" y="-426" type="curve"/>
      <point x="489" y="-400" type="line"/>
      <point x="484" y="-402"/>
      <point x="480" y="-402"/>
      <point x="476" y="-402" type="curve" smooth="yes"/>
      <point x="444" y="-402"/>
      <point x="423" y="-397"/>
      <point x="412" y="-329" type="curve" smooth="yes"/>
    </contour>
  </outline>
</glyph>
<glyph name="six_shn" format="2">
  <advance width="483"/>
  <unicode hex="1096"/>
  <outline>
    <contour>
      <point x="465" y="28" type="line"/>
      <point x="249" y="28" type="line" smooth="yes"/>
      <point x="143" y="28"/>
      <point x="89" y="101"/>
      <point x="89" y="248" type="curve" smooth="yes"/>
      <point x="89" y="272" type="line" smooth="yes"/>
      <point x="89" y="424"/>
      <point x="143" y="500"/>
      <point x="249" y="500" type="curve" smooth="yes"/>
      <point x="348" y="500"/>
      <point x="398" y="424"/>
      <point x="398" y="272" type="curve" smooth="yes"/>
      <point x="398" y="250" type="line" smooth="yes"/>
      <point x="398" y="72"/>
      <point x="347" y="-193"/>
      <point x="293" y="-420" type="curve"/>
      <point x="318" y="-420" type="line"/>
      <point x="369" y="-198"/>
      <point x="418" y="79"/>
      <point x="418" y="260" type="curve" smooth="yes"/>
      <point x="418" y="409"/>
      <point x="377" y="528"/>
      <point x="256" y="528" type="curve" smooth="yes"/>
      <point x="242" y="528" type="line" smooth="yes"/>
      <point x="183" y="528"/>
      <point x="134" y="496"/>
      <point x="107" y="451" type="curve" smooth="yes"/>
      <point x="80" y="406"/>
      <point x="69" y="339"/>
      <point x="69" y="260" type="curve" smooth="yes"/>
      <point x="69" y="115"/>
      <point x="113" y="0"/>
      <point x="242" y="0" type="curve" smooth="yes"/>
      <point x="465" y="0" type="line"/>
    </contour>
  </outline>
</glyph>
<glyph name="seven_shn" format="2">
  <advance width="459"/>
  <unicode hex="1097"/>
  <outline>
    <contour>
      <point x="435" y="459" type="line"/>
      <point x="405" y="500"/>
      <point x="346" y="530"/>
      <point x="260" y="530" type="curve" smooth="yes"/>
      <point x="232" y="530" type="line" smooth="yes"/>
      <point x="99" y="530"/>
      <point x="50" y="475"/>
      <point x="50" y="373" type="curve" smooth="yes"/>
      <point x="50" y="371"/>
      <point x="50" y="369"/>
      <point x="50" y="367" type="curve"/>
      <point x="70" y="367" type="line"/>
      <point x="70" y="460"/>
      <point x="115" y="502"/>
      <point x="243" y="502" type="curve" smooth="yes"/>
      <point x="324" y="502"/>
      <point x="375" y="485"/>
      <point x="408" y="452" type="curve"/>
      <point x="43" y="-395" type="line"/>
      <point x="75" y="-420"/>
      <point x="132" y="-429"/>
      <point x="186" y="-429" type="curve" smooth="yes"/>
      <point x="316" y="-429"/>
      <point x="358" y="-378"/>
      <point x="358" y="-275" type="curve" smooth="yes"/>
      <point x="358" y="-271"/>
      <point x="358" y="-268"/>
      <point x="358" y="-264" type="curve"/>
      <point x="338" y="-264" type="line"/>
      <point x="338" y="-359"/>
      <point x="300" y="-401"/>
      <point x="182" y="-401" type="curve" smooth="yes"/>
      <point x="145" y="-401"/>
      <point x="101" y="-397"/>
      <point x="73" y="-383" type="curve"/>
    </contour>
  </outline>
</glyph>
<glyph name="eight_shn" format="2">
  <advance width="474"/>
  <unicode hex="1098"/>
  <outline>
    <contour>
      <point x="74" y="379" type="curve" smooth="yes"/>
      <point x="74" y="75"/>
      <point x="384" y="56"/>
      <point x="384" y="-211" type="curve" smooth="yes"/>
      <point x="384" y="-305"/>
      <point x="344" y="-401"/>
      <point x="239" y="-401" type="curve" smooth="yes"/>
      <point x="235" y="-401" type="line" smooth="yes"/>
      <point x="130" y="-401"/>
      <point x="90" y="-305"/>
      <point x="90" y="-211" type="curve" smooth="yes"/>
      <point x="90" y="56"/>
      <point x="400" y="75"/>
      <point x="400" y="379" type="curve" smooth="yes"/>
      <point x="400" y="441"/>
      <point x="386" y="489"/>
      <point x="369" y="520" type="curve"/>
      <point x="346" y="520" type="line"/>
      <point x="345" y="517" type="line"/>
      <point x="363" y="486"/>
      <point x="379" y="443"/>
      <point x="379" y="381" type="curve" smooth="yes"/>
      <point x="379" y="87"/>
      <point x="69" y="66"/>
      <point x="69" y="-212" type="curve" smooth="yes"/>
      <point x="69" y="-324"/>
      <point x="119" y="-429"/>
      <point x="231" y="-429" type="curve" smooth="yes"/>
      <point x="243" y="-429" type="line" smooth="yes"/>
      <point x="355" y="-429"/>
      <point x="405" y="-324"/>
      <point x="405" y="-212" type="curve" smooth="yes"/>
      <point x="405" y="66"/>
      <point x="95" y="87"/>
      <point x="95" y="381" type="curve" smooth="yes"/>
      <point x="95" y="443"/>
      <point x="111" y="486"/>
      <point x="129" y="517" type="curve"/>
      <point x="128" y="520" type="line"/>
      <point x="105" y="520" type="line"/>
      <point x="88" y="489"/>
      <point x="74" y="441"/>
    </contour>
  </outline>
</glyph>
<glyph name="tone1_khm" format="2">
  <advance width="280"/>
  <unicode hex="109A"/>
  <outline>
    <contour>
      <point x="140" y="340" type="curve" smooth="yes"/>
      <point x="190" y="340"/>
      <point x="220" y="378"/>
      <point x="220" y="433" type="curve" smooth="yes"/>
      <point x="220" y="490"/>
      <point x="190" y="528"/>
      <point x="140" y="528" type="curve" smooth="yes"/>
      <point x="90" y="528"/>
      <point x="60" y="490"/>
      <point x="60" y="433" type="curve" smooth="yes"/>
      <point x="60" y="378"/>
      <point x="90" y="340"/>
    </contour>
  </outline>
</glyph>
<glyph name="_a_atn" format="2">
  <advance width="336"/>
  <unicode hex="109C"/>
  <outline>
    <contour>
      <point x="291" y="421" type="line"/>
      <point x="247" y="474"/>
      <point x="201" y="500"/>
      <point x="153" y="500" type="curve" smooth="yes"/>
      <point x="92" y="500"/>
      <point x="60" y="457"/>
      <point x="60" y="401" type="curve" smooth="yes"/>
      <point x="60" y="353"/>
      <point x="87" y="321"/>
      <point x="121" y="321" type="curve" smooth="yes"/>
      <point x="159" y="321"/>
      <point x="182" y="355"/>
      <point x="182" y="401" type="curve" smooth="yes"/>
      <point x="182" y="447"/>
      <point x="153" y="472"/>
      <point x="123" y="472" type="curve" smooth="yes"/>
      <point x="109" y="472"/>
      <point x="95" y="468"/>
      <point x="88" y="459" type="curve"/>
      <point x="96" y="460" type="line"/>
      <point x="109" y="467"/>
      <point x="122" y="472"/>
      <point x="153" y="472" type="curve" smooth="yes"/>
      <point x="188" y="472"/>
      <point x="230" y="461"/>
      <point x="278" y="404" type="curve"/>
    </contour>
    <contour>
      <point x="291" y="120" type="line"/>
      <point x="247" y="173"/>
      <point x="201" y="199"/>
      <point x="153" y="199" type="curve" smooth="yes"/>
      <point x="92" y="199"/>
      <point x="60" y="156"/>
      <point x="60" y="100" type="curve" smooth="yes"/>
      <point x="60" y="52"/>
      <point x="87" y="20"/>
      <point x="121" y="20" type="curve" smooth="yes"/>
      <point x="159" y="20"/>
      <point x="182" y="54"/>
      <point x="182" y="100" type="curve" smooth="yes"/>
      <point x="182" y="146"/>
      <point x="153" y="171"/>
      <point x="123" y="171" type="curve" smooth="yes"/>
      <point x="109" y="171"/>
      <point x="95" y="167"/>
      <point x="88" y="158" type="curve"/>
      <point x="96" y="159" type="line"/>
      <point x="109" y="166"/>
      <point x="122" y="171"/>
      <point x="153" y="171" type="curve" smooth="yes"/>
      <point x="188" y="171"/>
      <point x="230" y="160"/>
      <point x="278" y="103" type="curve"/>
    </contour>
  </outline>
</glyph>
<glyph name="_ai_phk" format="2">
  <unicode hex="109D"/>
  <outline>
    <contour>
      <point x="-198" y="817" type="curve"/>
      <point x="-209" y="843" type="line"/>
      <point x="-209" y="786"/>
      <point x="-235" y="764"/>
      <point x="-273" y="764" type="curve" smooth="yes"/>
      <point x="-329" y="764"/>
      <point x="-365" y="811"/>
      <point x="-365" y="882" type="curve" smooth="yes"/>
      <point x="-365" y="967"/>
      <point x="-313" y="1021"/>
      <point x="-234" y="1021" type="curve" smooth="yes"/>
      <point x="-143" y="1021"/>
      <point x="-97" y="953"/>
      <point x="-97" y="840" type="curve" smooth="yes"/>
      <point x="-97" y="756"/>
      <point x="-121" y="631"/>
      <point x="-168" y="498" type="curve"/>
      <point x="-149" y="485" type="line"/>
      <point x="-99" y="633"/>
      <point x="-76" y="751"/>
      <point x="-76" y="838" type="curve" smooth="yes"/>
      <point x="-76" y="967"/>
      <point x="-130" y="1049"/>
      <point x="-233" y="1049" type="curve" smooth="yes"/>
      <point x="-325" y="1049"/>
      <point x="-386" y="981"/>
      <point x="-386" y="881" type="curve" smooth="yes"/>
      <point x="-386" y="796"/>
      <point x="-341" y="739"/>
      <point x="-275" y="739" type="curve" smooth="yes"/>
      <point x="-224" y="739"/>
      <point x="-189" y="772"/>
      <point x="-189" y="836" type="curve" smooth="yes"/>
      <point x="-189" y="892"/>
      <point x="-216" y="917"/>
      <point x="-251" y="917" type="curve" smooth="yes"/>
      <point x="-289" y="917"/>
      <point x="-313" y="889"/>
      <point x="-313" y="849" type="curve" smooth="yes"/>
      <point x="-313" y="808"/>
      <point x="-288" y="781"/>
      <point x="-251" y="781" type="curve" smooth="yes"/>
      <point x="-225" y="781"/>
      <point x="-206" y="795"/>
    </contour>
  </outline>
</glyph>
<glyph name="exclam_shn" format="2">
  <advance width="674"/>
  <unicode hex="109F"/>
  <outline>
    <contour>
      <point x="600" y="10" type="line"/>
      <point x="578" y="10" type="line"/>
      <point x="578" y="-412" type="line" smooth="yes"/>
      <point x="578" y="-470"/>
      <point x="554" y="-502"/>
      <point x="504" y="-502" type="curve" smooth="yes"/>
      <point x="453" y="-502"/>
      <point x="430" y="-470"/>
      <point x="430" y="-411" type="curve" smooth="yes"/>
      <point x="430" y="261" type="line" smooth="yes"/>
      <point x="430" y="339"/>
      <point x="418" y="406"/>
      <point x="391" y="451" type="curve" smooth="yes"/>
      <point x="364" y="496"/>
      <point x="315" y="528"/>
      <point x="256" y="528" type="curve" smooth="yes"/>
      <point x="242" y="528" type="line" smooth="yes"/>
      <point x="183" y="528"/>
      <point x="134" y="496"/>
      <point x="107" y="451" type="curve" smooth="yes"/>
      <point x="80" y="406"/>
      <point x="69" y="339"/>
      <point x="69" y="260" type="curve" smooth="yes"/>
      <point x="69" y="183"/>
      <point x="80" y="121"/>
      <point x="107" y="72" type="curve" smooth="yes"/>
      <point x="132" y="27"/>
      <point x="172" y="-8"/>
      <point x="230" y="-8" type="curve"/>
      <point x="283" y="-8"/>
      <point x="310" y="38"/>
      <point x="310" y="100" type="curve"/>
      <point x="303" y="38"/>
      <point x="269" y="16"/>
      <point x="224" y="16" type="curve" smooth="yes"/>
      <point x="139" y="16"/>
      <point x="89" y="115"/>
      <point x="89" y="252" type="curve" smooth="yes"/>
      <point x="89" y="272" type="line" smooth="yes"/>
      <point x="89" y="424"/>
      <point x="143" y="500"/>
      <point x="249" y="500" type="curve" smooth="yes"/>
      <point x="354" y="500"/>
      <point x="408" y="424"/>
      <point x="408" y="272" type="curve" smooth="yes"/>
      <point x="408" y="-415" type="line" smooth="yes"/>
      <point x="408" y="-492"/>
      <point x="443" y="-530"/>
      <point x="498" y="-530" type="curve" smooth="yes"/>
      <point x="509" y="-530" type="line" smooth="yes"/>
      <point x="562" y="-530"/>
      <point x="600" y="-493"/>
      <point x="600" y="-411" type="curve" smooth="yes"/>
    </contour>
    <contour>
      <point x="230" y="-8" type="curve" smooth="yes"/>
      <point x="282" y="-8"/>
      <point x="310" y="38"/>
      <point x="310" y="100" type="curve" smooth="yes"/>
      <point x="310" y="161"/>
      <point x="282" y="208"/>
      <point x="230" y="208" type="curve" smooth="yes"/>
      <point x="177" y="208"/>
      <point x="149" y="161"/>
      <point x="149" y="100" type="curve" smooth="yes"/>
      <point x="149" y="38"/>
      <point x="177" y="-8"/>
    </contour>
    <contour>
      <point x="230" y="17" type="curve" smooth="yes"/>
      <point x="187" y="17"/>
      <point x="167" y="53"/>
      <point x="167" y="100" type="curve" smooth="yes"/>
      <point x="167" y="147"/>
      <point x="187" y="183"/>
      <point x="230" y="183" type="curve" smooth="yes"/>
      <point x="273" y="183"/>
      <point x="292" y="147"/>
      <point x="292" y="100" type="curve" smooth="yes"/>
      <point x="292" y="53"/>
      <point x="273" y="17"/>
    </contour>
    <component base="asatstem" xOffset="504"/>
  </outline>
</glyph>
<glyph name="quoteright" format="2">
  <advance width="300"/>
  <unicode hex="2019"/>
  <outline>
    <contour>
      <point x="240" y="840" type="curve"/>
      <point x="209" y="770" type="line"/>
      <point x="192" y="694"/>
      <point x="154" y="630"/>
      <point x="87" y="571" type="curve"/>
      <point x="100" y="557" type="line"/>
      <point x="163" y="609"/>
      <point x="240" y="713"/>
    </contour>
    <contour>
      <point x="150" y="731" type="curve" smooth="yes"/>
      <point x="209" y="731"/>
      <point x="240" y="778"/>
      <point x="240" y="840" type="curve" smooth="yes"/>
      <point x="240" y="902"/>
      <point x="209" y="949"/>
      <point x="150" y="949" type="curve" smooth="yes"/>
      <point x="91" y="949"/>
      <point x="60" y="902"/>
      <point x="60" y="840" type="curve" smooth="yes"/>
      <point x="60" y="778"/>
      <point x="91" y="731"/>
    </contour>
    <contour>
      <point x="150" y="757" type="curve" smooth="yes"/>
      <point x="102" y="757"/>
      <point x="78" y="793"/>
      <point x="78" y="840" type="curve" smooth="yes"/>
      <point x="78" y="887"/>
      <point x="102" y="923"/>
      <point x="150" y="923" type="curve" smooth="yes"/>
      <point x="198" y="923"/>
      <point x="222" y="887"/>
      <point x="222" y="840" type="curve" smooth="yes"/>
      <point x="222" y="793"/>
      <point x="198" y="757"/>
    </contour>
  </outline>
</glyph>
<glyph name="ellipsis" format="2">
  <advance width="900"/>
  <unicode hex="2026"/>
  <outline>
    <contour>
      <point x="150" y="-10" type="curve" smooth="yes"/>
      <point x="209" y="-10"/>
      <point x="240" y="37"/>
      <point x="240" y="99" type="curve" smooth="yes"/>
      <point x="240" y="161"/>
      <point x="209" y="208"/>
      <point x="150" y="208" type="curve" smooth="yes"/>
      <point x="91" y="208"/>
      <point x="60" y="161"/>
      <point x="60" y="99" type="curve" smooth="yes"/>
      <point x="60" y="37"/>
      <point x="91" y="-10"/>
    </contour>
    <contour>
      <point x="150" y="16" type="curve" smooth="yes"/>
      <point x="102" y="16"/>
      <point x="78" y="52"/>
      <point x="78" y="99" type="curve" smooth="yes"/>
      <point x="78" y="146"/>
      <point x="102" y="182"/>
      <point x="150" y="182" type="curve" smooth="yes"/>
      <point x="198" y="182"/>
      <point x="222" y="146"/>
      <point x="222" y="99" type="curve" smooth="yes"/>
      <point x="222" y="52"/>
      <point x="198" y="16"/>
    </contour>
    <contour>
      <point x="450" y="-10" type="curve" smooth="yes"/>
      <point x="509" y="-10"/>
      <point x="540" y="37"/>
      <point x="540" y="99" type="curve" smooth="yes"/>
      <point x="540" y="161"/>
      <point x="509" y="208"/>
      <point x="450" y="208" type="curve" smooth="yes"/>
      <point x="391" y="208"/>
      <point x="360" y="161"/>
      <point x="360" y="99" type="curve" smooth="yes"/>
      <point x="360" y="37"/>
      <point x="391" y="-10"/>
    </contour>
    <contour>
      <point x="450" y="16" type="curve" smooth="yes"/>
      <point x="402" y="16"/>
      <point x="378" y="52"/>
      <point x="378" y="99" type="curve" smooth="yes"/>
      <point x="378" y="146"/>
      <point x="402" y="182"/>
      <point x="450" y="182" type="curve" smooth="yes"/>
      <point x="498" y="182"/>
      <point x="522" y="146"/>
      <point x="522" y="99" type="curve" smooth="yes"/>
      <point x="522" y="52"/>
      <point x="498" y="16"/>
    </contour>
    <contour>
      <point x="750" y="-10" type="curve" smooth="yes"/>
      <point x="809" y="-10"/>
      <point x="840" y="37"/>
      <point x="840" y="99" type="curve" smooth="yes"/>
      <point x="840" y="161"/>
      <point x="809" y="208"/>
      <point x="750" y="208" type="curve" smooth="yes"/>
      <point x="691" y="208"/>
      <point x="660" y="161"/>
      <point x="660" y="99" type="curve" smooth="yes"/>
      <point x="660" y="37"/>
      <point x="691" y="-10"/>
    </contour>
    <contour>
      <point x="750" y="16" type="curve" smooth="yes"/>
      <point x="702" y="16"/>
      <point x="678" y="52"/>
      <point x="678" y="99" type="curve" smooth="yes"/>
      <point x="678" y="146"/>
      <point x="702" y="182"/>
      <point x="750" y="182" type="curve" smooth="yes"/>
      <point x="798" y="182"/>
      <point x="822" y="146"/>
      <point x="822" y="99" type="curve" smooth="yes"/>
      <point x="822" y="52"/>
      <point x="798" y="16"/>
    </contour>
  </outline>
</glyph>
<glyph name="uni25CC" format="2">
  <advance width="417"/>
  <unicode hex="25CC"/>
  <note>
uni25CC
</note>
  <outline>
    <contour>
      <point x="316" y="391" type="curve" smooth="yes"/>
      <point x="326" y="391"/>
      <point x="333" y="401"/>
      <point x="333" y="417" type="curve" smooth="yes"/>
      <point x="333" y="433"/>
      <point x="326" y="444"/>
      <point x="316" y="444" type="curve" smooth="yes"/>
      <point x="305" y="444"/>
      <point x="297" y="433"/>
      <point x="297" y="417" type="curve" smooth="yes"/>
      <point x="297" y="401"/>
      <point x="305" y="391"/>
    </contour>
    <contour>
      <point x="266" y="439" type="curve" smooth="yes"/>
      <point x="276" y="439"/>
      <point x="283" y="449"/>
      <point x="283" y="465" type="curve" smooth="yes"/>
      <point x="283" y="481"/>
      <point x="276" y="492"/>
      <point x="266" y="492" type="curve" smooth="yes"/>
      <point x="254" y="492"/>
      <point x="246" y="481"/>
      <point x="246" y="465" type="curve" smooth="yes"/>
      <point x="246" y="449"/>
      <point x="254" y="439"/>
    </contour>
    <contour>
      <point x="349" y="318" type="curve" smooth="yes"/>
      <point x="360" y="318"/>
      <point x="367" y="329"/>
      <point x="367" y="345" type="curve" smooth="yes"/>
      <point x="367" y="361"/>
      <point x="360" y="371"/>
      <point x="349" y="371" type="curve" smooth="yes"/>
      <point x="338" y="371"/>
      <point x="330" y="361"/>
      <point x="330" y="345" type="curve" smooth="yes"/>
      <point x="330" y="329"/>
      <point x="338" y="318"/>
    </contour>
    <contour>
      <point x="362" y="234" type="curve" smooth="yes"/>
      <point x="372" y="234"/>
      <point x="379" y="244"/>
      <point x="379" y="260" type="curve" smooth="yes"/>
      <point x="379" y="276"/>
      <point x="372" y="286"/>
      <point x="362" y="286" type="curve" smooth="yes"/>
      <point x="351" y="286"/>
      <point x="343" y="276"/>
      <point x="343" y="260" type="curve" smooth="yes"/>
      <point x="343" y="244"/>
      <point x="351" y="234"/>
    </contour>
    <contour>
      <point x="206" y="456" type="curve" smooth="yes"/>
      <point x="217" y="456"/>
      <point x="224" y="467"/>
      <point x="224" y="483" type="curve" smooth="yes"/>
      <point x="224" y="499"/>
      <point x="217" y="509"/>
      <point x="206" y="509" type="curve" smooth="yes"/>
      <point x="195" y="509"/>
      <point x="188" y="499"/>
      <point x="188" y="483" type="curve" smooth="yes"/>
      <point x="188" y="467"/>
      <point x="195" y="456"/>
    </contour>
    <contour>
      <point x="147" y="439" type="curve" smooth="yes"/>
      <point x="158" y="439"/>
      <point x="166" y="449"/>
      <point x="166" y="465" type="curve" smooth="yes"/>
      <point x="166" y="481"/>
      <point x="158" y="492"/>
      <point x="147" y="492" type="curve" smooth="yes"/>
      <point x="136" y="492"/>
      <point x="129" y="481"/>
      <point x="129" y="465" type="curve" smooth="yes"/>
      <point x="129" y="449"/>
      <point x="136" y="439"/>
    </contour>
    <contour>
      <point x="349" y="149" type="curve" smooth="yes"/>
      <point x="360" y="149"/>
      <point x="367" y="159"/>
      <point x="367" y="175" type="curve" smooth="yes"/>
      <point x="367" y="191"/>
      <point x="360" y="202"/>
      <point x="349" y="202" type="curve" smooth="yes"/>
      <point x="338" y="202"/>
      <point x="330" y="191"/>
      <point x="330" y="175" type="curve" smooth="yes"/>
      <point x="330" y="159"/>
      <point x="338" y="149"/>
    </contour>
    <contour>
      <point x="97" y="391" type="curve" smooth="yes"/>
      <point x="108" y="391"/>
      <point x="116" y="401"/>
      <point x="116" y="417" type="curve" smooth="yes"/>
      <point x="116" y="433"/>
      <point x="108" y="444"/>
      <point x="97" y="444" type="curve" smooth="yes"/>
      <point x="86" y="444"/>
      <point x="79" y="433"/>
      <point x="79" y="416" type="curve" smooth="yes"/>
      <point x="79" y="401"/>
      <point x="86" y="391"/>
    </contour>
    <contour>
      <point x="316" y="76" type="curve" smooth="yes"/>
      <point x="326" y="76"/>
      <point x="333" y="86"/>
      <point x="333" y="102" type="curve" smooth="yes"/>
      <point x="333" y="118"/>
      <point x="326" y="129"/>
      <point x="316" y="129" type="curve" smooth="yes"/>
      <point x="305" y="129"/>
      <point x="297" y="118"/>
      <point x="297" y="102" type="curve" smooth="yes"/>
      <point x="297" y="86"/>
      <point x="305" y="76"/>
    </contour>
    <contour>
      <point x="266" y="29" type="curve" smooth="yes"/>
      <point x="276" y="29"/>
      <point x="283" y="39"/>
      <point x="283" y="54" type="curve" smooth="yes"/>
      <point x="283" y="70"/>
      <point x="276" y="81"/>
      <point x="266" y="81" type="curve" smooth="yes"/>
      <point x="254" y="81"/>
      <point x="246" y="70"/>
      <point x="246" y="54" type="curve" smooth="yes"/>
      <point x="246" y="39"/>
      <point x="254" y="29"/>
    </contour>
    <contour>
      <point x="64" y="318" type="curve" smooth="yes"/>
      <point x="75" y="318"/>
      <point x="82" y="329"/>
      <point x="82" y="345" type="curve" smooth="yes"/>
      <point x="82" y="361"/>
      <point x="75" y="371"/>
      <point x="64" y="371" type="curve" smooth="yes"/>
      <point x="53" y="371"/>
      <point x="45" y="361"/>
      <point x="45" y="345" type="curve" smooth="yes"/>
      <point x="45" y="329"/>
      <point x="53" y="318"/>
    </contour>
    <contour>
      <point x="52" y="234" type="curve" smooth="yes"/>
      <point x="63" y="234"/>
      <point x="70" y="244"/>
      <point x="70" y="260" type="curve" smooth="yes"/>
      <point x="70" y="276"/>
      <point x="63" y="286"/>
      <point x="52" y="286" type="curve" smooth="yes"/>
      <point x="41" y="286"/>
      <point x="33" y="276"/>
      <point x="33" y="260" type="curve" smooth="yes"/>
      <point x="33" y="244"/>
      <point x="41" y="234"/>
    </contour>
    <contour>
      <point x="206" y="11" type="curve" smooth="yes"/>
      <point x="217" y="11"/>
      <point x="224" y="22"/>
      <point x="224" y="38" type="curve" smooth="yes"/>
      <point x="224" y="54"/>
      <point x="217" y="64"/>
      <point x="206" y="64" type="curve" smooth="yes"/>
      <point x="195" y="64"/>
      <point x="188" y="54"/>
      <point x="188" y="38" type="curve" smooth="yes"/>
      <point x="188" y="22"/>
      <point x="195" y="11"/>
    </contour>
    <contour>
      <point x="64" y="149" type="curve" smooth="yes"/>
      <point x="75" y="149"/>
      <point x="82" y="159"/>
      <point x="82" y="175" type="curve" smooth="yes"/>
      <point x="82" y="191"/>
      <point x="75" y="202"/>
      <point x="64" y="202" type="curve" smooth="yes"/>
      <point x="53" y="202"/>
      <point x="45" y="191"/>
      <point x="45" y="175" type="curve" smooth="yes"/>
      <point x="45" y="159"/>
      <point x="53" y="149"/>
    </contour>
    <contour>
      <point x="147" y="29" type="curve" smooth="yes"/>
      <point x="158" y="29"/>
      <point x="166" y="40"/>
      <point x="166" y="56" type="curve" smooth="yes"/>
      <point x="166" y="71"/>
      <point x="158" y="81"/>
      <point x="147" y="81" type="curve" smooth="yes"/>
      <point x="136" y="81"/>
      <point x="129" y="70"/>
      <point x="129" y="54" type="curve" smooth="yes"/>
      <point x="129" y="39"/>
      <point x="136" y="29"/>
    </contour>
    <contour>
      <point x="97" y="76" type="curve" smooth="yes"/>
      <point x="108" y="76"/>
      <point x="116" y="86"/>
      <point x="116" y="102" type="curve" smooth="yes"/>
      <point x="116" y="118"/>
      <point x="108" y="129"/>
      <point x="97" y="129" type="curve" smooth="yes"/>
      <point x="86" y="129"/>
      <point x="79" y="118"/>
      <point x="79" y="102" type="curve" smooth="yes"/>
      <point x="79" y="86"/>
      <point x="86" y="76"/>
    </contour>
  </outline>
</glyph>
<glyph name="uniA92E" format="2">
  <advance width="512"/>
  <unicode hex="A92E"/>
  <outline>
    <contour>
      <point x="256" y="274" type="curve" smooth="yes"/>
      <point x="136" y="274"/>
      <point x="61" y="202"/>
      <point x="24" y="63" type="curve"/>
      <point x="41" y="63" type="line"/>
      <point x="80" y="185"/>
      <point x="144" y="247"/>
      <point x="256" y="247" type="curve" smooth="yes"/>
      <point x="369" y="247"/>
      <point x="432" y="185"/>
      <point x="472" y="63" type="curve"/>
      <point x="488" y="63" type="line"/>
      <point x="451" y="202"/>
      <point x="377" y="274"/>
    </contour>
  </outline>
</glyph>
<glyph name="gha_shn" format="2">
  <advance width="498"/>
  <unicode hex="A9E0"/>
  <outline>
    <contour>
      <point x="292" y="9" type="line"/>
      <point x="292" y="88" type="line" smooth="yes"/>
      <point x="292" y="175"/>
      <point x="230" y="194"/>
      <point x="179" y="194" type="curve" smooth="yes"/>
      <point x="91" y="194"/>
      <point x="76" y="136"/>
      <point x="76" y="100" type="curve" smooth="yes"/>
      <point x="76" y="57"/>
      <point x="102" y="-8"/>
      <point x="231" y="-8" type="curve" smooth="yes"/>
      <point x="367" y="-8"/>
      <point x="429" y="76"/>
      <point x="429" y="260" type="curve" smooth="yes"/>
      <point x="429" y="431"/>
      <point x="354" y="528"/>
      <point x="236" y="528" type="curve" smooth="yes"/>
      <point x="133" y="528"/>
      <point x="74" y="469"/>
      <point x="74" y="386" type="curve" smooth="yes"/>
      <point x="74" y="332"/>
      <point x="100" y="291"/>
      <point x="146" y="291" type="curve" smooth="yes"/>
      <point x="194" y="291"/>
      <point x="219" y="332"/>
      <point x="219" y="386" type="curve" smooth="yes"/>
      <point x="219" y="439"/>
      <point x="194" y="478"/>
      <point x="148" y="478" type="curve" smooth="yes"/>
      <point x="139" y="478"/>
      <point x="131" y="476"/>
      <point x="123" y="473" type="curve"/>
      <point x="136" y="471" type="line"/>
      <point x="174" y="499"/>
      <point x="209" y="500"/>
      <point x="239" y="500" type="curve" smooth="yes"/>
      <point x="345" y="500"/>
      <point x="409" y="411"/>
      <point x="409" y="268" type="curve" smooth="yes"/>
      <point x="409" y="248" type="line" smooth="yes"/>
      <point x="409" y="96"/>
      <point x="354" y="20"/>
      <point x="240" y="20" type="curve" smooth="yes"/>
      <point x="229" y="20" type="line" smooth="yes"/>
      <point x="134" y="20"/>
      <point x="97" y="55"/>
      <point x="97" y="101" type="curve" smooth="yes"/>
      <point x="97" y="136"/>
      <point x="117" y="167"/>
      <point x="173" y="167" type="curve" smooth="yes"/>
      <point x="185" y="167" type="line" smooth="yes"/>
      <point x="219" y="167"/>
      <point x="272" y="157"/>
      <point x="272" y="81" type="curve" smooth="yes"/>
      <point x="272" y="9" type="line"/>
    </contour>
    <contour>
      <point x="146" y="314" type="curve" smooth="yes"/>
      <point x="109" y="314"/>
      <point x="93" y="344"/>
      <point x="93" y="386" type="curve" smooth="yes"/>
      <point x="93" y="427"/>
      <point x="109" y="458"/>
      <point x="146" y="458" type="curve" smooth="yes"/>
      <point x="184" y="458"/>
      <point x="201" y="427"/>
      <point x="201" y="386" type="curve" smooth="yes"/>
      <point x="201" y="344"/>
      <point x="184" y="314"/>
    </contour>
  </outline>
</glyph>
<glyph name="cha_shn" format="2">
  <advance width="795"/>
  <unicode hex="A9E1"/>
  <outline>
    <contour>
      <point x="78" y="166" type="line"/>
      <point x="94" y="55"/>
      <point x="159" y="-8"/>
      <point x="245" y="-8" type="curve" smooth="yes"/>
      <point x="259" y="-8" type="line" smooth="yes"/>
      <point x="318" y="-8"/>
      <point x="367" y="24"/>
      <point x="394" y="69" type="curve" smooth="yes"/>
      <point x="421" y="114"/>
      <point x="432" y="181"/>
      <point x="432" y="260" type="curve" smooth="yes"/>
      <point x="432" y="339"/>
      <point x="421" y="406"/>
      <point x="394" y="451" type="curve" smooth="yes"/>
      <point x="367" y="496"/>
      <point x="317" y="528"/>
      <point x="244" y="528" type="curve" smooth="yes"/>
      <point x="226" y="528" type="line" smooth="yes"/>
      <point x="105" y="528"/>
      <point x="79" y="463"/>
      <point x="79" y="420" type="curve" smooth="yes"/>
      <point x="79" y="384"/>
      <point x="94" y="326"/>
      <point x="182" y="326" type="curve" smooth="yes"/>
      <point x="233" y="326"/>
      <point x="295" y="345"/>
      <point x="295" y="432" type="curve" smooth="yes"/>
      <point x="295" y="521" type="line"/>
      <point x="275" y="521" type="line"/>
      <point x="275" y="439" type="line" smooth="yes"/>
      <point x="275" y="363"/>
      <point x="222" y="353"/>
      <point x="188" y="353" type="curve" smooth="yes"/>
      <point x="176" y="353" type="line" smooth="yes"/>
      <point x="120" y="353"/>
      <point x="100" y="384"/>
      <point x="100" y="419" type="curve" smooth="yes"/>
      <point x="100" y="465"/>
      <point x="137" y="500"/>
      <point x="232" y="500" type="curve" smooth="yes"/>
      <point x="243" y="500" type="line" smooth="yes"/>
      <point x="357" y="500"/>
      <point x="412" y="424"/>
      <point x="412" y="272" type="curve" smooth="yes"/>
      <point x="412" y="248" type="line" smooth="yes"/>
      <point x="412" y="96"/>
      <point x="358" y="20"/>
      <point x="252" y="20" type="curve" smooth="yes"/>
      <point x="167" y="20"/>
      <point x="113" y="71"/>
      <point x="99" y="166" type="curve"/>
    </contour>
    <contour>
      <point x="394" y="88" type="line"/>
      <point x="419" y="30"/>
      <point x="476" y="-8"/>
      <point x="539" y="-8" type="curve" smooth="yes"/>
      <point x="553" y="-8" type="line" smooth="yes"/>
      <point x="612" y="-8"/>
      <point x="661" y="24"/>
      <point x="688" y="69" type="curve" smooth="yes"/>
      <point x="715" y="114"/>
      <point x="726" y="181"/>
      <point x="726" y="260" type="curve" smooth="yes"/>
      <point x="726" y="339"/>
      <point x="715" y="406"/>
      <point x="688" y="451" type="curve" smooth="yes"/>
      <point x="661" y="496"/>
      <point x="612" y="528"/>
      <point x="549" y="528" type="curve" smooth="yes"/>
      <point x="534" y="528"/>
      <point x="517" y="527"/>
      <point x="504" y="524" type="curve"/>
      <point x="504" y="500" type="line"/>
      <point x="546" y="500" type="line" smooth="yes"/>
      <point x="652" y="500"/>
      <point x="706" y="424"/>
      <point x="706" y="272" type="curve" smooth="yes"/>
      <point x="706" y="248" type="line" smooth="yes"/>
      <point x="706" y="96"/>
      <point x="652" y="20"/>
      <point x="546" y="20" type="curve" smooth="yes"/>
      <point x="478" y="20"/>
      <point x="432" y="51"/>
      <point x="407" y="113" type="curve"/>
    </contour>
  </outline>
</glyph>
